SplineFontDB: 3.2
FontName: SeriousShannsBoldItalic
FullName: Serious Shanns Bold Italic
FamilyName: Serious Shanns Bold Italic
Weight: Bold
Copyright: https://github.com/kaBeech/serious-shanns/blob/main/LICENSE
Version: 4.0.0
ItalicAngle: -12.5
UnderlinePosition: 0
UnderlineWidth: 0
Ascent: 800
Descent: 200
InvalidEm: 0
sfntRevision: 0x00003333
LayerCount: 2
Layer: 0 0 "Back" 1
Layer: 1 0 "Fore" 0
XUID: [1021 45 630387186 10904090]
StyleMap: 0x0040
FSType: 4
OS2Version: 3
OS2_WeightWidthSlopeOnly: 0
OS2_UseTypoMetrics: 0
CreationTime: 1532631502
ModificationTime: 1718144335
PfmFamily: 81
TTFWeight: 700
TTFWidth: 5
LineGap: 0
VLineGap: 0
Panose: 0 0 0 0 0 0 0 0 0 0
OS2TypoAscent: 613
OS2TypoAOffset: 0
OS2TypoDescent: -188
OS2TypoDOffset: 0
OS2TypoLinegap: 98
OS2WinAscent: 778
OS2WinAOffset: 0
OS2WinDescent: 308
OS2WinDOffset: 0
HheadAscent: 796
HheadAOffset: 0
HheadDescent: -317
HheadDOffset: 0
OS2SubXSize: 317
OS2SubYSize: 293
OS2SubXOff: 0
OS2SubYOff: 37
OS2SupXSize: 317
OS2SupYSize: 293
OS2SupXOff: 0
OS2SupYOff: 171
OS2StrikeYSize: 0
OS2StrikeYPos: 132
OS2CapHeight: 576
OS2XHeight: 485
OS2Vendor: 'NONE'
OS2CodePages: 00000001.00000000
OS2UnicodeRanges: 00000001.00000000.00000000.00000000
MarkAttachClasses: 1
DEI: 91125
LangName: 1033 "" "" "Normal" "" "" "Version 0.2.0"
Encoding: UnicodeBmp
UnicodeInterp: none
NameList: AGL For New Fonts
DisplaySize: -48
AntiAlias: 1
FitToEm: 0
WinInfo: 64 16 14
BeginPrivate: 9
BlueValues 32 [-40 -6 499 523 706 718 765 769]
OtherBlues 11 [-297 -287]
BlueScale 9 0.0291667
BlueShift 1 0
StdHW 5 [111]
StdVW 5 [118]
StemSnapH 33 [100 106 110 111 114 116 119 179]
StemSnapV 5 [118]
ForceBold 4 true
EndPrivate
BeginChars: 65537 121

StartChar: .notdef
Encoding: 65536 -1 0
Width: 551
GlyphClass: 1
Flags: W
LayerCount: 2
Fore
SplineSet
-55 -280 m 1
 186 761 l 1
 606 761 l 1
 366 -280 l 1
 -55 -280 l 1
240 683 m 1
 36 -202 l 1
 312 -202 l 1
 516 683 l 1
 240 683 l 1
EndSplineSet
Validated: 1
EndChar

StartChar: exclam
Encoding: 33 33 8
Width: 551
GlyphClass: 2
Flags: HMW
HStem: -36.998 179<169.002 245.335 180.002 245.335>
VStem: 121.002 309.998
LayerCount: 2
Fore
SplineSet
431 738 m 0
 429.666992188 732 420.001953125 694.668945312 402.001953125 626.001953125 c 0
 384.001953125 557.334960938 370.334960938 502.334960938 361.001953125 461.001953125 c 0
 356.334960938 441.668945312 351.834960938 421.501953125 347.501953125 400.501953125 c 0
 343.168945312 379.501953125 339.168945312 361.501953125 335.501953125 346.501953125 c 0
 331.834960938 331.501953125 329.001953125 321.168945312 327.001953125 315.501953125 c 0
 325.001953125 309.834960938 323.168945312 302.66796875 321.501953125 294.000976562 c 0
 319.834960938 285.333984375 318.001953125 277.333984375 316.001953125 270.000976562 c 0
 310.001953125 251.333984375 300.001953125 237.000976562 286.001953125 227.000976562 c 0
 272.668945312 217.66796875 258.668945312 212.66796875 244.001953125 212.000976562 c 2
 241.001953125 212.000976562 l 2
 225.668945312 212.000976562 214.3359375 217.66796875 207.002929688 229.000976562 c 0
 202.558051205 235.66796875 200.335611963 243.964894406 200.335611963 253.891464134 c 0
 200.335611963 258.854021989 200.891059017 264.223871518 202.001953125 270.000976562 c 0
 204.001953125 278.000976562 207.501953125 288.500976562 212.501953125 301.500976562 c 0
 217.501953125 314.500976562 221.001953125 324.000976562 223.001953125 330.000976562 c 0
 225.001953125 336.000976562 227.834960938 346.16796875 231.501953125 360.500976562 c 0
 235.168945312 374.833984375 238.501953125 388.666992188 241.501953125 402 c 0
 244.501953125 415.333007812 248.668945312 435.666015625 254.001953125 462.999023438 c 0
 260.001953125 494.999023438 266.334960938 525.666015625 273.001953125 554.999023438 c 0
 279.668945312 584.33203125 285.168945312 607.33203125 289.501953125 623.999023438 c 0
 293.834960938 640.666015625 299.16796875 661.333007812 305.500976562 686 c 0
 311.833984375 710.666992188 316.000976562 727 318.000976562 735 c 0
 323.333984375 756.333007812 332.833984375 772.833007812 346.500976562 784.5 c 0
 360.16796875 796.166992188 374.66796875 802 390.000976562 802 c 2
 394.000976562 802 l 2
 408.66796875 802 419.66796875 796.666992188 427.000976562 786 c 0
 431.482060194 779.481571912 433.72260201 770.971672656 433.72260201 760.470302232 c 0
 433.72260201 753.786849143 432.815068007 746.296748399 431 738 c 0
180.001953125 -36.998046875 m 2
 158.001953125 -36.998046875 141.668945312 -28.998046875 131.001953125 -12.998046875 c 0
 122.406567679 -0.331267689597 118.109027517 14.023533174 118.109027517 30.0666608393 c 0
 118.109027517 37.6662393749 119.073346864 45.644659326 121.001953125 54.001953125 c 0
 126.334960938 78.001953125 140.001953125 98.3349609375 162.001953125 115.001953125 c 0
 186.001953125 133.001953125 209.834960938 142.001953125 233.501953125 142.001953125 c 0
 257.168945312 142.001953125 274.668945312 134.001953125 286.001953125 118.001953125 c 0
 294.001953125 106.890625 298.001953125 93.9277343752 298.001953125 79.1129918983 c 0
 298.001953125 71.7056206598 297.001953125 63.8352864583 295.001953125 55.501953125 c 0
 289.001953125 30.501953125 276.501953125 9.6689453125 257.501953125 -6.998046875 c 0
 238.501953125 -23.6650390625 216.001953125 -33.6650390625 190.001953125 -36.998046875 c 2
 180.001953125 -36.998046875 l 2
EndSplineSet
Validated: 1
EndChar

StartChar: quotedbl
Encoding: 34 34 9
Width: 551
GlyphClass: 2
Flags: W
LayerCount: 2
Fore
SplineSet
292 739 m 0
 290.666992188 730.333007812 287.6640625 716.333984375 282.997070312 697.000976562 c 0
 278.330078125 677.66796875 269.330078125 641.66796875 255.997070312 589.000976562 c 0
 241.997070312 533.66796875 230.997070312 495.000976562 222.997070312 473.000976562 c 0
 216.997070312 456.333984375 207.330078125 443.666992188 193.997070312 435 c 0
 181.997070312 427 170.330078125 423 158.997070312 423 c 0
 143.6640625 423 130.331054688 428 118.998046875 438 c 0
 112.464866214 444.533180661 109.198108397 452.70005127 109.198108397 462.500276856 c 0
 109.198108397 466.700212403 109.798079101 471.200128905 110.998046875 476 c 2
 112.998046875 482 l 2
 120.331054688 508 128.331054688 540 136.998046875 578 c 0
 139.665039062 588.666992188 141.998046875 600 143.998046875 612 c 0
 158.665039062 679.333007812 168.33203125 724.666015625 172.999023438 747.999023438 c 0
 174.999023438 756.666015625 178.666015625 764.333007812 183.999023438 771 c 0
 190.666015625 779 198.333007812 785 207 789 c 0
 217.49945075 793.083404552 227.743969066 795.125106828 237.732900831 795.125106828 c 0
 239.160488276 795.125106828 240.582855302 795.083404552 242 795 c 0
 251.333007812 795 258.833007812 794.166992188 264.5 792.5 c 0
 270.166992188 790.833007812 275.666992188 788 281 784 c 0
 286.333007812 780 290 774 292 766 c 0
 294 758 294 749 292 739 c 0
440.997070312 738.000976562 m 0
 439.6640625 731.333984375 438.330078125 725.001953125 436.997070312 719.001953125 c 0
 428.997070312 685.001953125 418.330078125 641.668945312 404.997070312 589.001953125 c 0
 390.997070312 533.668945312 380.330078125 495.001953125 372.997070312 473.001953125 c 0
 366.997070312 456.334960938 356.997070312 443.66796875 342.997070312 435.000976562 c 0
 330.997070312 427.000976562 318.997070312 423.000976562 306.997070312 423.000976562 c 0
 291.6640625 423.000976562 278.997070312 428.000976562 268.997070312 438.000976562 c 0
 262.120003569 444.878043306 258.681470197 453.565310964 258.681470197 464.062388836 c 0
 258.681470197 467.811109854 259.120003569 471.790645028 259.997070312 476.000976562 c 2
 261.997070312 482.000976562 l 2
 268.6640625 504.66796875 275.6640625 532.000976562 282.997070312 564.000976562 c 0
 298.330078125 631.333984375 310.997070312 691.000976562 320.997070312 743.000976562 c 1
 320.997070312 746.000976562 l 2
 322.997070312 755.333984375 327.1640625 763.833984375 333.497070312 771.500976562 c 0
 339.830078125 779.16796875 347.330078125 785.000976562 355.997070312 789.000976562 c 0
 366.496521062 793.084381114 376.741039378 795.12608339 386.729971143 795.12608339 c 0
 388.157558588 795.12608339 389.579925614 795.084381114 390.997070312 795.000976562 c 0
 400.330078125 795.000976562 407.830078125 794.16796875 413.497070312 792.500976562 c 0
 419.1640625 790.833984375 424.6640625 788.333984375 429.997070312 785.000976562 c 0
 435.997070312 781.000976562 439.830078125 774.833984375 441.497070312 766.500976562 c 0
 443.1640625 758.16796875 442.997070312 748.66796875 440.997070312 738.000976562 c 0
EndSplineSet
Validated: 1
EndChar

StartChar: numbersign
Encoding: 35 35 10
Width: 551
GlyphClass: 2
Flags: HMW
HStem: -14 21G<26.6665 34> 178.501 108.501<208 208> 433.002 109.002<314.996 353.996 269.996 395.996>
LayerCount: 2
Fore
SplineSet
153 431 m 1
 135.666992188 430.333007812 125.99609375 430.334960938 123.99609375 431.001953125 c 0
 107.329101562 431.001953125 95.3291015625 435.334960938 87.99609375 444.001953125 c 0
 82.3490158432 451.060800508 79.5256486298 459.448538794 79.5256486298 469.164824501 c 0
 79.5256486298 473.213230364 80.0158052851 477.49228152 80.99609375 482.001953125 c 2
 80.99609375 485.001953125 l 2
 84.3291015625 499.001953125 92.162109375 511.334960938 104.495117188 522.001953125 c 0
 116.828125 532.668945312 132.328125 538.3359375 150.995117188 539.002929688 c 0
 161.662109375 539.669921875 176.995117188 540.002929688 196.995117188 540.002929688 c 1
 255.995117188 686.002929688 l 2
 266.662109375 706.669921875 279.329101562 721.002929688 293.99609375 729.002929688 c 0
 303.99609375 734.3359375 313.99609375 737.002929688 323.99609375 737.002929688 c 0
 327.99609375 737.002929688 332.329101562 736.3359375 336.99609375 735.002929688 c 0
 352.329101562 731.669921875 362.662109375 723.336914062 367.995117188 710.00390625 c 0
 370.395140624 704.404046882 371.595257813 698.204058605 371.595257813 691.403941421 c 0
 371.595257813 686.870640634 371.061898437 682.07062891 369.995117188 677.00390625 c 0
 368.662109375 671.00390625 366.329101562 665.00390625 362.99609375 659.00390625 c 2
 314.99609375 542.00390625 l 1
 395.99609375 542.00390625 l 1
 450.99609375 678.00390625 l 2
 461.663085938 699.336914062 474.330078125 714.00390625 488.997070312 722.00390625 c 0
 498.997070312 727.336914062 508.997070312 729.669921875 518.997070312 729.002929688 c 0
 523.6640625 729.002929688 528.331054688 728.669921875 532.998046875 728.002929688 c 0
 548.331054688 724.669921875 558.998046875 716.336914062 564.998046875 703.00390625 c 0
 567.398070311 697.803660158 568.5981875 692.003636728 568.5981875 685.603625016 c 0
 568.5981875 681.337054699 568.064828124 676.803835943 566.998046875 672.00390625 c 0
 565.665039062 665.336914062 562.998046875 658.336914062 558.998046875 651.00390625 c 0
 546.998046875 626.336914062 531.665039062 590.336914062 512.998046875 543.00390625 c 1
 529.665039062 542.336914062 542.33203125 537.00390625 550.999023438 527.00390625 c 0
 559.332356771 517.559733073 563.499023438 507.189181858 563.499023438 495.892817745 c 0
 563.499023438 493.633544922 563.332356771 491.337239583 562.999023438 489.00390625 c 0
 559.666015625 473.670898438 551.833007812 460.670898438 539.5 450.00390625 c 0
 527.166992188 439.336914062 512 433.669921875 494 433.002929688 c 2
 493 433.002929688 l 1
 469 433.002929688 l 1
 412 286.002929688 l 1
 437 286.002929688 l 2
 455 286.002929688 466.666992188 281.3359375 472 272.002929688 c 0
 475.555121541 265.781304239 477.332682312 258.522479025 477.332682312 250.226743343 c 0
 477.332682312 246.07811596 476.888129354 241.670166015 475.999023438 237.002929688 c 2
 475.999023438 236.002929688 l 2
 472.666015625 220.002929688 466.333007812 207.669921875 457 199.002929688 c 0
 445 186.3359375 430 180.002929688 412 180.002929688 c 2
 370 180.002929688 l 1
 342 109.3359375 322.333007812 60.6689453125 311 34.001953125 c 0
 300.333007812 16.6689453125 286.333007812 3.3359375 269 -5.9970703125 c 0
 258.800641534 -11.3968857728 249.411227706 -14.0971494235 240.831758517 -14.0971494235 c 0
 239.878158379 -14.0971494235 238.934564394 -14.0637900457 238.000976562 -13.9970703125 c 0
 232.66796875 -13.9970703125 227.66796875 -13.330078125 223.000976562 -11.9970703125 c 0
 209.000976562 -8.6640625 200.000976562 1.6689453125 196.000976562 19.001953125 c 0
 194.000976562 28.3349609375 194.333984375 37.66796875 197.000976562 47.0009765625 c 0
 199.000976562 55.0009765625 202.000976562 63.333984375 206.000976562 72.0009765625 c 0
 217.333984375 96.0009765625 232.666992188 131.66796875 252 179.000976562 c 1
 240.666992188 179.000976562 226 178.833984375 208 178.500976562 c 0
 190 178.16796875 175.333007812 178.000976562 164 178.000976562 c 1
 126 88.0009765625 106.333007812 41.333984375 105 38.0009765625 c 0
 95.6669921875 21.333984375 81.6669921875 7.6669921875 63 -3 c 0
 50.3330078125 -10.3330078125 39 -14 29 -14 c 0
 24.3330078125 -14 19.3330078125 -13.3330078125 14 -12 c 0
 0 -8.6669921875 -8.3330078125 2.3330078125 -11 21 c 0
 -12.3330078125 30.3330078125 -12 39.5 -10 48.5 c 0
 -8 57.5 -4.6669921875 66.6669921875 0 76 c 0
 8 92 23.3330078125 125.666992188 46 177 c 1
 32 177 l 2
 14 177 1 181 -7 189 c 0
 -13.2597294648 195.259729465 -16.3895941973 203.258102864 -16.3895941973 212.995120197 c 0
 -16.3895941973 216.739620497 -15.9267216523 220.741247098 -15.0009765625 225 c 2
 -15.0009765625 229 l 2
 -11.66796875 243 -4.16796875 255 7.4990234375 265 c 0
 19.166015625 275 34.3330078125 280.666992188 53 282 c 0
 58.3330078125 282 65 282.166992188 73 282.5 c 0
 81 282.833007812 87 283 91 283 c 2
 153 431 l 1
353.99609375 433.001953125 m 1
 269.99609375 433.001953125 l 1
 208.99609375 287.001953125 l 1
 294.99609375 287.001953125 l 1
 314.99609375 334.334960938 334.663085938 383.001953125 353.99609375 433.001953125 c 1
EndSplineSet
Validated: 1
EndChar

StartChar: dollar
Encoding: 36 36 11
Width: 551
GlyphClass: 2
Flags: HMW
HStem: 623.002 101
VStem: 401.01 117.492
LayerCount: 2
Fore
SplineSet
211.5 -130 m 0
 197.166992188 -140 181.67578125 -144.999023438 165.008789062 -144.999023438 c 2
 164.008789062 -144.999023438 l 2
 147.341796875 -144.999023438 136.008789062 -138.999023438 130.008789062 -126.999023438 c 0
 127.286187053 -121.942925335 125.924886048 -115.865851478 125.924886048 -108.767801868 c 0
 125.924886048 -103.69861515 126.619194866 -98.1086968185 128.0078125 -91.998046875 c 0
 128.674804688 -88.6650390625 130.174804688 -82.83203125 132.5078125 -74.4990234375 c 0
 134.840820312 -66.166015625 138.673828125 -51.9990234375 144.006835938 -31.9990234375 c 1
 122.006835938 -31.33203125 101.006835938 -27.9990234375 81.0068359375 -21.9990234375 c 0
 62.33984375 -16.666015625 46.33984375 -8.666015625 33.0068359375 2.0009765625 c 0
 7.673828125 22.0009765625 -8.326171875 46.0009765625 -14.9931640625 74.0009765625 c 0
 -16.5171026511 82.3818017776 -17.2789808478 90.3270728103 -17.2789808478 97.8369718562 c 0
 -17.2789808478 103.469887248 -16.8503496248 108.857863188 -15.9931640625 114.000976562 c 0
 -15.326171875 118.000976562 -13.9931640625 121.66796875 -11.9931640625 125.000976562 c 0
 -5.326171875 139.66796875 5.673828125 150.66796875 21.0068359375 158.000976562 c 0
 29.673828125 162.000976562 36.5068359375 164.500976562 41.5068359375 165.500976562 c 0
 46.5068359375 166.500976562 50.5068359375 167.000976562 53.5068359375 167.000976562 c 2
 62.0068359375 167.000976562 l 2
 69.33984375 166.333984375 75.5068359375 163.000976562 80.5068359375 157.000976562 c 0
 85.5068359375 151.000976562 90.0068359375 143.333984375 94.0068359375 134.000976562 c 0
 102.006835938 115.333984375 112.673828125 100.666992188 126.006835938 90 c 0
 137.33984375 81.3330078125 152.33984375 76.3330078125 171.006835938 75 c 1
 195.006835938 174.333007812 216.33984375 263.666015625 235.006835938 342.999023438 c 1
 233.006835938 342.999023438 229.33984375 343.666015625 224.006835938 344.999023438 c 0
 220.673828125 345.666015625 216.006835938 345.999023438 210.006835938 345.999023438 c 0
 184.673828125 348.666015625 163.006835938 355.333007812 145.006835938 366 c 0
 128.33984375 376.666992188 115.506835938 389.333984375 106.506835938 404.000976562 c 0
 97.5068359375 418.66796875 91.673828125 434.500976562 89.0068359375 451.500976562 c 0
 87.9400546882 458.30087696 87.4066953122 465.074059392 87.4066953122 471.820586353 c 0
 87.4066953122 481.940623844 88.6068125018 492.000683599 91.0068359375 502.000976562 c 0
 97.0068359375 526.66796875 106.173828125 550.334960938 118.506835938 573.001953125 c 0
 130.83984375 595.668945312 146.672851562 616.8359375 166.005859375 636.502929688 c 0
 185.338867188 656.169921875 209.005859375 673.002929688 237.005859375 687.002929688 c 0
 263.672851562 699.669921875 292.005859375 709.002929688 322.005859375 715.002929688 c 1
 325.338867188 728.3359375 329.338867188 744.002929688 334.005859375 762.002929688 c 0
 342.005859375 794.002929688 357.005859375 814.3359375 379.005859375 823.002929688 c 0
 386.338867188 825.669921875 395.005859375 827.002929688 405.005859375 827.002929688 c 0
 425.672851562 827.002929688 439.005859375 820.002929688 445.005859375 806.002929688 c 0
 447.518805382 800.259278455 448.775202159 793.645839202 448.775202159 786.162611927 c 0
 448.775202159 779.748141789 447.852055892 772.694588854 446.005859375 765.001953125 c 0
 441.338867188 745.001953125 438.005859375 731.334960938 436.005859375 724.001953125 c 1
 450.005859375 722.668945312 468.338867188 719.001953125 491.005859375 713.001953125 c 0
 513.005859375 707.668945312 530.005859375 702.668945312 542.005859375 698.001953125 c 0
 555.338867188 692.668945312 563.671875 683.668945312 567.004882812 671.001953125 c 0
 569.671875 661.668945312 570.004882812 652.001953125 568.004882812 642.001953125 c 0
 567.337890625 638.668945312 566.337890625 635.001953125 565.004882812 631.001953125 c 0
 561.671875 621.001953125 556.171875 613.001953125 548.504882812 607.001953125 c 0
 540.837890625 601.001953125 532.670898438 597.334960938 524.00390625 596.001953125 c 0
 520.00390625 595.334960938 516.336914062 595.001953125 513.00390625 595.001953125 c 0
 509.670898438 595.001953125 506.00390625 595.168945312 502.00390625 595.501953125 c 0
 498.00390625 595.834960938 493.336914062 597.001953125 488.00390625 599.001953125 c 0
 481.336914062 600.334960938 473.669921875 603.001953125 465.002929688 607.001953125 c 0
 449.002929688 615.668945312 431.3359375 621.001953125 412.002929688 623.001953125 c 1
 396.002929688 558.334960938 380.669921875 497.001953125 366.002929688 439.001953125 c 1
 392.669921875 434.334960938 417.002929688 427.334960938 439.002929688 418.001953125 c 0
 459.002929688 408.001953125 474.669921875 396.001953125 486.002929688 382.001953125 c 0
 497.3359375 368.001953125 505.668945312 352.168945312 511.001953125 334.501953125 c 0
 516.021524939 317.873300191 518.531310846 301.244647256 518.531310846 284.615994322 c 0
 518.531310846 270.657150402 516.945466303 250.924356959 511.001953125 228.000976562 c 0
 503.668945312 196.66796875 491.668945312 167.000976562 475.001953125 139.000976562 c 0
 458.334960938 111.000976562 438.66796875 86.66796875 416.000976562 66.0009765625 c 0
 393.333984375 45.333984375 368.000976562 27.6669921875 340.000976562 13 c 0
 313.333984375 -0.3330078125 285.666992188 -11 257 -19 c 1
 249 -53 244.333007812 -76 243 -88 c 0
 236.333007812 -106 225.833007812 -120 211.5 -130 c 0
243.008789062 585.000976562 m 0
 224.341796875 569.66796875 212.341796875 551.666992188 207.008789062 531 c 0
 206.008789062 526.666748047 205.508789062 522.437622071 205.508789062 518.312637329 c 0
 205.508789062 505.937683106 210.008789062 494.5 219.008789062 484 c 0
 229.008789062 472 243.008789062 463 261.008789062 457 c 1
 271.008789062 498.333007812 283.67578125 551.333007812 299.008789062 616 c 1
 277.67578125 608.666992188 259.008789062 598.333984375 243.008789062 585.000976562 c 0
352.008789062 137 m 0
 376.008789062 157.666992188 391.009765625 181.33203125 397.009765625 207.999023438 c 0
 399.676757812 219.999023438 401.009765625 230.33203125 401.009765625 238.999023438 c 0
 401.009765625 248.999023438 398.676757812 259.33203125 394.009765625 269.999023438 c 0
 386.676757812 288.666015625 367.676757812 304.333007812 337.009765625 317 c 1
 319.009765625 240.333007812 307.176757812 190.5 301.509765625 167.5 c 0
 295.842773438 144.5 289.67578125 119.666992188 283.008789062 93 c 1
 309.008789062 105 332.008789062 119.666992188 352.008789062 137 c 0
EndSplineSet
Validated: 1
EndChar

StartChar: percent
Encoding: 37 37 12
Width: 551
GlyphClass: 2
Flags: HMW
HStem: -40.0059 100.999<315.007 362.007 328.007 362.007> 158.993 98<390.007 391.004> 420 98.9951<155.333 201.006> 607.994 97.0068<211.006 266.668>
VStem: 233.007 97.998<102.993 103.993 103.993 103.993> 250.007 101.995 412.005 96.002
LayerCount: 2
Fore
SplineSet
75.5 491.5 m 0xf6
 73.5580653453 500.612693587 72.5872738369 509.959787508 72.5872738369 519.541281766 c 0
 72.5872738369 531.338822777 74.0590524004 543.491728856 77.001953125 556 c 0
 77.001953125 556.666992188 77.3349609375 557.333984375 78.001953125 558.000976562 c 0
 88.001953125 600.000976562 107.834960938 635.000976562 137.501953125 663.000976562 c 0
 167.168945312 691.000976562 204.001953125 705.000976562 248.001953125 705.000976562 c 0
 285.334960938 705.000976562 314.001953125 693.000976562 334.001953125 669.000976562 c 0
 344.668945312 656.333984375 350.668945312 640.000976562 352.001953125 620.000976562 c 0
 352.298104763 616.446289062 352.446180582 612.792884349 352.446180582 609.040762423 c 0
 352.446180582 595.904212474 350.631112575 581.557617187 347.000976562 566.000976562 c 0
 335.000976562 515.333984375 313.000976562 477.666992188 281.000976562 453 c 0
 252.333984375 431 214.666992188 420 168 420 c 0
 142.666992188 420 122 426.833007812 106 440.5 c 0
 90 454.166992188 79.8330078125 471.166992188 75.5 491.5 c 0xf6
-15.998046875 -45 m 0
 -23.3310546875 -41 -28.994140625 -36.0048828125 -32.994140625 -30.0048828125 c 0
 -37.6611328125 -22.0048828125 -38.6611328125 -12.5048828125 -35.994140625 -1.5048828125 c 0
 -33.3271484375 9.4951171875 -27.3271484375 21.328125 -17.994140625 33.9951171875 c 0
 1.3388671875 61.9951171875 45.671875 120.328125 115.004882812 208.995117188 c 0
 261.671875 387.662109375 335.004882812 477.329101562 335.004882812 477.99609375 c 0
 408.337890625 567.99609375 458.670898438 632.663085938 486.00390625 671.99609375 c 0
 499.336914062 685.99609375 514.336914062 694.99609375 531.00390625 698.99609375 c 2
 545.00390625 700.99609375 l 2
 555.00390625 700.99609375 563.670898438 698.329101562 571.00390625 692.99609375 c 0
 583.037270514 686.029897447 589.053952646 676.356326379 589.053952646 663.975380548 c 0
 589.053952646 659.628122159 588.572968725 656.840716324 588.00390625 653.997070312 c 0
 585.336914062 642.6640625 578.669921875 630.331054688 568.002929688 616.998046875 c 0
 536.002929688 577.665039062 455.002929688 477.33203125 325.002929688 315.999023438 c 0
 194.3359375 154.666015625 107.668945312 45.666015625 65.001953125 -11.0009765625 c 0
 44.8272724492 -37.6828807081 25.2881854025 -51.023832781 6.38469198475 -51.023832781 c 0
 5.92340054867 -51.023832781 5.46248759542 -51.0158885206 5.001953125 -51 c 0
 -2.3310546875 -51 -9.3310546875 -49 -15.998046875 -45 c 0
247.505859375 597.495117188 m 0
 241.838867188 604.495117188 231.672851562 607.994140625 217.005859375 607.994140625 c 0
 205.005859375 607.994140625 195.672851562 604.327148438 189.005859375 596.994140625 c 0
 180.338867188 588.327148438 173.338867188 576.327148438 168.005859375 560.994140625 c 0
 168.005859375 559.661132812 167.672851562 558.328125 167.005859375 556.995117188 c 0
 164.338867188 544.995117188 164.838867188 535.995117188 168.505859375 529.995117188 c 0
 172.172851562 523.995117188 182.672851562 520.328125 200.005859375 518.995117188 c 2
 201.005859375 518.995117188 l 2
 213.005859375 518.995117188 222.672851562 522.328125 230.005859375 528.995117188 c 0
 238.672851562 536.995117188 245.33984375 547.662109375 250.006835938 560.995117188 c 0
 250.006835938 561.662109375 250.33984375 562.662109375 251.006835938 563.995117188 c 0
 252.241162724 569.67345439 252.858326117 574.780433295 252.858326117 579.316004302 c 0
 252.858326117 587.027671036 251.074170536 593.087456597 247.505859375 597.495117188 c 0
231.506835938 33.994140625 m 0
 229.234108665 43.690962358 228.097745029 53.6631989282 228.097745029 63.9109420489 c 0
 228.097745029 76.2082337938 229.734108665 88.9022549714 233.006835938 101.993164062 c 1
 233.006835938 103.993164062 l 1xfa
 243.006835938 147.993164062 264.006835938 184.493164062 296.006835938 213.493164062 c 0
 328.006835938 242.493164062 367.006835938 256.993164062 413.006835938 256.993164062 c 0
 448.33984375 256.993164062 475.006835938 244.66015625 493.006835938 219.993164062 c 0
 502.33984375 206.66015625 507.33984375 189.327148438 508.006835938 167.994140625 c 0
 508.09024049 165.993408294 508.131942766 163.966610131 508.131942766 161.913748047 c 0
 508.131942766 147.549724755 506.09024049 131.909637576 502.006835938 114.994140625 c 0
 500.673828125 108.327148438 499.006835938 101.66015625 497.006835938 94.9931640625 c 0
 485.006835938 51.66015625 465.506835938 18.3271484375 438.506835938 -5.005859375 c 0
 411.506835938 -28.3388671875 376.33984375 -40.005859375 333.006835938 -40.005859375 c 2
 328.006835938 -40.005859375 l 2
 302.006835938 -40.005859375 280.673828125 -33.005859375 264.006835938 -19.005859375 c 0
 247.33984375 -5.005859375 236.506835938 12.6611328125 231.506835938 33.994140625 c 0
362.006835938 60.9931640625 m 2
 365.00390625 60.9921875 l 2
 376.336914062 60.9921875 385.336914062 64.3251953125 392.00390625 70.9921875 c 0
 400.670898438 79.6591796875 407.337890625 91.326171875 412.004882812 105.993164062 c 1
 412.004882812 108.993164062 l 2
 413.856372992 117.881184897 414.782118082 125.534878944 414.782118082 131.954246205 c 0
 414.782118082 137.090868527 414.189380805 141.437174479 413.00390625 144.993164062 c 0
 409.00390625 154.326171875 399.00390625 158.993164062 383.00390625 158.993164062 c 0
 371.00390625 158.993164062 361.00390625 154.66015625 353.00390625 145.993164062 c 0
 343.670898438 135.993164062 336.337890625 122.66015625 331.004882812 105.993164062 c 1
 331.004882812 102.993164062 l 2
 327.671875 89.66015625 327.838867188 79.4931640625 331.505859375 72.4931640625 c 0
 335.172851562 65.4931640625 345.33984375 61.66015625 362.006835938 60.9931640625 c 2
EndSplineSet
Validated: 1
EndChar

StartChar: ampersand
Encoding: 38 38 13
Width: 551
GlyphClass: 2
Flags: HMW
HStem: -53.9971 117.999<141.334 195.001> 633.001 103.001<349.333 393.668>
LayerCount: 2
Fore
SplineSet
467 11 m 0
 466.333007812 7.6669921875 465.333007812 4.0009765625 464 0.0009765625 c 0
 456.666992188 -23.33203125 445.666992188 -38.6650390625 431 -45.998046875 c 0
 418.333007812 -50.6650390625 410.333007812 -52.998046875 407 -52.998046875 c 2
 406 -52.998046875 l 2
 398 -52.998046875 390 -50.3310546875 382 -44.998046875 c 0
 368 -36.3310546875 358 -21.3310546875 352 0.001953125 c 0
 351.333007812 3.3349609375 350.166015625 10.8349609375 348.499023438 22.501953125 c 2
 344.999023438 47.001953125 l 1
 336.999023438 38.3349609375 330.83203125 31.8349609375 326.499023438 27.501953125 c 0
 322.166015625 23.1689453125 315.333007812 16.8359375 306 8.5029296875 c 0
 296.666992188 0.169921875 288.833984375 -6.330078125 282.500976562 -10.9970703125 c 0
 276.16796875 -15.6640625 267.66796875 -21.1640625 257.000976562 -27.4970703125 c 0
 246.333984375 -33.830078125 236.333984375 -38.4970703125 227.000976562 -41.4970703125 c 0
 217.66796875 -44.4970703125 207.16796875 -47.330078125 195.500976562 -49.9970703125 c 0
 183.833984375 -52.6640625 172.000976562 -53.9970703125 160.000976562 -53.9970703125 c 0
 122.66796875 -53.9970703125 91.16796875 -43.830078125 65.5009765625 -23.4970703125 c 0
 39.833984375 -3.1640625 22.333984375 23.6689453125 13.0009765625 57.001953125 c 0
 8.16180796093 74.2851321432 5.74222366015 92.2853125424 5.74222366015 111.002494322 c 0
 5.74222366015 128.383993569 7.82880014843 146.38381317 12.001953125 165.001953125 c 0
 25.3349609375 223.001953125 47.001953125 272.668945312 77.001953125 314.001953125 c 0
 111.668945312 362.668945312 157.001953125 400.668945312 213.001953125 428.001953125 c 1
 203.001953125 455.501953125 l 2
 199.001953125 466.501953125 196.001953125 475.001953125 194.001953125 481.001953125 c 0
 192.001953125 487.001953125 189.834960938 494.834960938 187.501953125 504.501953125 c 0
 185.168945312 514.168945312 184.001953125 522.668945312 184.001953125 530.001953125 c 0
 184.001953125 550.001953125 186.334960938 569.668945312 191.001953125 589.001953125 c 0
 193.668945312 601.668945312 198.168945312 614.501953125 204.501953125 627.501953125 c 0
 210.834960938 640.501953125 219.501953125 653.668945312 230.501953125 667.001953125 c 0
 241.501953125 680.334960938 254.168945312 692.001953125 268.501953125 702.001953125 c 0
 282.834960938 712.001953125 300.001953125 720.168945312 320.001953125 726.501953125 c 0
 340.001953125 732.834960938 361.334960938 736.001953125 384.001953125 736.001953125 c 0
 403.334960938 736.001953125 421.501953125 732.668945312 438.501953125 726.001953125 c 0
 455.501953125 719.334960938 470.334960938 709.834960938 483.001953125 697.501953125 c 0
 495.668945312 685.168945312 504.168945312 668.668945312 508.501953125 648.001953125 c 0
 510.319041372 639.335052389 511.227621506 630.257863207 511.227621506 620.770385578 c 0
 511.227621506 607.634132763 509.485795769 593.711321946 506.001953125 579.001953125 c 0
 500.668945312 556.334960938 493.168945312 535.16796875 483.501953125 515.500976562 c 0
 473.834960938 495.833984375 463.334960938 479.333984375 452.001953125 466.000976562 c 0
 440.668945312 452.66796875 427.3359375 440.16796875 412.002929688 428.500976562 c 0
 396.669921875 416.833984375 383.836914062 408.000976562 373.50390625 402.000976562 c 0
 363.170898438 396.000976562 353.00390625 390.66796875 343.00390625 386.000976562 c 1
 349.670898438 366.000976562 359.670898438 340.833984375 373.00390625 310.500976562 c 0
 386.336914062 280.16796875 395.669921875 257.66796875 401.002929688 243.000976562 c 1
 403.669921875 247.000976562 407.669921875 253.16796875 413.002929688 261.500976562 c 0
 418.3359375 269.833984375 423.668945312 278.000976562 429.001953125 286.000976562 c 0
 434.334960938 294.000976562 438.66796875 300.000976562 442.000976562 304.000976562 c 0
 458.66796875 324.000976562 474.000976562 336.333984375 488.000976562 341.000976562 c 0
 493.333984375 343.000976562 498.666992188 344.000976562 504 344.000976562 c 0
 512.666992188 344.000976562 521 341.66796875 529 337.000976562 c 0
 540.460906505 330.366179944 546.191359757 319.092178495 546.191359757 303.178972217 c 0
 546.191359757 301.50434986 546.127898692 299.778351308 546.000976562 298.000976562 c 0
 546.000976562 294.000976562 545.333984375 290.000976562 544.000976562 286.000976562 c 0
 540.66796875 272.000976562 533.66796875 257.333984375 523.000976562 242.000976562 c 0
 518.333984375 235.333984375 506.333984375 222.166992188 487.000976562 202.5 c 0
 467.66796875 182.833007812 451.66796875 165.333007812 439.000976562 150 c 1
 443.000976562 138 448.16796875 121.166992188 454.500976562 99.5 c 0
 460.833984375 77.8330078125 464.666992188 65 466 61 c 0
 468.512946008 52.3847860672 469.769342784 43.5761915296 469.769342784 34.5743688409 c 0
 469.769342784 26.8581896154 468.846196517 19.0000346623 467 11 c 0
298 572.000976562 m 0
 296.333496094 564.667480469 295.500244141 557.000976562 295.500244141 549.001220703 c 0
 295.500244141 541.001464844 296.333496094 532.668457032 298 524.001953125 c 0
 301.333007812 506.668945312 306 491.668945312 312 479.001953125 c 1
 323.333007812 482.334960938 333.333007812 486.16796875 342 490.500976562 c 0
 350.666992188 494.833984375 359.5 500.333984375 368.5 507.000976562 c 0
 377.5 513.66796875 384.833007812 522.000976562 390.5 532.000976562 c 0
 396.166992188 542.000976562 400.666992188 554.333984375 404 569.000976562 c 0
 405.593605303 576.057990378 406.390388515 582.551376108 406.390388515 588.48117263 c 0
 406.390388515 599.917228236 403.426832711 609.257069915 397.5 616.500976562 c 0
 388.5 627.500976562 375.333007812 633.000976562 358 633.000976562 c 0
 340.666992188 633.000976562 327 627.333984375 317 616.000976562 c 0
 309 606.000976562 302.666992188 591.333984375 298 572.000976562 c 0
130 174.001953125 m 0
 127.066968744 161.20270313 125.60048436 149.310065631 125.60048436 138.323978139 c 0
 125.60048436 121.843237507 128.900718748 107.402632823 135.500976562 95.001953125 c 0
 146.500976562 74.3349609375 164.000976562 64.001953125 188.000976562 64.001953125 c 0
 202.000976562 64.001953125 217.000976562 66.6689453125 233.000976562 72.001953125 c 0
 238.333984375 73.3349609375 244.500976562 76.3349609375 251.500976562 81.001953125 c 2
 268.000976562 92.001953125 l 2
 272.000976562 94.6689453125 277.000976562 99.001953125 283.000976562 105.001953125 c 0
 289.000976562 111.001953125 293.333984375 115.168945312 296.000976562 117.501953125 c 0
 298.66796875 119.834960938 302.000976562 123.501953125 306.000976562 128.501953125 c 0
 310.000976562 133.501953125 312.66796875 136.668945312 314.000976562 138.001953125 c 0
 310.000976562 158.001953125 306.000976562 176.001953125 302.000976562 192.001953125 c 0
 298.000976562 207.334960938 289.500976562 230.834960938 276.500976562 262.501953125 c 0
 263.500976562 294.168945312 254.000976562 318.001953125 248.000976562 334.001953125 c 1
 232.66796875 326.668945312 218.66796875 318.001953125 206.000976562 308.001953125 c 0
 191.333984375 296.001953125 179.166992188 283.001953125 169.5 269.001953125 c 0
 159.833007812 255.001953125 151.833007812 240.334960938 145.5 225.001953125 c 0
 139.166992188 209.668945312 134 192.668945312 130 174.001953125 c 0
EndSplineSet
Validated: 1
EndChar

StartChar: quotesingle
Encoding: 39 39 14
Width: 551
GlyphClass: 2
Flags: W
LayerCount: 2
Fore
SplineSet
364 728 m 0
 362 719.333007812 359 705.833007812 355 687.5 c 0
 351 669.166992188 344.333007812 641.333984375 335 604.000976562 c 0
 320.333007812 546.000976562 309 506.000976562 301 484.000976562 c 0
 295 466.66796875 285 453.66796875 271 445.000976562 c 0
 259 437.66796875 247.333007812 434.000976562 236 434.000976562 c 0
 220 434.000976562 206.666992188 439.000976562 196 449.000976562 c 0
 189.466819339 455.534157224 186.200061522 463.701027833 186.200061522 473.50125342 c 0
 186.200061522 477.701188965 186.800032226 482.201105468 188 487.000976562 c 0
 188 489.000976562 188.666992188 491.000976562 190 493.000976562 c 0
 198 519.66796875 205.333007812 549.66796875 212 583.000976562 c 0
 222.666992188 630.333984375 233.333984375 680.000976562 244.000976562 732.000976562 c 1
 244.000976562 735.000976562 l 2
 246.000976562 744.333984375 250.000976562 752.666992188 256.000976562 760 c 0
 262.66796875 768.666992188 270.334960938 774.666992188 279.001953125 778 c 0
 291.001953125 782.666992188 303.001953125 785 315.001953125 785 c 0
 324.334960938 785 331.66796875 784 337.000976562 782 c 0
 342.333984375 780 347.666992188 777.333007812 353 774 c 0
 359 770 362.833007812 763.833007812 364.5 755.5 c 0
 366.166992188 747.166992188 366 738 364 728 c 0
EndSplineSet
Validated: 1
EndChar

StartChar: parenleft
Encoding: 40 40 15
Width: 551
GlyphClass: 2
Flags: HMW
HStem: -144 109<206.005 260.668> 721 105<419.672 460.671>
LayerCount: 2
Fore
SplineSet
288 -93 m 0
 284.666992188 -107.666992188 276.671875 -119.833007812 264.004882812 -129.5 c 0
 251.337890625 -139.166992188 239.337890625 -144 228.004882812 -144 c 0
 184.004882812 -144 148.004882812 -127 120.004882812 -93 c 0
 92.0048828125 -59 73.837890625 -13 65.5048828125 45 c 0
 61.8501975913 70.4376027961 60.0228549807 97.5423176059 60.0228549807 126.314062045 c 0
 60.0228549807 163.144457511 63.0171897788 202.706494432 69.005859375 245 c 0
 71.6728515625 265.666992188 76.6728515625 291.5 84.005859375 322.5 c 0
 91.3388671875 354.166992188 102.005859375 392.666992188 116.005859375 438 c 0
 140.672851562 517.333007812 168.005859375 582.333007812 198.005859375 633 c 0
 211.338867188 656.333007812 227.671875 679 247.004882812 701 c 0
 266.337890625 723 287.004882812 743.5 309.004882812 762.5 c 0
 331.004882812 781.5 354.837890625 796.833007812 380.504882812 808.5 c 0
 406.171875 820.166992188 430.004882812 826 452.004882812 826 c 0
 469.337890625 826 481.004882812 820.333007812 487.004882812 809 c 0
 489.727484822 803.943901896 491.088785828 797.75349707 491.088785828 790.428785523 c 0
 491.088785828 785.197724527 490.39447701 779.388129352 489.005859375 773 c 0
 485.005859375 755 476.672851562 741.666992188 464.005859375 733 c 0
 452.672851562 725 440.172851562 721 426.505859375 721 c 0
 412.838867188 721 398.671875 716.5 384.004882812 707.5 c 0
 369.337890625 698.5 355.337890625 685.666992188 342.004882812 669 c 0
 314.671875 637 290.671875 597.333007812 270.004882812 550 c 0
 254.004882812 514.666992188 237.671875 468 221.004882812 410 c 0
 212.337890625 379.333007812 205.170898438 351.833007812 199.50390625 327.5 c 0
 193.836914062 303.166992188 189.669921875 281.666992188 187.002929688 263 c 0
 181.860072545 228.714285714 179.288643974 195.285953444 179.288643974 162.714388211 c 0
 179.288643974 157.285794005 179.360072545 151.880998884 179.502929688 146.5 c 0
 180.502929688 108.833007812 184.669921875 76.8330078125 192.002929688 50.5 c 0
 199.3359375 24.1669921875 208.668945312 3 220.001953125 -13 c 0
 230.668945312 -27 241.668945312 -34.3330078125 253.001953125 -35 c 0
 268.334960938 -35 279.16796875 -39.3330078125 285.500976562 -48 c 0
 289.147066377 -52.9898299308 290.970111284 -60.0788157961 290.970111284 -69.2669575961 c 0
 290.970111284 -76.0379876121 289.98007419 -83.9490017467 288 -93 c 0
EndSplineSet
Validated: 1
EndChar

StartChar: parenright
Encoding: 41 41 16
Width: 551
GlyphClass: 2
Flags: HMW
HStem: -144 108.998<117.333 122> 721 105<293.667 334.333>
VStem: 379 108.999
LayerCount: 2
Fore
SplineSet
100 -144 m 0
 88.6669921875 -144 78.66796875 -139.169921875 70.0009765625 -129.502929688 c 0
 63.7412470977 -122.520950874 60.6113823652 -114.234861754 60.6113823652 -104.64466233 c 0
 60.6113823652 -100.956622822 61.0742549102 -97.075719753 62 -93.001953125 c 0
 66.6669921875 -71.6689453125 74.5 -56.6689453125 85.5 -48.001953125 c 0
 96.5 -39.3349609375 109.666992188 -35.001953125 125 -35.001953125 c 0
 136.333007812 -35.001953125 150.666015625 -27.6689453125 167.999023438 -13.001953125 c 0
 186.666015625 2.998046875 205.666015625 24.1650390625 224.999023438 50.498046875 c 0
 244.33203125 76.8310546875 263.33203125 108.998046875 281.999023438 146.998046875 c 0
 300.666015625 184.998046875 316.333007812 223.665039062 329 262.998046875 c 0
 335 282.998046875 340.666992188 304.831054688 346 328.498046875 c 0
 351.333007812 352.165039062 357 379.33203125 363 409.999023438 c 0
 373.666992188 468.666015625 379 515.333007812 379 550 c 0
 379.033364264 552.334374959 379.050046396 554.652067785 379.050046396 556.95307848 c 0
 379.050046396 600.652067785 373.033364264 638.334374959 361 670 c 0
 355 686 346.833007812 698.5 336.5 707.5 c 0
 326.166992188 716.5 314.166992188 721 300.5 721 c 0
 286.833007812 721 276 725 268 733 c 0
 262.070026753 738.929973247 259.105196524 747.044259375 259.105196524 757.343171173 c 0
 259.105196524 762.096703016 259.736807935 767.315635706 261 773 c 0
 263 783 266.666992188 792 272 800 c 0
 277.333007812 808 283.666015625 814 290.999023438 818 c 0
 300.999023438 823.333007812 311.666015625 826 322.999023438 826 c 0
 345.666015625 826 366.999023438 820.166992188 386.999023438 808.5 c 0
 406.999023438 796.833007812 423.666015625 781.5 436.999023438 762.5 c 0
 450.33203125 743.5 461.499023438 723 470.499023438 701 c 0
 479.499023438 679 485.33203125 656.333007812 487.999023438 633 c 0
 490.07590901 615.231202782 491.114331545 595.824851738 491.114331545 574.780946867 c 0
 491.114331545 535.030250962 487.409137847 489.436602006 479.999023438 438 c 0
 473.33203125 392 466.33203125 353.5 458.999023438 322.5 c 0
 451.666015625 291.5 444.666015625 265.666992188 437.999023438 245 c 0
 413.999023438 169.666992188 384.33203125 103 348.999023438 45 c 0
 313.666015625 -13 274.333007812 -59 231 -93 c 0
 187.666992188 -127 144 -144 100 -144 c 0
EndSplineSet
Validated: 1
EndChar

StartChar: asterisk
Encoding: 42 42 17
Width: 551
GlyphClass: 2
Flags: HMW
HStem: 281.001 127.999<66 102.001> 289 119.001<460.333 489.999> 294 101.001
LayerCount: 2
Fore
SplineSet
138 102 m 2x20
 128.999023438 102.000976562 l 2
 124.999023438 102.000976562 119.83203125 102.66796875 113.499023438 104.000976562 c 0
 107.166015625 105.333984375 101.333007812 108.166992188 96 112.5 c 0
 90.6669921875 116.833007812 86.333984375 122.833007812 83.0009765625 130.5 c 0
 79.66796875 138.166992188 78.66796875 147.333984375 80.0009765625 158.000976562 c 0
 80.0009765625 160.000976562 80.333984375 162.66796875 81.0009765625 166.000976562 c 0
 83.0009765625 176.66796875 88.0009765625 186.66796875 96.0009765625 196.000976562 c 2
 167.000976562 285.000976562 l 1
 126.333984375 282.333984375 95.6669921875 281.000976562 75 281.000976562 c 0
 57 281.000976562 44 287.66796875 36 301.000976562 c 0
 31.2379623704 309.572225777 28.8569435555 319.163840453 28.8569435555 329.775820588 c 0
 28.8569435555 334.020923524 29.2379623704 338.429308849 30 343.000976562 c 2
 30 346.000976562 l 2
 32.6669921875 359.333984375 39.333984375 372.666992188 50.0009765625 386 c 0
 56.0009765625 394 64.0009765625 400 74.0009765625 404 c 0
 81.333984375 407.333007812 89.333984375 409 98.0009765625 409 c 2
 102.000976562 409 l 1
 103.000976562 409 l 2x80
 127.66796875 407 161.66796875 404.333007812 205.000976562 401 c 1
 192.333984375 439.666992188 181.333984375 470 172.000976562 492 c 0
 168.719079372 501.025968486 167.078130777 510.178049991 167.078130777 519.456244517 c 0
 167.078130777 525.254903721 167.719079372 531.102822215 169.000976562 537 c 0
 169.66796875 539.666992188 170.66796875 542.333984375 172.000976562 545.000976562 c 0
 178.66796875 563.66796875 189.000976562 576.66796875 203.000976562 584.000976562 c 0
 212.333984375 589.333984375 222.166992188 592.000976562 232.5 592.000976562 c 0
 242.833007812 592.000976562 252.333007812 589.000976562 261 583.000976562 c 0
 270.333007812 576.333984375 276.333007812 566.333984375 279 553.000976562 c 0
 281.666992188 539.000976562 289.333984375 507.333984375 302.000976562 458.000976562 c 1
 328.66796875 492.66796875 351.000976562 524.000976562 369.000976562 552.000976562 c 0
 377.66796875 564.66796875 387.66796875 574.16796875 399.000976562 580.500976562 c 0
 410.333984375 586.833984375 420.666992188 590.000976562 430 590.000976562 c 0
 440 590.000976562 448.333007812 587.333984375 455 582.000976562 c 0
 461.666992188 578.000976562 466.5 571.333984375 469.5 562.000976562 c 0
 471.088272859 557.059855561 471.882481746 551.744831978 471.882481746 546.05605073 c 0
 471.882481746 540.999610435 471.255021752 535.647885124 470 530.000976562 c 0
 467.333007812 516.66796875 460.666015625 504.334960938 449.999023438 493.001953125 c 0
 426.666015625 466.334960938 400.999023438 433.66796875 372.999023438 395.000976562 c 1x20
 416.33203125 395.66796875 447.665039062 399.000976562 466.998046875 405.000976562 c 0
 475.665039062 407.000976562 481.33203125 408.000976562 483.999023438 408.000976562 c 0x40
 495.999023438 408.000976562 505.33203125 403.66796875 511.999023438 395.000976562 c 0x20
 519.499069217 385.500674433 523.248886109 375.437865438 523.248886109 364.812549575 c 0
 523.248886109 361.270864095 522.832260133 357.666680903 521.999023438 354 c 0
 518.666015625 339.333007812 511.999023438 325.333007812 501.999023438 312 c 0
 495.999023438 304 488.666015625 297.666992188 479.999023438 293 c 0
 473.999023438 290.333007812 467.999023438 289 461.999023438 289 c 0x40
 458.666015625 289 455.333007812 289.333007812 452 290 c 0
 437.333007812 292.666992188 410.333007812 294 371 294 c 2
 350 294 l 1
 381 196 l 2
 382.85149018 187.85246674 383.77723527 180.116576643 383.77723527 172.792162308 c 0
 383.77723527 166.931343221 383.184497993 161.333984374 381.999023438 156 c 0
 381.33203125 153.333007812 380.33203125 150.666015625 378.999023438 147.999023438 c 0
 373.666015625 132.666015625 364.666015625 121.333007812 351.999023438 114 c 0
 341.33203125 108 329.665039062 105 316.998046875 105 c 0
 306.998046875 105 297.665039062 107.333007812 288.998046875 112 c 0
 277.665039062 118 271.665039062 128 270.998046875 142 c 0
 269.665039062 164 263.998046875 194.666992188 253.998046875 234 c 1
 219.998046875 184.666992188 197.998046875 151.666992188 187.998046875 135 c 0
 182.665039062 124.333007812 175.33203125 116.333007812 165.999023438 111 c 0
 156.666015625 105.666992188 147.333007812 102.666992188 138 102 c 2x20
EndSplineSet
Validated: 1
EndChar

StartChar: plus
Encoding: 43 43 18
Width: 551
GlyphClass: 2
Flags: HMW
HStem: 346 106<400.999 406.999 400.999 400.999>
LayerCount: 2
Fore
SplineSet
311 348 m 1
 289.002929688 250 l 2
 284.3359375 230.666992188 276.8359375 217 266.502929688 209 c 0
 256.169921875 201 244.336914062 196.333007812 231.00390625 195 c 2
 230.00390625 195 l 2
 215.336914062 195 204.336914062 199 197.00390625 207 c 0
 191.064662965 212.939243285 188.095041322 220.903318481 188.095041322 230.892225587 c 0
 188.095041322 236.600023192 189.064662965 242.968955809 191.00390625 249.999023438 c 2
 213.00390625 344.999023438 l 1
 130.00390625 343.999023438 l 2
 111.336914062 343.999023438 98.50390625 349.33203125 91.50390625 359.999023438 c 0
 86.7619659471 367.225057747 84.391147586 375.368887886 84.391147586 384.430513855 c 0
 84.391147586 388.745560246 84.9287447341 393.268722294 86.00390625 398 c 0
 86.00390625 398.666992188 86.3369140625 400 87.00390625 402 c 0
 90.3369140625 416 97.669921875 428.333007812 109.002929688 439 c 0
 120.3359375 449.666992188 134.668945312 455 152.001953125 455 c 0
 153.334960938 455 163.16796875 454.833007812 181.500976562 454.5 c 0
 199.833984375 454.166992188 218.666992188 453.666992188 238 453 c 1
 246.666992188 492.333007812 253.333984375 525.666015625 258.000976562 552.999023438 c 0
 262.000976562 571.666015625 271.000976562 585.333007812 285.000976562 594 c 0
 295.000976562 600.666992188 307.000976562 604 321.000976562 604 c 2
 325.000976562 604 l 2
 338.333984375 604 348.666992188 600.666992188 356 594 c 0
 361.633481446 588.800058591 364.450222169 581.487664787 364.450222169 572.062818588 c 0
 364.450222169 566.987738026 363.633481446 561.30013183 362 555 c 0
 362 553 361.666992188 551 361 549 c 0
 351 515 342.666992188 482.666992188 336 452 c 1
 427 452 l 2
 445 452 456.666992188 447.333007812 462 438 c 0
 465.555121541 431.778374552 467.332682312 424.519549337 467.332682312 416.223813655 c 0
 467.332682312 412.075186273 466.888129354 407.667236327 465.999023438 403 c 2
 465.999023438 402 l 2
 464.666015625 394.666992188 462.666015625 388.166992188 459.999023438 382.5 c 0
 457.33203125 376.833007812 453.665039062 371 448.998046875 365 c 0
 443.665039062 357.666992188 436.33203125 352.666992188 426.999023438 350 c 0
 420.999023438 348 414.33203125 346.666992188 406.999023438 346 c 2
 400.999023438 346 l 2
 391.666015625 346.666992188 378.333007812 347.166992188 361 347.5 c 0
 343.666992188 347.833007812 327 348 311 348 c 1
EndSplineSet
Validated: 1
EndChar

StartChar: comma
Encoding: 44 44 19
Width: 551
GlyphClass: 2
Flags: HMW
VStem: 135.004 279.998
LayerCount: 2
Fore
SplineSet
206 -223 m 0
 194.666992188 -227 185.336914062 -228.999023438 178.00390625 -228.999023438 c 0
 170.670898438 -228.999023438 164.670898438 -227.999023438 160.00390625 -225.999023438 c 0
 152.670898438 -223.33203125 146.50390625 -218.165039062 141.50390625 -210.498046875 c 0
 136.50390625 -202.831054688 134.336914062 -193.331054688 135.00390625 -181.998046875 c 0
 135.00390625 -179.998046875 135.336914062 -177.998046875 136.00390625 -175.998046875 c 0
 138.00390625 -165.998046875 143.670898438 -155.998046875 153.00390625 -145.998046875 c 0
 169.670898438 -127.331054688 197.00390625 -84.3310546875 235.00390625 -16.998046875 c 0
 273.00390625 49.6689453125 297.336914062 96.6689453125 308.00390625 124.001953125 c 0
 313.336914062 136.001953125 321.336914062 145.501953125 332.00390625 152.501953125 c 0
 342.670898438 159.501953125 353.00390625 163.001953125 363.00390625 163.001953125 c 0
 363.670898438 163.001953125 364.670898438 163.334960938 366.00390625 164.001953125 c 0
 373.336914062 164.001953125 380.669921875 163.001953125 388.002929688 161.001953125 c 0
 399.3359375 157.001953125 407.668945312 149.334960938 413.001953125 138.001953125 c 0
 415.401976561 132.402093756 416.60209375 126.202105479 416.60209375 119.401988295 c 0
 416.60209375 114.868687509 416.068734374 110.068675785 415.001953125 105.001953125 c 0
 414.334960938 100.334960938 413.001953125 96.66796875 411.001953125 94.0009765625 c 0
 397.001953125 61.333984375 372.001953125 10.333984375 336.001953125 -58.9990234375 c 0
 299.334960938 -128.33203125 273.16796875 -171.33203125 257.500976562 -187.999023438 c 0
 241.833984375 -204.666015625 224.666992188 -216.333007812 206 -223 c 0
EndSplineSet
Validated: 1
EndChar

StartChar: hyphen
Encoding: 45 45 20
Width: 551
GlyphClass: 2
Flags: HMW
HStem: 230.001 111.999<151.667 200.667> 234.501 109
VStem: 120 313.001<285 296.001>
LayerCount: 2
Fore
SplineSet
183 342 m 0xa0
 218.333007812 342 260.500976562 342.500976562 309.500976562 343.500976562 c 0
 358.500976562 344.500976562 386.333984375 345.000976562 393.000976562 345.000976562 c 0
 411.000976562 345.000976562 422.833984375 340.333984375 428.500976562 331.000976562 c 0
 432.354451564 324.654662485 434.281189065 317.229158667 434.281189065 308.72477215 c 0
 434.281189065 304.722449286 433.854451564 300.481173422 433.000976562 296.000976562 c 1
 432.000976562 295.000976562 l 1
 428.66796875 279.000976562 422.66796875 266.66796875 414.000976562 258.000976562 c 0
 402.000976562 245.333984375 387.000976562 239.000976562 369.000976562 239.000976562 c 0
 361.000976562 239.000976562 329.500976562 237.500976562 274.500976562 234.500976562 c 0x60
 219.500976562 231.500976562 181.000976562 230.000976562 159.000976562 230.000976562 c 0
 144.333984375 230.000976562 133.666992188 234.000976562 127 242.000976562 c 0
 121.070026753 248.386639021 118.105196524 257.112963253 118.105196524 268.179949257 c 0
 118.105196524 273.287990903 118.736807935 278.894674484 120 285 c 0
 120 286.333007812 120.333007812 288 121 290 c 0
 125 308.666992188 133.666992188 322.666992188 147 332 c 0
 157 338.666992188 169 342 183 342 c 0xa0
EndSplineSet
Validated: 1
EndChar

StartChar: period
Encoding: 46 46 21
Width: 551
GlyphClass: 2
Flags: HMW
HStem: -26 178.002<237 313.333 248 313.333>
VStem: 188 175.5
LayerCount: 2
Fore
SplineSet
248 -26 m 2
 226 -26 209.333007812 -18 198 -2 c 0
 189.404614553 10.6667791851 185.107074392 24.7149122847 185.107074392 40.1443992989 c 0
 185.107074392 47.4532982108 186.071393739 55.0721572987 188 63.0009765625 c 0
 194 87.66796875 208 108.334960938 230 125.001953125 c 0
 254 143.001953125 277.833007812 152.001953125 301.5 152.001953125 c 0
 325.166992188 152.001953125 342.666992188 144.001953125 354 128.001953125 c 0
 362.150937729 116.680985171 366.226559614 103.514523165 366.226559614 88.5025671069 c 0
 366.226559614 81.4135724908 365.317717152 73.9130423088 363.5 66.0009765625 c 0
 357.833007812 41.333984375 345.333007812 20.6669921875 326 4 c 0
 306.666992188 -12.6669921875 284 -22.6669921875 258 -26 c 2
 248 -26 l 2
EndSplineSet
Validated: 1
EndChar

StartChar: slash
Encoding: 47 47 22
Width: 551
GlyphClass: 2
Flags: HMW
HStem: 746 20G<552.001 562.001>
LayerCount: 2
Fore
SplineSet
10 -67 m 0
 0 -71 -9.3310546875 -73.16796875 -17.998046875 -73.5009765625 c 0
 -26.6650390625 -73.833984375 -33.998046875 -71.333984375 -39.998046875 -66.0009765625 c 0
 -48.5314843779 -59.6010937443 -52.7982031293 -48.5082577835 -52.7982031293 -32.7219687075 c 0
 -52.7982031293 -28.7750351301 -52.5314843779 -24.5347070198 -51.998046875 -20.0009765625 c 0
 -51.998046875 -16.66796875 -51.3310546875 -13.0009765625 -49.998046875 -9.0009765625 c 0
 -45.998046875 8.33203125 -37.998046875 24.9990234375 -25.998046875 40.9990234375 c 0
 101.334960938 200.999023438 211.66796875 342.999023438 305.000976562 466.999023438 c 0
 363.000976562 542.999023438 425.66796875 629.666015625 493.000976562 726.999023438 c 0
 501.66796875 739.666015625 512.000976562 749.333007812 524.000976562 756 c 0
 536.000976562 762.666992188 547.000976562 766 557.000976562 766 c 0
 567.000976562 766 576.333984375 763.666992188 585.000976562 759 c 0
 597.66796875 751 604.334960938 739 605.001953125 723 c 0
 605.001953125 718.333007812 604.334960938 713.333007812 603.001953125 708 c 0
 600.334960938 696.666992188 594.66796875 684.333984375 586.000976562 671.000976562 c 0
 562.000976562 636.333984375 497.333984375 552.500976562 392.000976562 419.500976562 c 0
 286.66796875 286.500976562 222.000976562 204.000976562 198.000976562 172.000976562 c 0
 183.333984375 151.333984375 159.166992188 116.333984375 125.5 67.0009765625 c 0
 91.8330078125 17.66796875 71 -12.33203125 63 -22.9990234375 c 0
 47 -43.666015625 29.3330078125 -58.3330078125 10 -67 c 0
EndSplineSet
Validated: 1
EndChar

StartChar: zero
Encoding: 48 48 23
Width: 551
GlyphClass: 2
Flags: HMW
HStem: -24 107.996<154.331 204.999> 611.997 106.003<326.666 399.333>
LayerCount: 2
Fore
SplineSet
549 491 m 0
 548.333007812 488.333007812 548.33203125 487.999023438 548.999023438 489.999023438 c 1
 542.999023438 450.666015625 535.33203125 410.666015625 525.999023438 369.999023438 c 0
 516.666015625 329.33203125 506.166015625 289.33203125 494.499023438 249.999023438 c 0
 482.83203125 210.666015625 471.665039062 179.666015625 460.998046875 156.999023438 c 0
 440.331054688 114.33203125 418.331054688 79.6650390625 394.998046875 52.998046875 c 0
 383.665039062 39.6650390625 371.33203125 28.33203125 357.999023438 18.9990234375 c 0
 344.666015625 9.666015625 331.666015625 2.3330078125 318.999023438 -3 c 0
 305.666015625 -8.3330078125 290.666015625 -13 273.999023438 -17 c 0
 257.33203125 -20.3330078125 241.165039062 -22.3330078125 225.498046875 -23 c 0
 209.831054688 -23.6669921875 191.6640625 -24 170.997070312 -24 c 0
 137.6640625 -24 107.997070312 -18.3330078125 81.9970703125 -7 c 0
 57.9970703125 4.3330078125 38.9970703125 20.5 24.9970703125 41.5 c 0
 10.9970703125 62.5 2.4970703125 87.6669921875 -0.5029296875 117 c 0
 -1.32111150568 124.999911221 -1.73020241477 133.173424587 -1.73020241477 141.520520285 c 0
 -1.73020241477 163.779442148 1.17888849432 187.272727273 6.9970703125 212 c 0
 6.9970703125 214 7.330078125 216 7.9970703125 218 c 0
 15.330078125 250 22.330078125 280.666992188 28.9970703125 310 c 0
 33.6640625 330.666992188 39.8310546875 356 47.498046875 386 c 0
 55.1650390625 416 62.33203125 440.833007812 68.9990234375 460.5 c 0
 75.666015625 480.166992188 83.9990234375 501.333984375 93.9990234375 524.000976562 c 0
 103.999023438 547.333984375 113.999023438 567.666992188 123.999023438 585 c 0
 149.999023438 628.333007812 184.666015625 661.333007812 227.999023438 684 c 0
 274.666015625 706.666992188 326.999023438 718 384.999023438 718 c 0
 413.666015625 718 439.666015625 713.333007812 462.999023438 704 c 0
 485.666015625 694.666992188 504.333007812 680.666992188 519 662 c 0
 533.666992188 643.333007812 543.666992188 619.5 549 590.5 c 0
 551.666503906 576 552.999755859 560.458251953 552.999755859 543.87487793 c 0
 552.999755859 527.291503906 551.666503906 509.666503906 549 491 c 0
393.999023438 599.999023438 m 0
 380.999830831 608.046444921 365.701323451 612.068592173 348.104283044 612.068592173 c 0
 346.749487507 612.068592173 345.38106752 612.044751077 343.999023438 611.997070312 c 0
 309.33203125 611.997070312 280.499023438 602.830078125 257.499023438 584.497070312 c 0
 234.499023438 566.1640625 212.666015625 534.997070312 191.999023438 490.997070312 c 0
 183.999023438 473.6640625 176.666015625 455.331054688 169.999023438 435.998046875 c 0
 163.999023438 416.665039062 158.33203125 393.998046875 152.999023438 367.998046875 c 0
 143.666015625 327.998046875 133.666015625 281.665039062 122.999023438 228.998046875 c 1
 229.666015625 339.665039062 329.666015625 453.33203125 422.999023438 569.999023438 c 1
 415.666015625 582.666015625 405.999023438 592.666015625 393.999023438 599.999023438 c 0
433.999023438 457.997070312 m 1
 336.666015625 330.6640625 233.666015625 221.99609375 124.999023438 131.99609375 c 1
 134.33203125 100.663085938 157.999023438 84.6630859375 195.999023438 83.99609375 c 0
 213.999023438 83.99609375 229.83203125 85.49609375 243.499023438 88.49609375 c 0
 257.166015625 91.49609375 270.666015625 96.3291015625 283.999023438 102.99609375 c 0
 310.666015625 116.99609375 334.666015625 143.99609375 355.999023438 183.99609375 c 0
 359.999023438 191.99609375 367.666015625 213.329101562 378.999023438 247.99609375 c 0
 390.33203125 282.663085938 401.999023438 323.330078125 413.999023438 369.997070312 c 0
 421.999023438 400.6640625 428.666015625 429.997070312 433.999023438 457.997070312 c 1
EndSplineSet
Validated: 1
EndChar

StartChar: one
Encoding: 49 49 24
Width: 551
GlyphClass: 2
Flags: HMW
HStem: -9 111 -5 114<56.3296 106.329>
LayerCount: 2
Fore
SplineSet
25 33 m 0x40
 25 38 26 43 27 49 c 0
 27 50 27 52 28 53 c 0
 31 68 38 80 47 91 c 0
 59 103 74 109 93 109 c 0x40
 120 109 166 108 231 107 c 1
 236 126 239 143 241 157 c 0
 242 163 245 180 252 208 c 0
 258 233 263 254 268 271 c 2
 296 379 l 2
 323 480 339 539 344 556 c 1
 297 526 263 507 240 499 c 0
 232 497 227 496 224 496 c 0
 213 496 202 501 193 511 c 0
 184 521 179 532 179 542 c 0
 179 545 180 548 181 552 c 0
 184 565 189 577 197 587 c 0
 205 597 216 607 230 616 c 0
 251 630 278 649 313 672 c 1
 325 674 339 683 354 699 c 0
 366 707 379 714 392 721 c 0
 404 727 414 730 423 730 c 2
 426 730 l 2
 443 730 459 723 474 710 c 0
 482 703 487 696 490 690 c 0
 491 688 492 686 492 683 c 0
 492 672 484 643 449 514 c 0
 425 424 411 371 407 356 c 0
 392 294 381 242 372 200 c 2
 372 200 371 198 371 195 c 0
 366 173 360 142 352 103 c 1
 385 102 406 102 415 102 c 2
 450 102 l 2
 465 102 474 101 478 101 c 0
 499 101 512 97 519 87 c 0
 524 80 526 71 526 62 c 0
 526 58 526 54 525 50 c 0
 525 49 525 48 524 47 c 0
 521 32 513 19 502 8 c 0
 490 -3 473 -9 452 -9 c 0x80
 217 -7 88 -6 65 -5 c 0
 48 -5 36 0 30 11 c 0
 27 18 25 25 25 33 c 0x40
EndSplineSet
Validated: 1
EndChar

StartChar: two
Encoding: 50 50 25
Width: 551
GlyphClass: 2
Flags: HMW
HStem: -20.0059 113.005 -12.0059 113.006<407 407 407 412.994> 506.997 21G<158.659 161.992> 612.996 109.001<365.662 374.994>
LayerCount: 2
Fore
SplineSet
407 101 m 1x70
 407.993164062 100.993164062 l 1
 416.66015625 109.66015625 422.993164062 109.993164062 426.993164062 101.993164062 c 0
 428.993164062 101.993164062 432.66015625 101.826171875 437.993164062 101.493164062 c 0
 443.326171875 101.16015625 447.326171875 100.16015625 449.993164062 98.4931640625 c 0
 452.66015625 96.826171875 455.327148438 94.9931640625 457.994140625 92.9931640625 c 0
 461.994140625 90.326171875 464.661132812 86.326171875 465.994140625 80.9931640625 c 0
 467.327148438 72.9931640625 466.994140625 63.66015625 464.994140625 52.9931640625 c 0
 460.327148438 33.66015625 451.994140625 17.3271484375 439.994140625 3.994140625 c 0
 429.994140625 -6.6728515625 418.994140625 -12.005859375 406.994140625 -12.005859375 c 0x70
 363.661132812 -12.005859375 292.661132812 -14.005859375 193.994140625 -18.005859375 c 0
 160.661132812 -19.3388671875 126.661132812 -20.005859375 91.994140625 -20.005859375 c 0
 59.994140625 -20.005859375 34.994140625 -18.6728515625 16.994140625 -16.005859375 c 0
 6.994140625 -14.6728515625 -0.6728515625 -10.33984375 -6.005859375 -3.0068359375 c 0
 -10.005859375 2.326171875 -12.6728515625 9.326171875 -14.005859375 17.9931640625 c 0
 -14.4503038194 21.8449435764 -14.6725260417 26.0259572724 -14.6725260417 30.5362051505 c 0
 -14.6725260417 46.3220727238 -11.9503038194 66.1410590278 -6.505859375 89.9931640625 c 0
 0.494140625 120.66015625 13.6611328125 151.493164062 32.994140625 182.493164062 c 0
 52.3271484375 213.493164062 76.994140625 243.66015625 106.994140625 272.993164062 c 0
 136.994140625 302.326171875 170.661132812 325.993164062 207.994140625 343.993164062 c 0
 289.327148438 382.66015625 341.994140625 409.327148438 365.994140625 423.994140625 c 0
 395.994140625 442.661132812 416.661132812 462.328125 427.994140625 482.995117188 c 0
 434.661132812 495.662109375 439.994140625 511.329101562 443.994140625 529.99609375 c 0
 446.144785561 539.45836443 447.220091638 548.053514862 447.220091638 555.781545044 c 0
 447.220091638 572.010382865 442.478006774 584.415232434 432.994140625 592.99609375 c 0
 418.327148438 606.329101562 392.994140625 612.99609375 356.994140625 612.99609375 c 0
 332.994140625 612.99609375 308.161132812 605.663085938 282.494140625 590.99609375 c 0
 256.827148438 576.329101562 235.66015625 559.99609375 218.993164062 541.99609375 c 0
 210.326171875 532.663085938 202.159179688 524.830078125 194.4921875 518.497070312 c 0
 186.825195312 512.1640625 178.9921875 508.6640625 170.9921875 507.997070312 c 0
 168.9921875 507.997070312 165.9921875 507.6640625 161.9921875 506.997070312 c 0
 155.325195312 506.997070312 146.325195312 510.330078125 134.9921875 516.997070312 c 0
 122.9921875 524.997070312 116.659179688 536.330078125 115.9921875 550.997070312 c 0
 115.9921875 554.330078125 116.325195312 557.997070312 116.9921875 561.997070312 c 0
 119.659179688 573.997070312 126.326171875 587.6640625 136.993164062 602.997070312 c 0
 146.993164062 616.997070312 159.993164062 630.830078125 175.993164062 644.497070312 c 0
 191.993164062 658.1640625 209.993164062 670.997070312 229.993164062 682.997070312 c 0
 250.66015625 694.997070312 274.327148438 704.497070312 300.994140625 711.497070312 c 0
 327.661132812 718.497070312 353.328125 721.997070312 377.995117188 721.997070312 c 0
 454.662109375 721.997070312 507.995117188 704.997070312 537.995117188 670.997070312 c 0
 556.97536868 648.996989213 566.46562671 619.87920858 566.46562671 583.643728412 c 0
 566.46562671 563.879127481 563.642137847 541.996908114 557.995117188 517.997070312 c 0
 544.662109375 462.6640625 520.329101562 417.331054688 484.99609375 381.998046875 c 0
 458.99609375 357.331054688 415.663085938 330.331054688 354.99609375 300.998046875 c 0
 339.663085938 293.665039062 313.330078125 281.665039062 275.997070312 264.998046875 c 0
 244.6640625 250.998046875 217.331054688 233.831054688 193.998046875 213.498046875 c 0
 170.665039062 193.165039062 152.33203125 172.33203125 138.999023438 150.999023438 c 0
 127.666015625 132.999023438 118.666015625 113.666015625 111.999023438 92.9990234375 c 1xb0
 147.999023438 91.666015625 182.33203125 90.8330078125 214.999023438 90.5 c 0
 221.528592216 90.4334374771 227.778489152 90.4001562157 233.748714244 90.4001562157 c 0
 257.647122605 90.4001562157 277.064217856 90.9334374771 292 92 c 0
 310 93.3330078125 348.333007812 96.3330078125 407 101 c 1x70
EndSplineSet
Validated: 1
EndChar

StartChar: three
Encoding: 51 51 26
Width: 551
GlyphClass: 2
Flags: HMW
HStem: -23.998 107.998<176.331 236.667> 306 125<224 229.666> 521.001 21G<159.334 166.001> 613 109.001<323.002 391.001>
VStem: 427.001 115<522.002 538.333>
LayerCount: 2
Fore
SplineSet
496 279.5 m 0
 496.461321176 274.502278842 496.691951803 269.318446524 496.691951803 263.948455109 c 0
 496.691951803 246.037523409 494.126250162 226.055623476 488.997070312 204.000976562 c 0
 472.997070312 134.000976562 439.330078125 78.333984375 387.997070312 37.0009765625 c 0
 336.822870163 -3.6756314096 271.767285733 -24.0139353956 192.829386247 -24.0139353956 c 0
 191.555562612 -24.0139353956 190.278123969 -24.0086392221 188.997070312 -23.998046875 c 0
 163.6640625 -23.998046875 139.331054688 -20.3310546875 115.998046875 -12.998046875 c 0
 92.6650390625 -5.6650390625 73.83203125 3.66796875 59.4990234375 15.0009765625 c 0
 45.166015625 26.333984375 33.3330078125 39.0009765625 24 53.0009765625 c 0
 14 67.0009765625 7.3330078125 80.833984375 4 94.5009765625 c 0
 2.1485098203 102.093008518 1.22276473045 109.42768816 1.22276473045 116.505182889 c 0
 1.22276473045 122.168422885 1.8155020078 127.666992187 3.0009765625 133.000976562 c 0
 3.66796875 137.000976562 5.0009765625 141.000976562 7.0009765625 145.000976562 c 0
 13.66796875 161.000976562 24.66796875 172.66796875 40.0009765625 180.000976562 c 0
 51.333984375 185.333984375 61.333984375 188 70.0009765625 188 c 0
 88.66796875 188 103.000976562 177.333984375 113.000976562 156.000976562 c 0
 122.333984375 137.333984375 136.166992188 120.666992188 154.5 106 c 0
 172.833007812 91.3330078125 194 84 218 84 c 0
 255.333007812 84 288.166015625 93.8330078125 316.499023438 113.5 c 0
 344.83203125 133.166992188 362.665039062 158 369.998046875 188 c 0
 372.720648885 199.278374554 374.08194989 209.592605012 374.08194989 218.942691375 c 0
 374.08194989 225.620206493 373.387641073 231.805976034 371.999023438 237.5 c 0
 368.666015625 251.166992188 361.499023438 263.166992188 350.499023438 273.5 c 0
 339.499023438 283.833007812 322.499023438 291.833007812 299.499023438 297.5 c 0
 276.499023438 303.166992188 247.33203125 306 211.999023438 306 c 0
 194.666015625 306 181.333007812 312.666992188 172 326 c 0
 165.466819339 335.333212887 162.200061522 345.483270749 162.200061522 356.450173586 c 0
 162.200061522 361.150094485 162.800032226 366.000036623 164 371 c 0
 168 387.666992188 175.666992188 401.666992188 187 413 c 0
 199.666992188 425 215 431 233 431 c 0
 287.666992188 431 332.333984375 440.666992188 367.000976562 460 c 0
 399.000976562 478 419.000976562 504 427.000976562 538 c 0
 427.000976562 538.608981586 427.278577705 539.495564315 427.834523091 540.659748207 c 0
 427.884414677 541.064246529 427.939899226 541.510671599 428.000976562 541.999023438 c 0
 428.000976562 543.33203125 428.333984375 544.33203125 429.000976562 544.999023438 c 0
 430.377195996 550.848397048 431.065305713 556.298210494 431.065305713 561.348463775 c 0
 431.065305713 575.868519947 425.377195996 587.085698689 414.000976562 595 c 0
 397.534999975 607.033364264 371.141982589 613.050046396 334.821924405 613.050046396 c 0
 332.909458153 613.050046396 330.969467726 613.033364264 329.001953125 613 c 0
 317.001953125 613 304.001953125 611 290.001953125 607 c 0
 286.001953125 605.666992188 281.001953125 603.166992188 275.001953125 599.5 c 0
 269.001953125 595.833007812 264.334960938 592.833007812 261.001953125 590.5 c 0
 257.668945312 588.166992188 253.001953125 584.333984375 247.001953125 579.000976562 c 0
 241.001953125 573.66796875 237.001953125 569.66796875 235.001953125 567.000976562 c 0
 228.334960938 553.66796875 223.66796875 549.000976562 221.000976562 553.000976562 c 1
 205.000976562 536.333984375 190.000976562 526.000976562 176.000976562 522.000976562 c 0
 172.000976562 521.333984375 168 521.000976562 164 521.000976562 c 0
 154.666992188 521.000976562 145.334960938 523.66796875 136.001953125 529.000976562 c 0
 125.20176854 535.600796391 119.802032222 545.711263562 119.802032222 559.331666126 c 0
 119.802032222 559.498790547 119.856306039 569.13044879 121.001953125 576.000976562 c 0
 123.668945312 588.000976562 130.001953125 601.000976562 140.001953125 615.000976562 c 0
 160.001953125 643.000976562 185.668945312 667.333984375 217.001953125 688.000976562 c 0
 233.668945312 698.66796875 253.668945312 707.000976562 277.001953125 713.000976562 c 0
 300.334960938 719.000976562 324.66796875 722.000976562 350.000976562 722.000976562 c 0
 432.000976562 722.000976562 488.66796875 705.66796875 520.000976562 673.000976562 c 0
 540.455522017 650.728027344 550.682794744 621.481937629 550.682794744 585.262707419 c 0
 550.682794744 568.360399988 548.455522017 549.939497515 544.000976562 530 c 0
 544.000976562 528.666992188 543.66796875 527.333984375 543.000976562 526.000976562 c 0
 542.333984375 524.66796875 542.000976562 523.333984375 542.000976562 522.000976562 c 0
 538.000976562 503.333984375 531.500976562 486.001953125 522.500976562 470.001953125 c 0
 513.500976562 454.001953125 503.16796875 440.334960938 491.500976562 429.001953125 c 0
 479.833984375 417.668945312 466.833984375 407.668945312 452.500976562 399.001953125 c 0
 438.16796875 390.334960938 423.66796875 383.66796875 409.000976562 379.000976562 c 1
 418.333984375 375.66796875 426.666992188 372.334960938 434 369.001953125 c 0
 450.666992188 360.334960938 464.666992188 348.66796875 476 334.000976562 c 0
 487.333007812 319.333984375 494 301.166992188 496 279.5 c 0
EndSplineSet
Validated: 1
EndChar

StartChar: four
Encoding: 52 52 27
Width: 551
GlyphClass: 2
Flags: HMW
HStem: -23.001 21G<325.334 340.001> 218.998 90.002<287 288.001 288.001 330.001>
LayerCount: 2
Fore
SplineSet
287 309 m 2
 349.999023438 309 l 1
 376.666015625 424.333007812 396.333007812 517.666015625 409 588.999023438 c 1
 293.666992188 469.666015625 211 375.333007812 161 306 c 1
 195.666992188 308 237.666992188 309 287 309 c 2
391.999023438 60 m 0
 391.999023438 52 391.000976562 44.33203125 389.000976562 36.9990234375 c 0
 386.333984375 23.666015625 381.333984375 11.9990234375 374.000976562 1.9990234375 c 0
 362.000976562 -14.66796875 348.000976562 -23.0009765625 332.000976562 -23.0009765625 c 0
 318.66796875 -23.0009765625 307.000976562 -17.833984375 297.000976562 -7.5009765625 c 0
 288.667643229 1.10986328125 284.500976562 10.0679253472 284.500976562 19.3732096354 c 0
 284.500976562 21.2342664931 284.667643229 23.1092122396 285.000976562 24.998046875 c 0
 286.333984375 32.998046875 289.000976562 45.6650390625 293.000976562 62.998046875 c 2
 311.000976562 138.998046875 l 2
 317.66796875 166.331054688 324.000976562 192.998046875 330.000976562 218.998046875 c 1
 288.000976562 218.998046875 l 2
 196.000976562 218.998046875 130.000976562 214.665039062 90.0009765625 205.998046875 c 0
 85.333984375 205.331054688 80.5009765625 204.998046875 75.5009765625 204.998046875 c 0
 70.5009765625 204.998046875 66.0009765625 205.998046875 62.0009765625 207.998046875 c 0
 54.0009765625 211.331054688 48.16796875 216.331054688 44.5009765625 222.998046875 c 0
 40.833984375 229.665039062 38.6669921875 237.498046875 38 246.498046875 c 0
 37.3330078125 255.498046875 38 264.665039062 40 273.998046875 c 0
 42.6669921875 284.665039062 46.6669921875 294.665039062 52 303.998046875 c 0
 62.6669921875 323.331054688 86.5 353.831054688 123.5 395.498046875 c 0
 160.5 437.165039062 208.333007812 488.998046875 267 550.998046875 c 0
 319 605.665039062 361 650.665039062 393 685.998046875 c 0
 405 698.665039062 417.333007812 708.33203125 430 714.999023438 c 0
 442.666992188 721.666015625 454 724.999023438 464 724.999023438 c 0
 467.333007812 724.999023438 469.666015625 725.33203125 470.999023438 725.999023438 c 0
 482.33203125 725.999023438 491.999023438 723.33203125 499.999023438 717.999023438 c 0
 509.373791006 711.748873224 514.061577091 701.397936063 514.061577091 686.94540735 c 0
 514.061577091 682.481451161 513.088567708 654.850728577 498.499023438 576.5 c 0
 489.499023438 528.166992188 481.33203125 487.666992188 473.999023438 455 c 0
 463.33203125 405.666992188 452.999023438 356.666992188 442.999023438 308 c 1
 452.33203125 308 462.665039062 307.666992188 473.998046875 307 c 0
 489.998046875 307 500.331054688 303.166992188 504.998046875 295.5 c 0
 509.665039062 287.833007812 510.665039062 278 507.998046875 266 c 0
 504.665039062 252 499.33203125 240.666992188 491.999023438 232 c 0
 481.999023438 222 468.999023438 217 452.999023438 217 c 0
 442.33203125 217 432.33203125 217.333007812 422.999023438 218 c 1
 402.33203125 126 391.999023438 73.3330078125 391.999023438 60 c 0
EndSplineSet
Validated: 1
EndChar

StartChar: five
Encoding: 53 53 28
Width: 551
GlyphClass: 2
Flags: HMW
HStem: -18.002 109.001<161.999 190> 407.998 112.999<303 378.999> 594.998 112.999<512.331 551.994> 605.998 103.999
LayerCount: 2
Fore
SplineSet
90 561 m 0xd0
 96 581.666992188 100.328125 596.997070312 102.995117188 606.997070312 c 1
 100.995117188 612.997070312 99.9951171876 619.497070312 99.9951171876 626.497070312 c 0
 99.9951171876 633.497070312 100.995117188 640.997070312 102.995117188 648.997070312 c 0
 107.662109375 670.330078125 117.662109375 686.997070312 132.995117188 698.997070312 c 0
 143.662109375 707.6640625 154.995117188 711.997070312 166.995117188 711.997070312 c 0
 190.328125 711.997070312 247.661132812 711.330078125 338.994140625 709.997070312 c 0xd0
 432.327148438 708.6640625 501.327148438 707.997070312 545.994140625 707.997070312 c 0
 557.994140625 707.997070312 566.327148438 702.6640625 570.994140625 691.997070312 c 0
 574.36917281 684.497181897 576.056775809 676.048056628 576.056775809 666.649694504 c 0
 576.056775809 659.340016631 575.035924672 651.456134088 572.994140625 642.998046875 c 0
 568.327148438 623.665039062 559.994140625 610.665039062 547.994140625 603.998046875 c 0
 544.661132812 601.998046875 541.328125 600.165039062 537.995117188 598.498046875 c 0
 534.662109375 596.831054688 530.329101562 595.831054688 524.99609375 595.498046875 c 0
 519.663085938 595.165039062 515.830078125 594.998046875 513.497070312 594.998046875 c 0xe0
 511.1640625 594.998046875 507.831054688 595.165039062 503.498046875 595.498046875 c 0
 499.165039062 595.831054688 496.33203125 595.998046875 494.999023438 595.998046875 c 0
 486.33203125 595.998046875 470.33203125 597.331054688 446.999023438 599.998046875 c 0
 422.999023438 601.998046875 401.666015625 603.498046875 382.999023438 604.498046875 c 0
 364.33203125 605.498046875 338.999023438 605.998046875 306.999023438 605.998046875 c 0
 274.999023438 605.998046875 242.666015625 604.998046875 209.999023438 602.998046875 c 1
 195.999023438 552.998046875 187.666015625 522.998046875 184.999023438 512.998046875 c 0
 182.33203125 500.998046875 180.33203125 492.331054688 178.999023438 486.998046875 c 0
 177.666015625 481.665039062 175.999023438 474.665039062 173.999023438 465.998046875 c 1
 193.999023438 479.331054688 216.999023438 490.6640625 242.999023438 499.997070312 c 0
 280.33203125 513.997070312 320.33203125 520.997070312 362.999023438 520.997070312 c 0
 394.999023438 520.997070312 422.33203125 515.330078125 444.999023438 503.997070312 c 0
 465.666015625 491.997070312 481.499023438 475.997070312 492.499023438 455.997070312 c 0
 503.499023438 435.997070312 509.999023438 412.830078125 511.999023438 386.497070312 c 0
 512.427574581 380.85455001 512.641845349 375.112534383 512.641845349 369.271023433 c 0
 512.641845349 347.850859592 509.760746809 325.092875218 503.999023438 300.997070312 c 0
 492.666015625 251.6640625 476.333007812 206.831054688 455 166.498046875 c 0
 433.666992188 126.165039062 409 92.498046875 381 65.498046875 c 0
 353 38.498046875 321 17.6650390625 285 2.998046875 c 0
 248.333007812 -11.001953125 210 -18.001953125 170 -18.001953125 c 0
 139.333007812 -18.001953125 111.666015625 -14.6689453125 86.9990234375 -8.001953125 c 0
 62.33203125 -1.3349609375 42.9990234375 7.33203125 28.9990234375 17.9990234375 c 0
 14.9990234375 28.666015625 3.9990234375 40.3330078125 -4.0009765625 53 c 0
 -12.0009765625 65.6669921875 -18.0009765625 79 -22.0009765625 93 c 0
 -23.3344726562 100.666503906 -24.0012207031 107.916503906 -24.0012207031 114.74987793 c 0
 -24.0012207031 121.583251953 -23.3344726562 128 -22.0009765625 134 c 0
 -21.333984375 138 -20.333984375 142 -19.0009765625 146 c 0
 -12.333984375 160.666992188 -1.0009765625 172 14.9990234375 180 c 0
 23.666015625 183.333007812 30.4990234375 185.666015625 35.4990234375 186.999023438 c 0
 40.4990234375 188.33203125 44.4990234375 188.999023438 47.4990234375 188.999023438 c 0
 50.4990234375 188.999023438 53.33203125 188.666015625 55.9990234375 187.999023438 c 0
 63.9990234375 187.33203125 70.33203125 183.665039062 74.9990234375 176.998046875 c 0
 78.9990234375 171.665039062 83.33203125 164.33203125 87.9990234375 154.999023438 c 0
 105.999023438 112.33203125 138.499023438 90.9990234375 185.499023438 90.9990234375 c 0
 232.499023438 90.9990234375 273.666015625 108.33203125 308.999023438 142.999023438 c 0
 345.666015625 178.999023438 371.333007812 227.666015625 386 288.999023438 c 0
 389.520990372 304.165664669 391.281485558 318.011974804 391.281485558 330.537953843 c 0
 391.281485558 348.844936841 387.520990372 364.331634518 380 376.998046875 c 0
 368 397.665039062 345 407.998046875 311 407.998046875 c 0
 295 407.998046875 277.666992188 405.998046875 259 401.998046875 c 0
 249.666992188 399.998046875 236.333984375 395.331054688 219.000976562 387.998046875 c 0
 215.000976562 386.665039062 209.500976562 383.498046875 202.500976562 378.498046875 c 0
 195.500976562 373.498046875 190.66796875 369.998046875 188.000976562 367.998046875 c 0
 175.333984375 358.665039062 165.000976562 350.665039062 157.000976562 343.998046875 c 0
 139.66796875 331.331054688 121.66796875 323.998046875 103.000976562 321.998046875 c 2
 96.0009765625 321.998046875 l 2
 87.333984375 321.998046875 79.0009765625 323.998046875 71.0009765625 327.998046875 c 0
 59.0009765625 333.998046875 52.333984375 346.665039062 51.0009765625 365.998046875 c 0
 50.6677398668 370.164604154 50.5011138906 374.581138542 50.5011138906 379.247650039 c 0
 50.5011138906 393.248039163 52.0009307791 409.498496963 55.0009765625 427.999023438 c 0
 57.0009765625 438.666015625 59.333984375 449.333007812 62.0009765625 460 c 0
 67.333984375 483.333007812 76.6669921875 517 90 561 c 0xd0
EndSplineSet
Validated: 1
EndChar

StartChar: six
Encoding: 54 54 29
Width: 551
GlyphClass: 2
Flags: HMW
HStem: -22.0029 108<183.333 231> 379.997 114.001<296.999 382.333>
LayerCount: 2
Fore
SplineSet
526 361 m 0
 526.352876187 355.471663833 526.529306235 349.787584459 526.529306235 343.947794062 c 0
 526.529306235 316.689344298 522.685333144 286.038337584 514.999023438 251.998046875 c 0
 506.33203125 213.998046875 491.999023438 178.331054688 471.999023438 144.998046875 c 0
 431.999023438 76.3310546875 378.666015625 27.6640625 311.999023438 -1.0029296875 c 0
 276.666015625 -15.0029296875 240.999023438 -22.0029296875 204.999023438 -22.0029296875 c 0
 161.666015625 -22.0029296875 125.333007812 -14.0029296875 96 1.9970703125 c 0
 68 17.9970703125 48 41.1640625 36 71.4970703125 c 0
 24.3240411189 101.010982976 18.4865114624 134.943241366 18.4865114624 173.293845482 c 0
 18.4865114624 204.67754352 21.9155935922 248.93718803 35 306.997070312 c 0
 49 366.997070312 66.6669921875 420.497070312 88 467.497070312 c 0
 109.333007812 514.497070312 133 553.830078125 159 585.497070312 c 0
 185 617.1640625 214.333007812 643.997070312 247 665.997070312 c 0
 281.666992188 687.997070312 317.166992188 704.497070312 353.5 715.497070312 c 0
 389.833007812 726.497070312 429 733.6640625 471 736.997070312 c 2
 481 736.997070312 l 2
 495 736.997070312 506.666992188 734.330078125 516 728.997070312 c 0
 527.460906505 722.362273694 533.191359757 712.179520667 533.191359757 698.449534563 c 0
 533.191359757 695.753708454 533.191359757 692.37707039 532.000976562 689.998046875 c 0
 530.000976562 679.998046875 523.000976562 669.665039062 511.000976562 658.998046875 c 0
 498.333984375 648.331054688 485.333984375 641.331054688 472.000976562 637.998046875 c 0
 464.000976562 635.998046875 451.833984375 633.331054688 435.500976562 629.998046875 c 0
 419.16796875 626.665039062 405.500976562 623.665039062 394.500976562 620.998046875 c 0
 383.500976562 618.331054688 370.333984375 614.331054688 355.000976562 608.998046875 c 0
 325.66796875 598.331054688 293.66796875 577.998046875 259.000976562 547.998046875 c 0
 241.66796875 531.998046875 223.334960938 510.331054688 204.001953125 482.998046875 c 0
 195.334960938 468.998046875 187.66796875 455.998046875 181.000976562 443.998046875 c 1
 200.333984375 456.665039062 221.666992188 466.665039062 245 473.998046875 c 0
 283 487.331054688 323.333007812 493.998046875 366 493.998046875 c 0
 398.666992188 493.998046875 427 489.331054688 451 479.998046875 c 0
 473 470.665039062 490.5 456.33203125 503.5 436.999023438 c 0
 516.5 417.666015625 524 392.333007812 526 361 c 0
185.999023438 94.9970703125 m 0
 198.666015625 88.9970703125 213 85.9970703125 229 85.9970703125 c 2
 231 85.9970703125 l 1
 232 85.9970703125 l 2
 254 85.9970703125 277 93.6640625 301 108.997070312 c 0
 325 124.330078125 345.833007812 143.997070312 363.5 167.997070312 c 0
 381.166992188 191.997070312 392.666992188 215.997070312 398 239.997070312 c 0
 403.925636578 265.181785298 406.888454866 286.679373227 406.888454866 304.489834099 c 0
 406.888454866 326.753888569 402.258644391 343.25630064 392.999023438 353.997070312 c 0
 384.999023438 363.997070312 374.83203125 370.830078125 362.499023438 374.497070312 c 0
 350.166015625 378.1640625 333.666015625 379.997070312 312.999023438 379.997070312 c 0
 280.999023438 379.997070312 249.666015625 372.330078125 218.999023438 356.997070312 c 0
 188.33203125 341.6640625 161.999023438 322.6640625 139.999023438 299.997070312 c 1
 133.999023438 274.6640625 129.666015625 253.6640625 126.999023438 236.997070312 c 0
 125.799055664 228.597295896 125.19908496 220.257547554 125.19908496 211.977798919 c 0
 125.19908496 192.657644233 128.465842777 173.664179689 134.999023438 154.997070312 c 0
 139.666015625 140.997070312 146.166015625 128.997070312 154.499023438 118.997070312 c 0
 162.83203125 108.997070312 173.33203125 100.997070312 185.999023438 94.9970703125 c 0
EndSplineSet
Validated: 1
EndChar

StartChar: seven
Encoding: 55 55 30
Width: 551
GlyphClass: 2
Flags: HMW
HStem: -22.999 21G<12.3335 19.6665> 601 113.002<278.666 334.333 278.666 426>
LayerCount: 2
Fore
SplineSet
252 601 m 0
 190.666992188 599.666992188 150.66796875 596.670898438 132.000976562 592.00390625 c 0
 128.000976562 591.336914062 123.66796875 590.836914062 119.000976562 590.50390625 c 0
 114.333984375 590.170898438 109.666992188 591.00390625 105 593.00390625 c 0
 97.6669921875 596.336914062 92.6669921875 601.336914062 90 608.00390625 c 0
 86.1213725641 616.731350662 84.1818710064 626.34054464 84.1818710064 636.831112506 c 0
 84.1818710064 640.7647917 84.4545740686 644.822396217 85 649.00390625 c 1
 83.6669921875 642.336914062 83.6669921875 642.669921875 85 650.002929688 c 0
 88.3330078125 664.002929688 94.666015625 675.669921875 103.999023438 685.002929688 c 0
 113.999023438 694.3359375 128.33203125 700.668945312 146.999023438 704.001953125 c 0
 182.33203125 710.668945312 239.33203125 714.001953125 317.999023438 714.001953125 c 0
 350.666015625 714.001953125 394.666015625 712.668945312 449.999023438 710.001953125 c 0
 502.666015625 708.001953125 529.999023438 707.001953125 531.999023438 707.001953125 c 0
 539.999023438 707.001953125 547.666015625 705.168945312 554.999023438 701.501953125 c 0
 562.33203125 697.834960938 568.33203125 692.001953125 572.999023438 684.001953125 c 0
 576.280920628 678.668344343 577.921869223 672.325091732 577.921869223 664.971967701 c 0
 577.921869223 660.376433491 577.280920628 655.386447152 575.999023438 650.001953125 c 0
 573.33203125 638.001953125 566.999023438 624.668945312 556.999023438 610.001953125 c 0
 542.999023438 590.001953125 520.166015625 560.501953125 488.499023438 521.501953125 c 0
 456.83203125 482.501953125 423.665039062 442.668945312 388.998046875 402.001953125 c 0
 352.998046875 361.334960938 307.998046875 307.16796875 253.998046875 239.500976562 c 0
 199.998046875 171.833984375 147.665039062 102.666992188 96.998046875 32 c 0
 83.6650390625 12.6669921875 68.33203125 -1.666015625 50.9990234375 -10.9990234375 c 0
 37.666015625 -18.9990234375 25.3330078125 -22.9990234375 14 -22.9990234375 c 0
 10.6669921875 -22.9990234375 7.333984375 -22.666015625 4.0009765625 -21.9990234375 c 0
 -11.9990234375 -17.9990234375 -21.666015625 -7.9990234375 -24.9990234375 8.0009765625 c 0
 -26.33203125 15.333984375 -25.9990234375 23.1669921875 -23.9990234375 31.5 c 0
 -21.9990234375 39.8330078125 -17.9990234375 49 -11.9990234375 59 c 0
 35.333984375 125.666992188 85.6669921875 192 139 258 c 0
 193.666992188 324 238.5 376.5 273.5 415.5 c 0
 308.5 454.5 339.5 490.166992188 366.5 522.5 c 0
 393.5 554.833007812 413.333007812 581 426 601 c 1
 399.666503906 601.666503906 371.999755859 601.999755859 342.999755859 601.999755859 c 0
 313.999755859 601.999755859 283.666503906 601.666503906 252 601 c 0
EndSplineSet
Validated: 1
EndChar

StartChar: eight
Encoding: 56 56 31
Width: 551
GlyphClass: 2
Flags: HMW
HStem: -28.0039 110.002<213.672 214.005> 621.996 96.0029<333.672 383.337 348.006 383.337>
VStem: 402.007 111.998
LayerCount: 2
Fore
SplineSet
519 246 m 0
 518.333007812 234 516.671875 221.329101562 514.004882812 207.99609375 c 0
 509.337890625 185.99609375 501.504882812 164.329101562 490.504882812 142.99609375 c 0
 479.504882812 121.663085938 465.004882812 100.49609375 447.004882812 79.49609375 c 0
 429.004882812 58.49609375 409.004882812 40.3291015625 387.004882812 24.99609375 c 0
 364.337890625 9.6630859375 336.004882812 -3.00390625 302.004882812 -13.00390625 c 0
 268.004882812 -23.00390625 232.504882812 -28.00390625 195.504882812 -28.00390625 c 0
 158.504882812 -28.00390625 126.671875 -23.3369140625 100.004882812 -14.00390625 c 0
 74.0048828125 -4.6708984375 54.171875 7.49609375 40.5048828125 22.49609375 c 0
 26.837890625 37.49609375 16.6708984375 55.1630859375 10.00390625 75.49609375 c 0
 3.65407984597 94.8618086406 0.47916664396 114.37900516 0.47916664396 134.047683307 c 0
 0.47916664396 151.066452411 2.50395046372 174.37847669 9.001953125 201.997070312 c 0
 14.3349609375 224.6640625 25.66796875 249.1640625 43.0009765625 275.497070312 c 0
 60.333984375 301.830078125 82.0009765625 326.330078125 108.000976562 348.997070312 c 0
 126.66796875 364.997070312 146.000976562 377.6640625 166.000976562 386.997070312 c 1
 144.66796875 401.6640625 129.000976562 419.997070312 119.000976562 441.997070312 c 0
 110.112521696 460.663281249 105.668294263 479.625918684 105.668294263 498.884693285 c 0
 105.668294263 508.514785882 106.779513884 518.218923615 109.001953125 527.997070312 c 0
 111.001953125 536.6640625 113.834960938 545.6640625 117.501953125 554.997070312 c 0
 121.168945312 564.330078125 126.3359375 575.330078125 133.002929688 587.997070312 c 0
 139.669921875 600.6640625 147.336914062 612.831054688 156.00390625 624.498046875 c 0
 164.670898438 636.165039062 175.837890625 647.83203125 189.504882812 659.499023438 c 0
 203.171875 671.166015625 218.004882812 680.999023438 234.004882812 688.999023438 c 0
 251.337890625 697.666015625 271.670898438 704.666015625 295.00390625 709.999023438 c 0
 318.336914062 715.33203125 343.336914062 717.999023438 370.00390625 717.999023438 c 0
 396.670898438 717.999023438 420.670898438 715.33203125 442.00390625 709.999023438 c 0
 463.336914062 704.666015625 480.669921875 697.666015625 494.002929688 688.999023438 c 0
 507.3359375 680.33203125 518.168945312 670.33203125 526.501953125 658.999023438 c 0
 534.834960938 647.666015625 540.66796875 636.166015625 544.000976562 624.499023438 c 0
 547.333984375 612.83203125 549.500976562 600.499023438 550.500976562 587.499023438 c 0
 551.000976562 580.999023438 551.250976562 574.915771485 551.250976562 569.249145508 c 0
 551.250976562 563.582519531 551.000976562 558.332519531 550.500976562 553.499023438 c 0
 549.500976562 543.83203125 547.833984375 534.33203125 545.500976562 524.999023438 c 0
 543.16796875 515.666015625 540.000976562 506.833007812 536.000976562 498.5 c 0
 532.000976562 490.166992188 527.66796875 482.666992188 523.000976562 476 c 0
 518.333984375 469.333007812 512.500976562 462.5 505.500976562 455.5 c 0
 498.500976562 448.5 492.16796875 442.666992188 486.500976562 438 c 0
 480.833984375 433.333007812 473.666992188 428 465 422 c 0
 456.333007812 416 449.333007812 411.666992188 444 409 c 0
 438.666992188 406.333007812 432.333984375 402.333007812 425.000976562 397 c 1
 440.333984375 389 453.333984375 380 464.000976562 370 c 0
 478.66796875 356 490.000976562 342.5 498.000976562 329.5 c 0
 506.000976562 316.5 511.66796875 302.333007812 515.000976562 287 c 0
 517.778211832 274.223741291 519.166829468 262.604211921 519.166829468 252.141976864 c 0
 519.166829468 250.048303692 519.111219645 248.000976561 519 246 c 0
267.005859375 591.99609375 m 0
 241.672851562 571.99609375 226.340820312 549.99609375 221.0078125 525.99609375 c 0
 220.118923611 521.99609375 219.674479167 518.078414352 219.674479167 514.243044839 c 0
 219.674479167 500.819251543 225.118923611 488.403754341 236.0078125 476.99609375 c 0
 251.340820312 461.663085938 279.0078125 445.663085938 319.0078125 428.99609375 c 1
 346.340820312 439.663085938 371.673828125 453.663085938 395.006835938 470.99609375 c 0
 418.33984375 488.329101562 431.672851562 503.329101562 435.005859375 515.99609375 c 0
 436.554205561 522.189478496 437.328350335 528.407884682 437.328350335 534.651255668 c 0
 437.328350335 544.537019216 435.387445064 554.485373528 431.505859375 564.49609375 c 0
 425.172851562 580.829101562 414.672851562 594.49609375 400.005859375 605.49609375 c 0
 385.338867188 616.49609375 368.338867188 621.99609375 349.005859375 621.99609375 c 2
 348.005859375 621.99609375 l 2
 319.338867188 621.99609375 292.338867188 611.99609375 267.005859375 591.99609375 c 0
160.006835938 96.99609375 m 0
 179.33984375 86.99609375 201.338867188 81.998046875 226.005859375 81.998046875 c 0
 243.338867188 81.998046875 261.505859375 84.6650390625 280.505859375 89.998046875 c 0
 299.505859375 95.3310546875 317.338867188 102.998046875 334.005859375 112.998046875 c 0
 350.672851562 122.998046875 365.33984375 135.665039062 378.006835938 150.998046875 c 0
 390.006835938 166.331054688 398.006835938 182.998046875 402.006835938 200.998046875 c 0
 404.006835938 210.998046875 405.673828125 220.331054688 407.006835938 228.998046875 c 0
 407.006835938 237.665039062 405.506835938 247.665039062 402.506835938 258.998046875 c 0
 399.506835938 270.331054688 394.173828125 280.998046875 386.506835938 290.998046875 c 0
 378.83984375 300.998046875 367.33984375 311.331054688 352.006835938 321.998046875 c 0
 336.673828125 332.665039062 318.006835938 342.665039062 296.006835938 351.998046875 c 1
 248.673828125 339.331054688 207.673828125 318.6640625 173.006835938 289.997070312 c 0
 139.006835938 261.330078125 118.33984375 230.663085938 111.006835938 197.99609375 c 0
 109.067592652 189.996226923 108.097971009 182.260814102 108.097971009 174.789855285 c 0
 108.097971009 161.715335343 111.067592652 149.450748165 117.006835938 137.99609375 c 0
 127.006835938 119.99609375 141.33984375 106.329101562 160.006835938 96.99609375 c 0
EndSplineSet
Validated: 1
EndChar

StartChar: nine
Encoding: 57 57 32
Width: 551
GlyphClass: 2
Flags: HMW
HStem: -22.9971 78.5 223.001 113.003<195.998 277.994> 630.004 108.995<320.662 401.666 331.995 401.666>
LayerCount: 2
Fore
SplineSet
68 -22 m 0
 64.6669921875 -22 61.6630859375 -22.330078125 58.99609375 -22.9970703125 c 0
 44.99609375 -22.9970703125 33.6630859375 -19.9970703125 24.99609375 -13.9970703125 c 0
 14.0564796714 -7.66405341975 8.58698715744 1.90150668252 8.58698715744 14.6989809438 c 0
 8.58698715744 16.7197173911 8.72335684713 18.8210344645 8.99609375 21.0029296875 c 2
 8.99609375 24.0029296875 l 2
 10.99609375 34.669921875 17.99609375 45.169921875 29.99609375 55.5029296875 c 0
 41.99609375 65.8359375 54.6630859375 73.0029296875 67.99609375 77.0029296875 c 0
 75.99609375 79.0029296875 88.8291015625 81.669921875 106.49609375 85.0029296875 c 0
 124.163085938 88.3359375 139.830078125 91.6689453125 153.497070312 95.001953125 c 0
 167.1640625 98.3349609375 182.331054688 102.66796875 198.998046875 108.000976562 c 0
 234.998046875 120.000976562 268.331054688 139.000976562 298.998046875 165.000976562 c 0
 318.998046875 183.000976562 338.331054688 203.66796875 356.998046875 227.000976562 c 0
 364.331054688 236.333984375 370.6640625 245.333984375 375.997070312 254.000976562 c 1
 360.6640625 246.000976562 344.331054688 239.66796875 326.998046875 235.000976562 c 0
 294.998046875 227.000976562 256.665039062 223.000976562 211.998046875 223.000976562 c 0
 179.998046875 223.000976562 151.331054688 230.333984375 125.998046875 245.000976562 c 0
 101.998046875 259.000976562 83.6650390625 277.500976562 70.998046875 300.500976562 c 0
 58.3310546875 323.500976562 49.998046875 350.16796875 45.998046875 380.500976562 c 0
 44.5863203333 391.206454617 43.880478528 401.974213041 43.880478528 412.804251835 c 0
 43.880478528 432.66015249 46.2530895023 452.725401878 50.998046875 473 c 0
 59.6650390625 511 73.83203125 546.5 93.4990234375 579.5 c 0
 113.166015625 612.5 136.166015625 640.666992188 162.499023438 664 c 0
 188.83203125 687.333007812 218.999023438 705.666015625 252.999023438 718.999023438 c 0
 287.666015625 732.33203125 322.666015625 738.999023438 357.999023438 738.999023438 c 0
 445.33203125 738.999023438 501.665039062 707.33203125 526.998046875 643.999023438 c 0
 538.185099002 615.231916643 543.778625065 580.717959617 543.778625065 540.45715236 c 0
 543.778625065 496.745370622 537.185099002 446.259327648 523.998046875 388.999023438 c 0
 510.665039062 331.666015625 492.83203125 280.833007812 470.499023438 236.5 c 0
 448.166015625 192.166992188 423.166015625 155 395.499023438 125 c 0
 367.83203125 95 335.999023438 69.3330078125 299.999023438 48 c 0
 263.33203125 26.6669921875 225.83203125 10.5 187.499023438 -0.5 c 0
 149.166015625 -11.5 109.333007812 -18.6669921875 68 -22 c 0
201.99609375 555.002929688 m 0
 184.663085938 532.3359375 173.327148438 509.004882812 167.994140625 485.004882812 c 0
 163.294846643 464.549358815 160.945199652 446.1999083 160.945199652 429.956531267 c 0
 160.945199652 367.850160079 195.294846643 336.532618408 263.994140625 336.00390625 c 0
 291.994140625 336.00390625 320.327148438 342.00390625 348.994140625 354.00390625 c 0
 377.661132812 366.00390625 401.661132812 381.336914062 420.994140625 400.00390625 c 0
 421.661132812 402.670898438 422.328125 405.670898438 422.995117188 409.00390625 c 0
 426.995117188 426.336914062 431.662109375 450.00390625 436.995117188 480.00390625 c 0
 438.195084962 488.403680665 438.795055666 496.743429007 438.795055666 505.023177641 c 0
 438.795055666 524.343332328 435.528297849 543.336796873 428.995117188 562.00390625 c 0
 424.328125 576.00390625 417.828125 588.00390625 409.495117188 598.00390625 c 0
 401.162109375 608.00390625 390.495117188 615.836914062 377.495117188 621.50390625 c 0
 364.495117188 627.170898438 349.995117188 630.00390625 333.995117188 630.00390625 c 2
 331.995117188 630.00390625 l 2
 309.328125 630.00390625 286.328125 623.170898438 262.995117188 609.50390625 c 0
 239.662109375 595.836914062 219.329101562 577.669921875 201.99609375 555.002929688 c 0
EndSplineSet
Validated: 1
EndChar

StartChar: colon
Encoding: 58 58 33
Width: 551
GlyphClass: 2
Flags: HMW
HStem: 27 180.001<216.33 269.667> 295 179.001<286.002 327.335 286.002 327.335>
VStem: 167.998 216.002
LayerCount: 2
Fore
SplineSet
381 404 m 0
 376.333007812 384.666992188 369.000976562 364.66796875 359.000976562 344.000976562 c 0
 351.66796875 327.333984375 340.334960938 314.666992188 325.001953125 306 c 0
 311.668945312 298.666992188 299.668945312 295 289.001953125 295 c 2
 286.001953125 295 l 2
 268.001953125 295.666992188 254.001953125 299.666992188 244.001953125 307 c 0
 232.891384543 315.333129882 227.336100251 327.138312446 227.336100251 342.415547691 c 0
 227.336100251 345.471442328 227.558376731 348.666259764 228.002929688 352 c 0
 229.3359375 364 231.502929688 376.166992188 234.502929688 388.5 c 0
 237.502929688 400.833007812 240.502929688 412.333007812 243.502929688 423 c 0
 246.502929688 433.666992188 251.8359375 442.833984375 259.502929688 450.500976562 c 0
 267.169921875 458.16796875 275.502929688 463.66796875 284.502929688 467.000976562 c 0
 293.502929688 470.333984375 301.169921875 472.333984375 307.502929688 473.000976562 c 0
 313.8359375 473.66796875 318.668945312 474.000976562 322.001953125 474.000976562 c 0
 332.668945312 474.000976562 341.168945312 473.333984375 347.501953125 472.000976562 c 0
 353.834960938 470.66796875 360.16796875 468.000976562 366.500976562 464.000976562 c 0
 372.833984375 460.000976562 377.666992188 454.000976562 381 446.000976562 c 0
 384.333007812 438.000976562 385.333007812 428.66796875 384 418.000976562 c 0
 382.666992188 413.333984375 381.666992188 408.666992188 381 404 c 0
319.000976562 125.000976562 m 0
 315.66796875 109.000976562 309.663085938 92.333984375 300.99609375 75.0009765625 c 0
 292.99609375 58.333984375 280.663085938 46.0009765625 263.99609375 38.0009765625 c 0
 249.99609375 31.333984375 236.663085938 27.6669921875 223.99609375 27 c 0
 208.663085938 27 194.830078125 32 182.497070312 42 c 0
 172.356864866 50.222005208 167.286762143 61.1480652016 167.286762143 74.7781799808 c 0
 167.286762143 77.725669368 167.523857054 80.7996093744 167.998046875 84 c 0
 171.331054688 102.666992188 173.331054688 113.333984375 173.998046875 116.000976562 c 0
 174.665039062 118.66796875 176.33203125 124.66796875 178.999023438 134.000976562 c 0
 181.666015625 143.333984375 183.666015625 150.666992188 184.999023438 156 c 0
 187.666015625 166.666992188 192.833007812 175.833984375 200.5 183.500976562 c 0
 208.166992188 191.16796875 216.666992188 196.66796875 226 200.000976562 c 0
 240 204.66796875 252.666992188 207.000976562 264 207.000976562 c 0
 275.333007812 207.000976562 285 205.500976562 293 202.500976562 c 0
 301 199.500976562 308.333007812 193.66796875 315 185.000976562 c 0
 320.556098103 177.778130413 323.334147154 168.934981729 323.334147154 158.471530511 c 0
 323.334147154 156.379453327 323.22309029 154.222602011 323.000976562 152.000976562 c 0
 322.333984375 143.333984375 321.000976562 134.333984375 319.000976562 125.000976562 c 0
EndSplineSet
Validated: 1
EndChar

StartChar: semicolon
Encoding: 59 59 34
Width: 551
GlyphClass: 2
Flags: HMW
HStem: 253.001 180.001<339.335 383.669>
VStem: 283.002 155.998
LayerCount: 2
Fore
SplineSet
436 363 m 0
 431.333007812 343.666992188 424.000976562 323.334960938 414.000976562 302.001953125 c 0
 406.66796875 285.334960938 395.334960938 272.66796875 380.001953125 264.000976562 c 0
 366.668945312 256.66796875 354.668945312 253.000976562 344.001953125 253.000976562 c 0
 334.668945312 253.000976562 325.168945312 255.000976562 315.501953125 259.000976562 c 0
 305.834960938 263.000976562 298.001953125 269.000976562 292.001953125 277.000976562 c 0
 285.796909665 284.898379725 282.694387935 293.989383201 282.694387935 304.27398699 c 0
 282.694387935 306.143541415 282.796909665 308.052537939 283.001953125 310.000976562 c 2
 283.001953125 311.000976562 l 2
 284.334960938 323.000976562 286.66796875 335.000976562 290.000976562 347.000976562 c 0
 293.333984375 359.000976562 296.333984375 370.333984375 299.000976562 381.000976562 c 0
 301.66796875 391.66796875 306.834960938 401.000976562 314.501953125 409.000976562 c 0
 322.168945312 417.000976562 330.3359375 422.333984375 339.002929688 425.000976562 c 0
 353.669921875 429.66796875 367.002929688 432.334960938 379.002929688 433.001953125 c 0
 388.3359375 433.001953125 396.168945312 432.168945312 402.501953125 430.501953125 c 0
 408.834960938 428.834960938 415.16796875 426.16796875 421.500976562 422.500976562 c 0
 427.833984375 418.833984375 432.666992188 413.000976562 436 405.000976562 c 0
 439.333007812 396.333984375 440.333007812 386.666992188 439 376 c 0
 437.666992188 372 436.666992188 367.666992188 436 363 c 0
352.000976562 79.0009765625 m 0
 352.000976562 77.0009765625 351.336914062 75 350.00390625 73 c 0
 343.336914062 51 303.00390625 -36.6669921875 229.00390625 -190 c 0
 221.00390625 -206.666992188 210.336914062 -219.333984375 197.00390625 -228.000976562 c 0
 186.004394531 -234.72260201 175.284677034 -238.083414734 164.845505863 -238.083414734 c 0
 163.895984768 -238.083414734 162.948784708 -238.055609823 162.00390625 -238 c 0
 146.00390625 -238 133.00390625 -233 123.00390625 -223 c 0
 116.126839507 -216.122933257 112.688306135 -207.435665598 112.688306135 -196.938587726 c 0
 112.688306135 -193.189866708 113.126839507 -189.210331534 114.00390625 -185 c 0
 116.670898438 -171.666992188 132.00390625 -132 160.00390625 -66 c 0
 188.00390625 0 209.336914062 49.3330078125 224.00390625 82 c 0
 229.336914062 93.3330078125 235.169921875 102.833007812 241.502929688 110.5 c 0
 247.8359375 118.166992188 254.668945312 123.333984375 262.001953125 126.000976562 c 0
 271.334960938 129.333984375 280.001953125 131.333984375 288.001953125 132.000976562 c 0
 290.668945312 132.000976562 293.668945312 131.66796875 297.001953125 131.000976562 c 0
 310.334960938 131.000976562 323.001953125 127.66796875 335.001953125 121.000976562 c 0
 342.334960938 117.000976562 347.66796875 111.000976562 351.000976562 103.000976562 c 0
 353.66796875 95.66796875 354.000976562 87.66796875 352.000976562 79.0009765625 c 0
EndSplineSet
Validated: 1
EndChar

StartChar: less
Encoding: 60 60 35
Width: 551
GlyphClass: 2
Flags: MW
HStem: -24 21G<333 338 338 347>
LayerCount: 2
Fore
SplineSet
338 -24 m 2
 328 -24 317.333984375 -21.9990234375 306.000976562 -17.9990234375 c 0
 290.66796875 -12.666015625 273.334960938 -0.666015625 254.001953125 18.0009765625 c 0
 234.668945312 36.66796875 214.668945312 58.8349609375 194.001953125 84.501953125 c 0
 173.334960938 110.168945312 153.001953125 135.8359375 133.001953125 161.502929688 c 0
 113.001953125 187.169921875 91.8349609375 213.669921875 69.501953125 241.002929688 c 0
 47.1689453125 268.3359375 27.6689453125 290.002929688 11.001953125 306.002929688 c 0
 3.001953125 314.002929688 -0.998046875 325.002929688 -0.998046875 339.002929688 c 0
 -0.998046875 345.002929688 -0.1650390625 351.502929688 1.501953125 358.502929688 c 0
 3.1689453125 365.502929688 5.6689453125 372.669921875 9.001953125 380.002929688 c 0
 15.6689453125 394.002929688 25.001953125 404.002929688 37.001953125 410.002929688 c 0
 78.3349609375 438.002929688 127.501953125 473.169921875 184.501953125 515.502929688 c 0
 241.501953125 557.8359375 293.834960938 596.168945312 341.501953125 630.501953125 c 0
 389.168945312 664.834960938 431.001953125 692.001953125 467.001953125 712.001953125 c 0
 481.668945312 720.668945312 495.001953125 725.001953125 507.001953125 725.001953125 c 0
 516.334960938 725.001953125 524.001953125 722.668945312 530.001953125 718.001953125 c 0
 542.001953125 709.334960938 549.334960938 697.66796875 552.001953125 683.000976562 c 0
 553.334960938 676.333984375 553.16796875 669.000976562 551.500976562 661.000976562 c 0
 549.833984375 653.000976562 545.333984375 644.66796875 538.000976562 636.000976562 c 0
 527.333984375 622.66796875 509.000976562 607.66796875 483.000976562 591.000976562 c 0
 442.333984375 565.000976562 383.333984375 524.833984375 306.000976562 470.500976562 c 0
 228.66796875 416.16796875 176.000976562 379.334960938 148.000976562 360.001953125 c 1
 164.66796875 342.001953125 183.834960938 319.668945312 205.501953125 293.001953125 c 0
 227.168945312 266.334960938 246.501953125 241.66796875 263.501953125 219.000976562 c 0
 280.501953125 196.333984375 299.168945312 173.166992188 319.501953125 149.5 c 0
 339.834960938 125.833007812 358.66796875 106.833007812 376.000976562 92.5 c 0
 393.333984375 78.1669921875 404.333984375 65 409.000976562 53 c 0
 412.333984375 45 412.666992188 36.3330078125 410 27 c 0
 408.666992188 20.3330078125 406 14 402 8 c 0
 389.333007812 -10 371 -20.6669921875 347 -24 c 2
 338 -24 l 2
EndSplineSet
Validated: 1
EndChar

StartChar: equal
Encoding: 61 61 36
Width: 551
GlyphClass: 2
Flags: HMW
HStem: 235 107<99.3354 132.335> 435 106
LayerCount: 2
Fore
SplineSet
450 541 m 0
 468 541 479.66796875 536.33203125 485.000976562 526.999023438 c 0
 488.556098104 520.77739799 490.333658875 513.518572776 490.333658875 505.222837095 c 0
 490.333658875 501.074209712 489.889105917 496.666259765 489 491.999023438 c 2
 489 490.999023438 l 2
 487.666992188 483.666015625 485.666992188 476.999023438 483 470.999023438 c 0
 480.333007812 464.999023438 476.333007812 458.83203125 471 452.499023438 c 0
 465.666992188 446.166015625 458.666992188 441.333007812 450 438 c 0
 444 436 438 435 432 435 c 2
 424 435 l 2
 402 435.666992188 379 436 355 436 c 2
 252 433 l 2
 208.666992188 431.666992188 176.666992188 431 156 431 c 0
 138 431 124.666992188 436 116 446 c 0
 109.740270535 453.222493489 106.610405803 461.836207776 106.610405803 471.840774933 c 0
 106.610405803 475.688165099 107.073278348 479.741247097 107.999023438 484 c 2
 107.999023438 487 l 2
 111.33203125 501 118.83203125 513.5 130.499023438 524.5 c 0
 142.166015625 535.5 156.666015625 541 173.999023438 541 c 2
 177.999023438 541 l 2
 214.398507697 539.800023441 254.39785131 539.200140625 297.997054277 539.200140625 c 0
 327.064609085 539.200140625 357.732257659 539.466781252 390 540 c 0
 423.333007812 540.666992188 443.333007812 541 450 541 c 0
386.000976562 238.999023438 m 2
 379.001953125 239 l 2
 365.001953125 239.666992188 351.668945312 240 339.001953125 240 c 0
 313.001953125 240 273.001953125 239.166992188 219.001953125 237.5 c 0
 165.001953125 235.833007812 128.334960938 235 109.001953125 235 c 0
 89.6689453125 235 76.3359375 240.333007812 69.0029296875 251 c 0
 63.9614028917 258.333679211 61.4406394938 266.770105859 61.4406394938 276.309279945 c 0
 61.4406394938 280.64503719 61.9614028917 285.208610542 63.0029296875 290 c 2
 63.0029296875 292 l 2
 66.3359375 306 74.1689453125 317.833007812 86.501953125 327.5 c 0
 98.8349609375 337.166992188 114.001953125 342 132.001953125 342 c 0
 132.668945312 342 138.001953125 341.666992188 148.001953125 341 c 0
 161.119357583 340.777560711 175.682617419 340.666341066 191.691732633 340.666341066 c 0
 223.686523667 340.666341066 261.456271642 341.110568524 305.000976562 341.999023438 c 2
 404.000976562 344.999023438 l 2
 422.000976562 344.999023438 433.833984375 340.33203125 439.500976562 330.999023438 c 0
 443.354451564 324.652709361 445.281189065 317.227205542 445.281189065 308.722819026 c 0
 445.281189065 304.720496162 444.854451564 300.479220298 444.000976562 295.999023438 c 2
 444.000976562 294.999023438 l 2
 442.66796875 287.666015625 440.500976562 281.166015625 437.500976562 275.499023438 c 0
 434.500976562 269.83203125 430.66796875 263.999023438 426.000976562 257.999023438 c 0
 420.66796875 251.33203125 413.66796875 245.999023438 405.000976562 241.999023438 c 0
 399.000976562 239.999023438 392.66796875 238.999023438 386.000976562 238.999023438 c 2
EndSplineSet
Validated: 1
EndChar

StartChar: greater
Encoding: 62 62 37
Width: 551
GlyphClass: 2
Flags: MW
HStem: -18 21G<39.6665 50.3335>
LayerCount: 2
Fore
SplineSet
44 -18 m 0
 35.3330078125 -18 27.9970703125 -15.6689453125 21.9970703125 -11.001953125 c 0
 15.9970703125 -6.3349609375 11.1640625 -1.001953125 7.4970703125 4.998046875 c 0
 3.830078125 10.998046875 1.330078125 17.3310546875 -0.0029296875 23.998046875 c 0
 -1.3359375 30.6650390625 -1.1689453125 37.998046875 0.498046875 45.998046875 c 0
 2.1650390625 53.998046875 6.33203125 62.3310546875 12.9990234375 70.998046875 c 0
 23.666015625 84.3310546875 42.3330078125 99.3310546875 69 115.998046875 c 0
 109.666992188 141.998046875 168.666992188 182.165039062 246 236.498046875 c 0
 323.333007812 290.831054688 375.666015625 327.6640625 402.999023438 346.997070312 c 1
 385.666015625 364.997070312 366.499023438 387.330078125 345.499023438 413.997070312 c 0
 324.499023438 440.6640625 305.33203125 465.331054688 287.999023438 487.998046875 c 0
 270.666015625 510.665039062 251.833007812 533.83203125 231.5 557.499023438 c 0
 211.166992188 581.166015625 192.5 600.166015625 175.5 614.499023438 c 0
 158.5 628.83203125 147.666992188 641.999023438 143 653.999023438 c 0
 139.666992188 661.999023438 139.333984375 670.666015625 142.000976562 679.999023438 c 0
 143.333984375 686.666015625 146.000976562 692.999023438 150.000976562 698.999023438 c 0
 162.66796875 716.999023438 181.000976562 727.666015625 205.000976562 730.999023438 c 2
 214.000976562 730.999023438 l 2
 224.000976562 730.999023438 234.66796875 728.999023438 246.000976562 724.999023438 c 0
 261.333984375 719.666015625 278.833984375 707.833007812 298.500976562 689.5 c 0
 318.16796875 671.166992188 338.16796875 649 358.500976562 623 c 0
 378.833984375 597 399.000976562 571.166992188 419.000976562 545.5 c 0
 439.000976562 519.833007812 460.16796875 493.333007812 482.500976562 466 c 0
 504.833984375 438.666992188 524.333984375 417 541.000976562 401 c 0
 549.000976562 393 553.000976562 382 553.000976562 368 c 0
 553.000976562 362 552.16796875 355.5 550.500976562 348.5 c 0
 548.833984375 341.5 546.333984375 334.333007812 543.000976562 327 c 0
 536.333984375 313 527.000976562 303 515.000976562 297 c 0
 473.66796875 269.666992188 424.500976562 234.666992188 367.500976562 192 c 0
 310.500976562 149.333007812 258.16796875 110.833007812 210.500976562 76.5 c 0
 162.833984375 42.1669921875 121.000976562 15 85.0009765625 -5 c 0
 70.333984375 -13.6669921875 56.6669921875 -18 44 -18 c 0
EndSplineSet
Validated: 1
EndChar

StartChar: question
Encoding: 63 63 38
Width: 551
GlyphClass: 2
Flags: HMW
HStem: -25.999 178.002<112.001 188.333 123.001 188.333> 508.998 21G<126.333 128 128 136> 625.003 108.995<303.667 309.999>
VStem: 142.001 116
LayerCount: 2
Fore
SplineSet
191 201 m 0
 185.666992188 201 180.000976562 201.66796875 174.000976562 203.000976562 c 0
 150.953538901 209.810778115 139.429583223 224.02879075 139.429583223 245.655014466 c 0
 139.429583223 251.552986652 140.286711133 258.001966205 142.000976562 265.001953125 c 0
 144.000976562 274.334960938 147.66796875 284.334960938 153.000976562 295.001953125 c 0
 162.333984375 314.334960938 173.166992188 332.334960938 185.5 349.001953125 c 0
 197.833007812 365.668945312 210.5 380.001953125 223.5 392.001953125 c 0
 236.5 404.001953125 249.666992188 415.168945312 263 425.501953125 c 0
 276.333007812 435.834960938 289 445.501953125 301 454.501953125 c 0
 313 463.501953125 323.666992188 472.334960938 333 481.001953125 c 0
 353 499.668945312 365.333007812 519.001953125 370 539.001953125 c 0
 372.688650179 550.24601779 374.032975268 560.280189875 374.032975268 569.104469379 c 0
 374.032975268 584.347475031 370.021657992 595.980295134 361.999023438 604.002929688 c 0
 348.666015625 618.002929688 325.999023438 625.002929688 293.999023438 625.002929688 c 0
 286.666015625 625.002929688 278.833007812 623.169921875 270.5 619.502929688 c 0
 262.166992188 615.8359375 254.5 611.668945312 247.5 607.001953125 c 0
 240.5 602.334960938 232.666992188 595.66796875 224 587.000976562 c 0
 215.333007812 578.333984375 208.333007812 571.166992188 203 565.5 c 0
 197.666992188 559.833007812 191 552.166015625 183 542.499023438 c 0
 175 532.83203125 167.166992188 525.165039062 159.5 519.498046875 c 0
 151.833007812 513.831054688 144 510.331054688 136 508.998046875 c 2
 128 508.998046875 l 2
 124.666992188 508.998046875 121 509.665039062 117 510.998046875 c 0
 113 512.331054688 107.333007812 514.6640625 100 517.997070312 c 0
 88 525.997070312 82 537.330078125 82 551.997070312 c 0
 82 555.330078125 82.3330078125 559.330078125 83 563.997070312 c 0
 85.6669921875 575.997070312 92 589.330078125 102 603.997070312 c 0
 112.666992188 618.6640625 124.666992188 632.831054688 138 646.498046875 c 0
 151.333007812 660.165039062 167.166015625 673.998046875 185.499023438 687.998046875 c 0
 203.83203125 701.998046875 224.33203125 713.165039062 246.999023438 721.498046875 c 0
 269.666015625 729.831054688 292.333007812 733.998046875 315 733.998046875 c 0
 384.333007812 733.998046875 433.5 716.165039062 462.5 680.498046875 c 0
 481.188888889 657.51265191 490.533333333 627.398062307 490.533333333 590.154016697 c 0
 490.533333333 569.605577739 487.688888889 546.886935764 482 521.998046875 c 0
 477.333007812 502.665039062 470.333007812 484.83203125 461 468.499023438 c 0
 451.666992188 452.166015625 440.833984375 438.333007812 428.500976562 427 c 0
 416.16796875 415.666992188 403.500976562 405.166992188 390.500976562 395.5 c 0
 377.500976562 385.833007812 364.333984375 376.5 351.000976562 367.5 c 0
 337.66796875 358.5 325.16796875 349.166992188 313.500976562 339.5 c 0
 301.833984375 329.833007812 291.000976562 318.333007812 281.000976562 305 c 0
 271.000976562 291.666992188 263.333984375 276.666992188 258.000976562 260 c 0
 250.66796875 240 240.000976562 224.333007812 226.000976562 213 c 0
 215.333984375 205 203.666992188 201 191 201 c 0
123.000976562 -25.9990234375 m 2
 101.000976562 -25.9990234375 84.6669921875 -17.9990234375 74 -1.9990234375 c 0
 65.4046145534 10.6677557477 61.1070743918 24.7158888476 61.1070743918 40.145375862 c 0
 61.1070743918 47.4542747737 62.0713937386 55.0731338614 64 63.001953125 c 0
 70 87.6689453125 84 108.3359375 106 125.002929688 c 0
 129.333007812 143.002929688 153 152.002929688 177 152.002929688 c 0
 199.666992188 152.002929688 217 144.002929688 229 128.002929688 c 0
 237.150937729 116.681961733 241.226559614 103.515499727 241.226559614 88.50354367 c 0
 241.226559614 81.4145490542 240.317717152 73.9140188727 238.5 66.001953125 c 0
 232.833007812 41.3349609375 220.333007812 20.66796875 201 4.0009765625 c 0
 181.666992188 -12.666015625 159.333984375 -22.666015625 134.000976562 -25.9990234375 c 2
 123.000976562 -25.9990234375 l 2
EndSplineSet
Validated: 1
EndChar

StartChar: at
Encoding: 64 64 39
Width: 551
GlyphClass: 2
Flags: HMW
HStem: -141.997 110.002<150.668 207.336 168.002 207.336> 105 105.001<239.006 239.673> 369.5 100.5 601.002 113.999<355.003 396.667>
VStem: -6.49902 109.002 460.506 98.4951
LayerCount: 2
Fore
SplineSet
310 148 m 1
 285.333007812 119.333007812 256.33984375 105 223.006835938 105 c 0
 183.006835938 105 154.83984375 118.833007812 138.506835938 146.5 c 0
 129.307968896 162.082248261 124.708535375 181.735156267 124.708535375 205.458724019 c 0
 124.708535375 223.857432376 127.474961083 244.70452437 133.0078125 268 c 0
 139.0078125 294.666992188 147.340820312 319.166992188 158.0078125 341.5 c 0
 168.674804688 363.833007812 180.674804688 383 194.0078125 399 c 0
 207.340820312 415 222.0078125 428.666992188 238.0078125 440 c 0
 266.0078125 460 296.0078125 470 328.0078125 470 c 0
 346.674804688 470 364.341796875 466 381.008789062 458 c 0
 395.67578125 451.333007812 406.67578125 442.333007812 414.008789062 431 c 0
 419.341796875 421.666992188 421.008789062 412.666992188 419.008789062 404 c 0
 418.341796875 399.333007812 416.008789062 394.333007812 412.008789062 389 c 0
 408.008789062 383.666992188 403.341796875 378.666992188 398.008789062 374 c 0
 392.67578125 369.333007812 387.008789062 366 381.008789062 364 c 0
 372.341796875 361.333007812 365.674804688 360 361.0078125 360 c 0
 353.0078125 360 344.340820312 361.333007812 335.0078125 364 c 0
 332.340820312 364.666992188 328.0078125 366 322.0078125 368 c 0
 315.340820312 369.333007812 308.840820312 369.833007812 302.5078125 369.5 c 0
 296.174804688 369.166992188 289.5078125 366.833984375 282.5078125 362.500976562 c 0
 275.5078125 358.16796875 268.674804688 352.66796875 262.0078125 346.000976562 c 0
 255.340820312 339.333984375 249.173828125 330.333984375 243.506835938 319.000976562 c 0
 237.83984375 307.66796875 233.672851562 294.66796875 231.005859375 280.000976562 c 0
 229.005859375 272.000976562 227.505859375 264.333984375 226.505859375 257.000976562 c 0
 225.505859375 249.66796875 225.338867188 242.000976562 226.005859375 234.000976562 c 0
 226.672851562 218.000976562 233.005859375 210.000976562 245.005859375 210.000976562 c 0
 252.338867188 210.000976562 258.338867188 211.333984375 263.005859375 214.000976562 c 0
 269.672851562 216.66796875 275.33984375 221.334960938 280.006835938 228.001953125 c 0
 290.673828125 242.668945312 300.673828125 268.001953125 310.006835938 304.001953125 c 0
 314.006835938 319.334960938 327.33984375 331.66796875 350.006835938 341.000976562 c 0
 362.673828125 345.66796875 374.006835938 348.334960938 384.006835938 349.001953125 c 0
 391.33984375 349.001953125 397.33984375 347.668945312 402.006835938 345.001953125 c 0
 411.180912086 340.684880325 415.767950159 333.527785905 415.767950159 323.531187891 c 0
 415.767950159 321.178692485 415.513919898 318.668945313 415.005859375 316.001953125 c 0
 415.005859375 314.668945312 414.338867188 313.3359375 413.005859375 312.002929688 c 0
 405.005859375 288.669921875 399.338867188 269.002929688 396.005859375 253.002929688 c 0
 392.005859375 235.002929688 390.005859375 219.669921875 390.005859375 207.002929688 c 0
 390.005859375 202.3359375 390.672851562 199.002929688 392.005859375 197.002929688 c 0
 393.338867188 193.669921875 395.338867188 192.002929688 398.005859375 192.002929688 c 0
 399.338867188 193.3359375 401.005859375 195.3359375 403.005859375 198.002929688 c 0
 407.672851562 206.002929688 412.672851562 216.3359375 418.005859375 229.002929688 c 0
 426.005859375 253.002929688 432.338867188 275.002929688 437.005859375 295.002929688 c 0
 445.005859375 328.3359375 450.838867188 359.168945312 454.505859375 387.501953125 c 0
 458.172851562 415.834960938 460.172851562 439.834960938 460.505859375 459.501953125 c 0
 460.542824109 461.685040476 460.561306477 463.845530245 460.561306477 465.983423767 c 0
 460.561306477 483.105380381 459.375831921 498.777994793 457.004882812 513.001953125 c 0
 454.337890625 529.001953125 451.170898438 541.668945312 447.50390625 551.001953125 c 0
 443.836914062 560.334960938 438.836914062 568.334960938 432.50390625 575.001953125 c 0
 426.170898438 581.668945312 420.50390625 586.501953125 415.50390625 589.501953125 c 0
 410.50390625 592.501953125 404.50390625 595.001953125 397.50390625 597.001953125 c 0
 390.50390625 599.001953125 385.170898438 600.168945312 381.50390625 600.501953125 c 0
 377.836914062 600.834960938 372.669921875 601.001953125 366.002929688 601.001953125 c 0
 344.002929688 601.001953125 321.169921875 593.334960938 297.502929688 578.001953125 c 0
 273.8359375 562.668945312 251.002929688 540.668945312 229.002929688 512.001953125 c 0
 207.002929688 483.334960938 186.3359375 447.501953125 167.002929688 404.501953125 c 0
 147.669921875 361.501953125 132.336914062 314.668945312 121.00390625 264.001953125 c 0
 110.336914062 219.334960938 104.169921875 179.334960938 102.502929688 144.001953125 c 0
 102.064206952 134.702933029 101.844845584 125.888767168 101.844845584 117.559455542 c 0
 101.844845584 94.240310697 103.564206952 74.721468746 107.002929688 59.0029296875 c 0
 111.669921875 37.669921875 119.002929688 19.8369140625 129.002929688 5.50390625 c 0
 139.002929688 -8.8291015625 149.669921875 -18.662109375 161.002929688 -23.9951171875 c 0
 172.3359375 -29.328125 185.3359375 -31.9951171875 200.002929688 -31.9951171875 c 0
 214.669921875 -31.9951171875 228.502929688 -30.328125 241.502929688 -26.9951171875 c 0
 254.502929688 -23.662109375 265.502929688 -19.9951171875 274.502929688 -15.9951171875 c 0
 283.502929688 -11.9951171875 292.502929688 -6.328125 301.502929688 1.0048828125 c 0
 310.502929688 8.337890625 317.8359375 15.1708984375 323.502929688 21.50390625 c 0
 329.169921875 27.8369140625 336.002929688 35.669921875 344.002929688 45.0029296875 c 0
 348.002929688 50.3359375 351.169921875 54.5029296875 353.502929688 57.5029296875 c 0
 355.8359375 60.5029296875 359.002929688 64.169921875 363.002929688 68.5029296875 c 0
 367.002929688 72.8359375 370.502929688 76.0029296875 373.502929688 78.0029296875 c 0
 376.502929688 80.0029296875 380.002929688 82.0029296875 384.002929688 84.0029296875 c 0
 388.002929688 86.0029296875 392.3359375 87.0029296875 397.002929688 87.0029296875 c 0
 401.669921875 87.0029296875 406.002929688 86.0029296875 410.002929688 84.0029296875 c 0
 416.002929688 81.3359375 420.669921875 78.0029296875 424.002929688 74.0029296875 c 0
 427.3359375 70.0029296875 429.502929688 65.169921875 430.502929688 59.5029296875 c 0
 431.502929688 53.8359375 431.3359375 48.0029296875 430.002929688 42.0029296875 c 0
 427.3359375 30.669921875 421.3359375 17.0029296875 412.002929688 1.0029296875 c 0
 406.002929688 -8.9970703125 400.3359375 -17.6640625 395.002929688 -24.9970703125 c 0
 389.669921875 -32.330078125 382.669921875 -41.330078125 374.002929688 -51.9970703125 c 0
 365.3359375 -62.6640625 356.668945312 -71.9970703125 348.001953125 -79.9970703125 c 0
 339.334960938 -87.9970703125 328.334960938 -96.1640625 315.001953125 -104.497070312 c 0
 301.668945312 -112.830078125 288.001953125 -119.497070312 274.001953125 -124.497070312 c 0
 260.001953125 -129.497070312 244.334960938 -133.6640625 227.001953125 -136.997070312 c 0
 209.668945312 -140.330078125 192.001953125 -141.997070312 174.001953125 -141.997070312 c 2
 168.001953125 -141.997070312 l 2
 133.334960938 -141.997070312 103.16796875 -132.6640625 77.5009765625 -113.997070312 c 0
 51.833984375 -95.330078125 31.833984375 -69.9970703125 17.5009765625 -37.9970703125 c 0
 3.16796875 -5.9970703125 -4.83203125 32.8359375 -6.4990234375 78.5029296875 c 0
 -6.70233727439 84.0726806861 -6.80399330697 89.7044025611 -6.80399330697 95.3980970842 c 0
 -6.80399330697 136.387621142 -1.53544966614 180.589011659 9.0009765625 228.002929688 c 0
 23.0009765625 287.3359375 40.16796875 342.8359375 60.5009765625 394.502929688 c 0
 80.833984375 446.169921875 103.500976562 491.169921875 128.500976562 529.502929688 c 0
 153.500976562 567.8359375 180.16796875 601.168945312 208.500976562 629.501953125 c 0
 236.833984375 657.834960938 266.000976562 679.16796875 296.000976562 693.500976562 c 0
 326.000976562 707.833984375 356.000976562 715.000976562 386.000976562 715.000976562 c 0
 407.333984375 715.000976562 426.500976562 713.16796875 443.500976562 709.500976562 c 0
 460.500976562 705.833984375 476.500976562 699.500976562 491.500976562 690.500976562 c 0
 506.500976562 681.500976562 518.66796875 669.66796875 528.000976562 655.000976562 c 0
 537.333984375 640.333984375 544.833984375 622.000976562 550.500976562 600.000976562 c 0
 556.16796875 578.000976562 559.000976562 552.333984375 559.000976562 523.000976562 c 0
 559.000976562 461.66796875 548.000976562 385.000976562 526.000976562 293.000976562 c 0
 514.000976562 242.333984375 497.000976562 198.000976562 475.000976562 160.000976562 c 0
 462.333984375 138.66796875 447.500976562 121.500976562 430.500976562 108.500976562 c 0
 413.500976562 95.5009765625 395.333984375 89.0009765625 376.000976562 89.0009765625 c 0
 347.333984375 89.0009765625 327.666992188 99.333984375 317 120.000976562 c 0
 313 127.333984375 310.666992188 136.666992188 310 148 c 1
EndSplineSet
Validated: 1
EndChar

StartChar: A
Encoding: 65 65 40
Width: 551
GlyphClass: 2
Flags: HMW
HStem: -6.00195 21G<38.6714 46.3384> 251 91.998<429 429>
VStem: 429.001 109.502 434.006 115.998
LayerCount: 2
Fore
SplineSet
109 49 m 0xe0
 96.3330078125 25 82.3388671875 8.998046875 67.005859375 0.998046875 c 0
 58.3388671875 -3.6689453125 50.171875 -6.001953125 42.5048828125 -6.001953125 c 0
 34.837890625 -6.001953125 28.0048828125 -4.3349609375 22.0048828125 -1.001953125 c 0
 12.0048828125 4.3310546875 5.671875 12.6640625 3.0048828125 23.9970703125 c 0
 1.0048828125 32.6640625 1.171875 42.1640625 3.5048828125 52.4970703125 c 0
 5.837890625 62.830078125 9.6708984375 73.6630859375 15.00390625 84.99609375 c 0
 23.6708984375 105.663085938 52.00390625 153.99609375 100.00390625 229.99609375 c 1
 94.4478081465 237.218939901 91.6697590947 245.830810577 91.6697590947 255.831705778 c 0
 91.6697590947 257.831298857 91.780815959 259.886420368 92.0029296875 261.997070312 c 0
 92.0029296875 262.6640625 92.3359375 263.331054688 93.0029296875 263.998046875 c 0
 95.669921875 275.998046875 103.336914062 286.665039062 116.00390625 295.998046875 c 0
 126.670898438 304.665039062 139.00390625 311.33203125 153.00390625 315.999023438 c 1
 275.00390625 497.999023438 365.336914062 620.33203125 424.00390625 682.999023438 c 0
 438.00390625 696.999023438 450.336914062 707.33203125 461.00390625 713.999023438 c 0
 471.670898438 721.33203125 483.00390625 724.999023438 495.00390625 724.999023438 c 0
 498.336914062 724.999023438 501.00390625 725.33203125 503.00390625 725.999023438 c 0
 515.670898438 725.999023438 526.00390625 722.666015625 534.00390625 715.999023438 c 0
 544.804090836 708.798900381 550.203827153 697.818384431 550.203827153 683.05818754 c 0
 550.203827153 681.41844596 550.137186527 679.7320576 550.00390625 677.999023438 c 0xd0
 545.336914062 597.999023438 541.669921875 484.999023438 539.002929688 338.999023438 c 0
 538.241154005 292.519545228 537.860175035 253.06152467 537.860175035 220.624961764 c 0
 537.860175035 196.301781965 538.07440097 175.92679471 538.502929688 159.5 c 0
 539.502929688 121.166992188 541.3359375 97.6669921875 544.002929688 89 c 0
 546.086126322 81.49975967 547.12784386 74.2600798613 547.12784386 67.2807221323 c 0
 547.12784386 63.0934653179 546.752889633 58.9999084372 546.002929688 55 c 0
 545.3359375 53 544.668945312 50.6669921875 544.001953125 48 c 0
 540.001953125 36 533.834960938 25.8330078125 525.501953125 17.5 c 0
 517.168945312 9.1669921875 508.001953125 3 498.001953125 -1 c 0
 486.668945312 -4.3330078125 479.668945312 -6 477.001953125 -6 c 0
 469.001953125 -6 461.334960938 -3.6669921875 454.001953125 1 c 0
 441.334960938 9 433.66796875 24.6669921875 431.000976562 48 c 0
 428.917779928 61.3335571296 427.87606239 92.7674868664 427.87606239 142.301550769 c 0
 427.87606239 172.019449561 428.251016617 208.252283135 429.000976562 251 c 1
 350.333984375 247.666992188 278.666992188 241 214 231 c 1
 180.666992188 179 145.666992188 118.333007812 109 49 c 0xe0
278.005859375 331.998046875 m 1
 333.338867188 337.998046875 383.672851562 341.665039062 429.005859375 342.998046875 c 1
 434.005859375 567.998046875 l 1
 396.672851562 519.998046875 344.672851562 441.331054688 278.005859375 331.998046875 c 1
EndSplineSet
Validated: 1
EndChar

StartChar: B
Encoding: 66 66 41
Width: 551
GlyphClass: 2
Flags: HMW
HStem: -23 21G<50.3335 57.6665> 285.002 97.998 605.004 103.999<328.002 333.001>
LayerCount: 2
Fore
SplineSet
-6 42 m 0
 0 61.3330078125 8.333984375 94.00390625 19.0009765625 140.00390625 c 0
 39.0009765625 227.336914062 59.66796875 324.00390625 81.0009765625 430.00390625 c 0
 89.66796875 473.336914062 95.66796875 502.50390625 99.0009765625 517.50390625 c 0
 102.333984375 532.50390625 107.333984375 552.50390625 114.000976562 577.50390625 c 0
 120.66796875 602.50390625 125.334960938 619.670898438 128.001953125 629.00390625 c 0
 133.334960938 649.670898438 142.834960938 665.670898438 156.501953125 677.00390625 c 0
 170.168945312 688.336914062 184.668945312 694.00390625 200.001953125 694.00390625 c 2
 203.001953125 694.00390625 l 1
 221.001953125 699.336914062 242.668945312 703.336914062 268.001953125 706.00390625 c 0
 278.668945312 707.336914062 289.668945312 708.169921875 301.001953125 708.502929688 c 0
 312.334960938 708.8359375 321.334960938 709.002929688 328.001953125 709.002929688 c 2
 348.001953125 709.002929688 l 1
 360.001953125 709.002929688 l 2
 407.334960938 709.002929688 448.001953125 700.669921875 482.001953125 684.002929688 c 0
 515.334960938 667.3359375 538.001953125 642.3359375 550.001953125 609.002929688 c 0
 557.620871674 589.955354296 561.430422058 569.166043687 561.430422058 546.63518008 c 0
 561.430422058 529.737327055 559.287624704 511.859884634 555.001953125 493.002929688 c 0
 546.334960938 455.002929688 529.66796875 422.002929688 505.000976562 394.002929688 c 0
 487.000976562 372.669921875 466.333984375 355.669921875 443.000976562 343.002929688 c 1
 455.66796875 336.3359375 467.334960938 328.668945312 478.001953125 320.001953125 c 0
 495.334960938 305.334960938 509.334960938 288.66796875 520.001953125 270.000976562 c 0
 527.759689316 256.425115782 531.638369589 243.025904419 531.638369589 229.802966826 c 0
 531.638369589 224.844186388 531.092890831 219.910196237 530.001953125 215.000976562 c 0
 530.001953125 214.333984375 529.668945312 214.000976562 529.001953125 214.000976562 c 0
 523.001953125 188.000976562 510.668945312 162.333984375 492.001953125 137.000976562 c 0
 473.334960938 111.66796875 449.66796875 88.5009765625 421.000976562 67.5009765625 c 0
 392.333984375 46.5009765625 356.666992188 28.66796875 314 14.0009765625 c 0
 270.666992188 -0.666015625 225 -9.9990234375 177 -13.9990234375 c 1
 172.013503125 -10.7725171874 166.704280002 -9.15926406236 161.072330629 -9.15926406236 c 0
 153.904326879 -9.15926406236 146.213550002 -11.7725171874 138 -16.9990234375 c 1
 105.333007812 -19.666015625 85 -21.3330078125 77 -22 c 0
 69 -22.6669921875 61.3330078125 -23 54 -23 c 0
 46.6669921875 -23 40 -22.3330078125 34 -21 c 2
 32 -21 l 2
 16.6669921875 -21 5 -15.3330078125 -3 -4 c 0
 -7.16680335724 2.24989986496 -9.25008583229 9.67163717958 -9.25008583229 18.2652119439 c 0
 -9.25008583229 23.4215770986 -8.50004005402 28.9998397839 -7 35 c 0
 -7 37.6669921875 -6.6669921875 40 -6 42 c 0
187.000976562 402.00390625 m 0
 185.66796875 395.336914062 184.33203125 389 182.999023438 383 c 1
 210.33203125 382.333007812 234.999023438 381.833007812 256.999023438 381.5 c 0
 259.197669471 381.466719713 261.368020285 381.450079083 263.510074908 381.450079083 c 0
 282.801757678 381.450079083 299.798311208 382.799815368 314.499023438 385.5 c 0
 330.83203125 388.5 344.83203125 392.333007812 356.499023438 397 c 0
 368.166015625 401.666992188 378.833007812 407.333984375 388.5 414.000976562 c 0
 398.166992188 420.66796875 405.833984375 427.334960938 411.500976562 434.001953125 c 0
 417.16796875 440.668945312 422.500976562 448.168945312 427.500976562 456.501953125 c 0
 432.500976562 464.834960938 436.333984375 472.334960938 439.000976562 479.001953125 c 0
 441.66796875 485.668945312 443.66796875 492.668945312 445.000976562 500.001953125 c 0
 446.755238182 507.721629441 447.632440186 515.16428261 447.632440186 522.32991263 c 0
 447.632440186 528.778615027 446.921986906 535.002954047 445.500976562 541.002929688 c 0
 442.500976562 553.669921875 437.000976562 563.836914062 429.000976562 571.50390625 c 0
 421.000976562 579.170898438 411.66796875 585.670898438 401.000976562 591.00390625 c 0
 382.251441428 600.378673817 361.15798642 605.066459903 337.721416142 605.066459903 c 0
 336.158358312 605.066459903 334.584878372 605.045608765 333.000976562 605.00390625 c 0
 301.000976562 605.00390625 269.000976562 602.00390625 237.000976562 596.00390625 c 1
 233.66796875 584.00390625 229.000976562 566.00390625 223.000976562 542.00390625 c 0
 209.000976562 492.670898438 197.000976562 446.00390625 187.000976562 402.00390625 c 0
389.498046875 165.5 m 0
 401.165039062 178.5 408 189.670898438 410 199.00390625 c 0
 411.333007812 204.336914062 409.833007812 210.669921875 405.5 218.002929688 c 0
 401.166992188 225.3359375 393.166992188 233.168945312 381.5 241.501953125 c 0
 369.833007812 249.834960938 352.166015625 258.001953125 328.499023438 266.001953125 c 0
 304.83203125 274.001953125 277.33203125 280.334960938 245.999023438 285.001953125 c 1
 162.999023438 285.001953125 l 1
 144.33203125 193.001953125 130.665039062 124.668945312 121.998046875 80.001953125 c 1
 128.665039062 80.001953125 138.665039062 80.1689453125 151.998046875 80.501953125 c 0
 165.331054688 80.8349609375 176.331054688 81.3349609375 184.998046875 82.001953125 c 0
 214.998046875 83.3349609375 243.998046875 88.16796875 271.998046875 96.5009765625 c 0
 299.998046875 104.833984375 323.665039062 115.166992188 342.998046875 127.5 c 0
 362.331054688 139.833007812 377.831054688 152.5 389.498046875 165.5 c 0
EndSplineSet
Validated: 1
EndChar

StartChar: C
Encoding: 67 67 42
Width: 551
GlyphClass: 2
Flags: HMW
HStem: -30.9971 114.001<123.667 185.667 138 185.667> 608.005 104.996<416.667 417.667>
LayerCount: 2
Fore
SplineSet
593 692 m 0
 593 666 589.333984375 638.336914062 582.000976562 609.00390625 c 0
 577.333984375 589.00390625 574.333984375 577.00390625 573.000976562 573.00390625 c 0
 569.000976562 556.336914062 559.500976562 539.50390625 544.500976562 522.50390625 c 0
 529.500976562 505.50390625 515.333984375 496.336914062 502.000976562 495.00390625 c 0
 499.333984375 495.00390625 496.333984375 494.670898438 493.000976562 494.00390625 c 0
 481.66796875 494.00390625 471.66796875 498.00390625 463.000976562 506.00390625 c 0
 452.744741145 514.209345309 447.616401181 524.584056346 447.616401181 537.12848387 c 0
 447.616401181 540.891691981 448.077922308 544.850162107 449.000976562 549.00390625 c 0
 450.333984375 553.670898438 453.666992188 565.670898438 459 585.00390625 c 1
 451.666992188 590.336914062 447 593.836914062 445 595.50390625 c 0
 443 597.170898438 440 599.337890625 436 602.004882812 c 0
 428.666992188 606.004882812 421.333984375 608.004882812 414.000976562 608.004882812 c 0
 395.333984375 608.004882812 373.333984375 602.004882812 348.000976562 590.004882812 c 0
 322.66796875 578.004882812 297.000976562 560.504882812 271.000976562 537.504882812 c 0
 245.000976562 514.504882812 219.833984375 488.171875 195.500976562 458.504882812 c 0
 171.16796875 428.837890625 149.500976562 395.170898438 130.500976562 357.50390625 c 0
 111.500976562 319.836914062 97.66796875 282.336914062 89.0009765625 245.00390625 c 0
 85.8245435433 230.886253832 84.2363994832 217.00234237 84.2363994832 203.352026967 c 0
 84.2363994832 191.218108317 85.4912924346 179.26876867 88.0009765625 167.50390625 c 0
 93.333984375 142.50390625 103.833984375 122.170898438 119.500976562 106.50390625 c 0
 135.16796875 90.8369140625 153.66796875 83.00390625 175.000976562 83.00390625 c 0
 196.333984375 83.00390625 217.333984375 85.1708984375 238.000976562 89.50390625 c 0
 258.66796875 93.8369140625 277.66796875 99.3369140625 295.000976562 106.00390625 c 0
 312.333984375 112.670898438 327.500976562 119.50390625 340.500976562 126.50390625 c 0
 353.500976562 133.50390625 365.66796875 140.670898438 377.000976562 148.00390625 c 0
 387.000976562 154.670898438 396.000976562 160.00390625 404.000976562 164.00390625 c 0
 412.000976562 168.00390625 420.500976562 169.836914062 429.500976562 169.50390625 c 0
 438.500976562 169.170898438 446.000976562 166.00390625 452.000976562 160.00390625 c 0
 460.563447635 151.441435178 464.844683171 141.641976911 464.844683171 130.605531449 c 0
 464.844683171 127.03449718 464.396455448 123.333955446 463.5 119.50390625 c 0
 459.833007812 103.836914062 448.333007812 86.669921875 429 68.0029296875 c 0
 360.35378616 1.99632264379 267.52684879 -31.0069808781 150.51918789 -31.0069808781 c 0
 149.348545671 -31.0069808781 148.175483041 -31.0036773562 147 -30.9970703125 c 2
 138 -30.9970703125 l 2
 109.333007812 -30.9970703125 83 -26.330078125 59 -16.9970703125 c 0
 35.6669921875 -7.6640625 17.333984375 5.0029296875 4.0009765625 21.0029296875 c 0
 -9.33203125 37.0029296875 -19.9990234375 55.3359375 -27.9990234375 76.0029296875 c 0
 -35.9990234375 96.669921875 -40.33203125 118.669921875 -40.9990234375 142.002929688 c 0
 -41.0731698672 144.596752008 -41.110243082 147.190574328 -41.110243082 149.784396649 c 0
 -41.110243082 170.52358214 -38.7401620547 191.262767632 -34 212.001953125 c 0
 -22.6669921875 260.001953125 -7.1669921875 306.501953125 12.5 351.501953125 c 0
 32.1669921875 396.501953125 54.1669921875 437.001953125 78.5 473.001953125 c 0
 102.833007812 509.001953125 129.666015625 542.334960938 158.999023438 573.001953125 c 0
 188.999023438 603.001953125 219.666015625 628.168945312 250.999023438 648.501953125 c 0
 282.33203125 668.834960938 313.33203125 684.66796875 343.999023438 696.000976562 c 0
 374.666015625 707.333984375 403.333007812 713.000976562 430 713.000976562 c 0
 451.333007812 713.000976562 471 711.333984375 489 708.000976562 c 1
 494.333007812 715.333984375 500.666015625 721.666992188 507.999023438 727 c 0
 518.666015625 735 529.333007812 739.333007812 540 740 c 0
 544 740.666992188 546.5 741 547.5 741 c 2
 549 741 l 2
 559 741 568 737.666992188 576 731 c 0
 587.333007812 721.666992188 593 708.666992188 593 692 c 0
EndSplineSet
Validated: 1
EndChar

StartChar: D
Encoding: 68 68 43
Width: 551
GlyphClass: 2
Flags: HMW
HStem: -31 110.001<236.666 294.001 251.999 294.001> 694 20G<185.002 203.668>
LayerCount: 2
Fore
SplineSet
189.500976562 86 m 0
 216.500976562 81.3330078125 248.66796875 79.0009765625 286.000976562 79.0009765625 c 0
 302.000976562 79.0009765625 318.66796875 84.66796875 336.000976562 96.0009765625 c 0
 353.333984375 107.333984375 369.166992188 122.166992188 383.5 140.5 c 0
 397.833007812 158.833007812 410.833007812 179.333007812 422.5 202 c 0
 434.166992188 224.666992188 442.333984375 246.666992188 447.000976562 268 c 0
 453.959581664 297.988355268 457.43889171 326.226718913 457.43889171 352.715105925 c 0
 457.43889171 432.810556542 425.62639147 496.905383091 362.000976562 545 c 0
 332.000976562 567.666992188 286.000976562 591 224.000976562 615 c 1
 203.333984375 533.666992188 184.333984375 448.666992188 167.000976562 360 c 0
 161.000976562 331.333007812 152.500976562 289.5 141.500976562 234.5 c 0
 130.500976562 179.5 122.000976562 137.333007812 116.000976562 108 c 1
 138.000976562 98 162.500976562 90.6669921875 189.500976562 86 c 0
-13 62 m 0
 -6.3330078125 84.6669921875 2.66796875 120 14.0009765625 168 c 0
 34.0009765625 256 56.333984375 360.666992188 81.0009765625 482 c 0
 88.333984375 518 93.333984375 541.833007812 96.0009765625 553.5 c 0
 98.66796875 565.166992188 103.334960938 583 110.001953125 607 c 0
 115.108019855 625.380942722 118.454404006 637.896276845 120.041105812 644.546002311 c 0
 120.145643118 645.229028511 120.466250998 647.046702239 121.002929688 649.999023438 c 0
 126.3359375 670.666015625 135.668945312 686.333007812 149.001953125 697 c 0
 162.334960938 708.333007812 177.001953125 714 193.001953125 714 c 0
 214.334960938 714 241.334960938 710.666992188 274.001953125 704 c 0
 294.668945312 700 315.668945312 694.5 337.001953125 687.5 c 0
 358.334960938 680.5 380.66796875 670.666992188 404.000976562 658 c 0
 427.333984375 645.333007812 449.000976562 630.833007812 469.000976562 614.5 c 0
 489.000976562 598.166992188 507.000976562 577.333984375 523.000976562 552.000976562 c 0
 537.66796875 527.333984375 549.000976562 500.166992188 557.000976562 470.5 c 0
 564.385378616 443.115875246 568.077963656 411.187911702 568.077963656 374.716109369 c 0
 568.077963656 371.675651054 568.05230144 368.603614598 568.000976562 365.5 c 0
 567.333984375 325.166992188 561.666992188 281.666992188 551 235 c 0
 545.666992188 211.666992188 537.166992188 187.666992188 525.5 163 c 0
 513.833007812 138.333007812 499.166015625 114.666015625 481.499023438 91.9990234375 c 0
 463.83203125 69.33203125 444.33203125 48.83203125 422.999023438 30.4990234375 c 0
 401.666015625 12.166015625 376.999023438 -2.6669921875 348.999023438 -14 c 0
 321.841407995 -25.3681750488 294.384928669 -31.052677717 266.629585461 -31.052677717 c 0
 265.086987965 -31.052677717 263.54346729 -31.0351185255 261.999023438 -31 c 2
 251.999023438 -31 l 2
 221.33203125 -31 190.999023438 -29.5 160.999023438 -26.5 c 0
 130.999023438 -23.5 106.999023438 -20 88.9990234375 -16 c 0
 71.666015625 -12 57.3330078125 -8.3330078125 46 -5 c 0
 34.6669921875 -1.6669921875 27.6669921875 0 25 0 c 0
 9.6669921875 0 -2 5.6669921875 -10 17 c 0
 -14.4448784828 23.6669921875 -16.6673177242 31.5194299938 -16.6673177242 40.5570240247 c 0
 -16.6673177242 45.0751591393 -16.1118706703 49.8894965172 -15.0009765625 55 c 0
 -14.333984375 57.6669921875 -13.6669921875 60 -13 62 c 0
120.541626472 646.710499768 m 1
 120.755081751 647.672623947 120.90884978 648.435790627 121.002929688 649 c 1
 120.825562007 648.112901714 120.671794558 647.349734906 120.541626472 646.710499768 c 1
EndSplineSet
Validated: 1
EndChar

StartChar: E
Encoding: 69 69 44
Width: 551
GlyphClass: 2
Flags: HMW
HStem: -20 115 -6 115<366.003 425.668 373.003 425.668> 301 108.999 319 106<448.336 487.001> 589.998 107.998<364.333 395.001 345.001 416.667>
VStem: 87.002 1<640 640>
LayerCount: 2
Fore
SplineSet
163 704 m 2x8c
 178.333007812 704 190.000976562 698.663085938 198.000976562 687.99609375 c 1
 253.333984375 694.663085938 322.666992188 697.99609375 406 697.99609375 c 0
 427.333007812 697.99609375 447.666015625 697.663085938 466.999023438 696.99609375 c 0
 505.666015625 695.663085938 535.333007812 693.663085938 556 690.99609375 c 0
 572.666992188 688.99609375 583.833984375 683.829101562 589.500976562 675.49609375 c 0
 593.354451564 669.829765612 595.281189065 662.853057293 595.281189065 654.566275839 c 0
 595.281189065 650.666361974 594.854451564 646.47629061 594.000976562 641.99609375 c 0
 592.66796875 634.663085938 590.500976562 627.830078125 587.500976562 621.497070312 c 0
 584.500976562 615.1640625 580.66796875 609.331054688 576.000976562 603.998046875 c 0
 570.66796875 597.331054688 563.66796875 591.998046875 555.000976562 587.998046875 c 0
 549.000976562 585.998046875 542.66796875 584.998046875 536.000976562 584.998046875 c 2
 529.000976562 584.998046875 l 2
 487.000976562 588.331054688 442.333984375 589.998046875 395.000976562 589.998046875 c 2
 345.000976562 589.998046875 l 2
 285.66796875 588.665039062 233.66796875 585.33203125 189.000976562 579.999023438 c 1
 173.000976562 522.666015625 158.66796875 465.999023438 146.000976562 409.999023438 c 1
 194.000976562 410.666015625 259.333984375 413.333007812 342.000976562 418 c 0
 422.66796875 422.666992188 468.000976562 425 478.000976562 425 c 0
 496.000976562 425 507.833984375 420.333007812 513.500976562 411 c 0
 517.069287724 405.123324182 518.853443305 398.321272531 518.853443305 390.594088844 c 0
 518.853443305 386.049391633 518.236279912 381.184678819 517.001953125 376 c 2
 517.001953125 375 l 2
 513.668945312 359 507.3359375 346.666992188 498.002929688 338 c 0
 486.002929688 325.333007812 471.3359375 319 454.002929688 319 c 0x9c
 442.669921875 319 394.002929688 316.333007812 308.002929688 311 c 0
 220.002929688 305 158.002929688 301.666992188 122.002929688 301 c 1
 118.669921875 285 115.169921875 269 111.502929688 253 c 0
 107.8359375 237 104.3359375 220.333007812 101.002929688 203 c 0
 91.0029296875 158.333007812 85.0029296875 127.333007812 83.0029296875 110 c 0
 82.3359375 104 81.6689453125 99 81.001953125 95 c 1xac
 93.001953125 93.6669921875 111.334960938 92.833984375 136.001953125 92.5009765625 c 0
 140.93245977 92.4344140396 146.115989838 92.4011327782 151.55254333 92.4011327782 c 0
 173.314700272 92.4011327782 199.131170203 92.9344140396 229.001953125 94.0009765625 c 0
 316.334960938 97.333984375 372.001953125 101.666992188 396.001953125 107 c 0
 406.001953125 108.333007812 414.668945312 109 422.001953125 109 c 0
 429.334960938 109 435.501953125 107.333007812 440.501953125 104 c 0
 445.501953125 100.666992188 449.501953125 97.1669921875 452.501953125 93.5 c 0
 455.501953125 89.8330078125 457.334960938 85.3330078125 458.001953125 80 c 0
 458.668945312 74.6669921875 459.001953125 70 459.001953125 66 c 0
 459.001953125 62 458.668945312 57.6669921875 458.001953125 53 c 0
 454.668945312 37.6669921875 446.3359375 23.6669921875 433.002929688 11 c 0
 421.002929688 -0.3330078125 407.002929688 -6.3330078125 391.002929688 -7 c 1
 388.3359375 1.6669921875 383.3359375 2 376.002929688 -6 c 1
 373.002929688 -6 l 2x4c
 359.002929688 -6 332.002929688 -7.3330078125 292.002929688 -10 c 0
 250.669921875 -12.6669921875 208.336914062 -15 165.00390625 -17 c 0
 121.670898438 -19 89.00390625 -20 67.00390625 -20 c 0
 45.6708984375 -20 28.6708984375 -19.3330078125 16.00390625 -18 c 0
 -0.6630859375 -16.6669921875 -15.330078125 -8 -27.9970703125 8 c 0
 -38.4609319648 20.6661854755 -43.6928627909 35.8347146336 -43.6928627909 53.5055874743 c 0
 -43.6928627909 57.2261297399 -43.4609319648 61.0576005818 -42.9970703125 65 c 0
 -41.6640625 81 -36.3310546875 109 -26.998046875 149 c 0
 -18.3310546875 185.666992188 -9.498046875 222.5 -0.498046875 259.5 c 0
 8.501953125 296.5 16.001953125 328 22.001953125 354 c 0
 28.001953125 380 35.3349609375 415.666992188 44.001953125 461 c 0
 52.001953125 499.666992188 57.501953125 525.5 60.501953125 538.5 c 0
 63.501953125 551.5 68.3349609375 570 75.001953125 594 c 0
 80.9961115199 615.577916612 84.8344212015 630.149916956 86.5168827254 637.71671064 c 1
 85.8052735036 634.133334577 86.3000962189 634.894431071 88.001953125 640 c 0
 93.3349609375 660.666992188 102.66796875 676.5 116.000976562 687.5 c 0
 129.333984375 698.5 143.666992188 704 159 704 c 2
 163 704 l 2x8c
86.5168827254 637.71671064 m 1
 86.6415481917 638.344472558 86.8032392181 639.105569052 87.001953125 640 c 1
 86.8674263438 639.327166084 86.7057360255 638.566070006 86.5168827254 637.71671064 c 1
EndSplineSet
Validated: 1
EndChar

StartChar: F
Encoding: 70 70 45
Width: 551
GlyphClass: 2
Flags: HMW
HStem: -21.002 21G<-15.6655 -7.99902 -7.99902 -4.99902> 313.498 106.502 597 110<402.333 442.333> 694 20G<165 170 170 178>
LayerCount: 2
Fore
SplineSet
170 714 m 2xd0
 186 714 197.666992188 708.666992188 205 698 c 1
 286.333007812 704 364.666015625 707 439.999023438 707 c 0
 489.33203125 707 529.665039062 705.333007812 560.998046875 702 c 0
 577.665039062 700.666992188 588.83203125 695.666992188 594.499023438 687 c 0
 598.687593421 680.594079165 600.781681257 672.549276733 600.781681257 662.865592701 c 0
 600.781681257 659.447582844 600.520789537 655.82539309 599.999023438 651.999023438 c 0
 597.999023438 643.33203125 597.666015625 643.33203125 598.999023438 651.999023438 c 1
 595.666015625 636.666015625 588.333007812 623.333007812 577 612 c 0
 565.666992188 600.666992188 551 595 533 595 c 2
 531 595 l 2
 497.666992188 596.333007812 461.666992188 597 423 597 c 0xe0
 351 597 275 594.333007812 195 589 c 1
 192.333007812 579 188 563.666992188 182 543 c 0
 171.333007812 503.666992188 162.333007812 467 155 433 c 0
 153.666992188 427 152.333984375 421.333007812 151.000976562 416 c 1
 177.000976562 418.666992188 205.000976562 420 235.000976562 420 c 0
 243.000976562 420 251.000976562 419.666992188 259.000976562 419 c 0
 303.000976562 418.333007812 342.66796875 416.666015625 378.000976562 413.999023438 c 0
 414.000976562 411.33203125 440.833984375 408.165039062 458.500976562 404.498046875 c 0
 476.16796875 400.831054688 487.66796875 395.1640625 493.000976562 387.497070312 c 0
 496.879603998 381.920966302 498.819105556 374.846352923 498.819105556 366.273230175 c 0
 498.819105556 363.058541036 498.546402493 359.633154415 498.000976562 355.997070312 c 1
 498.000976562 356.6640625 497.66796875 356.6640625 497.000976562 355.997070312 c 0
 493.66796875 341.997070312 488.000976562 329.6640625 480.000976562 318.997070312 c 0
 474.66796875 312.330078125 467.334960938 307.330078125 458.001953125 303.997070312 c 0
 452.001953125 301.997070312 445.668945312 300.997070312 439.001953125 300.997070312 c 2
 432.001953125 300.997070312 l 2
 414.001953125 304.330078125 387.001953125 307.330078125 351.001953125 309.997070312 c 0
 316.62709776 312.368019422 281.066767838 313.553493977 244.320963361 313.553493977 c 0
 239.732783461 313.553493977 235.126121195 313.53501161 230.500976562 313.498046875 c 0
 188.833984375 313.165039062 154.333984375 311.665039062 127.000976562 308.998046875 c 1
 109.66796875 222.331054688 91.66796875 130.998046875 73.0009765625 34.998046875 c 0
 67.0009765625 16.998046875 55.333984375 2.998046875 38.0009765625 -7.001953125 c 0
 24.0009765625 -16.3349609375 9.66796875 -21.001953125 -4.9990234375 -21.001953125 c 2
 -7.9990234375 -21.001953125 l 2
 -23.33203125 -21.001953125 -34.9990234375 -15.3349609375 -42.9990234375 -4.001953125 c 0
 -47.1658267947 2.24794673996 -49.2491092698 9.66968405458 -49.2491092698 18.2632588189 c 0
 -49.2491092698 23.4196239736 -48.4990634915 28.9978866589 -46.9990234375 34.998046875 c 0
 -46.33203125 36.998046875 -45.9990234375 39.3310546875 -45.9990234375 41.998046875 c 0
 -39.9990234375 62.6650390625 -30.9990234375 97.33203125 -18.9990234375 145.999023438 c 0
 2.333984375 237.999023438 23.6669921875 339.666015625 45 450.999023438 c 0
 53.6669921875 494.33203125 59.833984375 523.499023438 63.5009765625 538.499023438 c 0
 67.16796875 553.499023438 72.5009765625 573.499023438 79.5009765625 598.499023438 c 0
 86.5009765625 623.499023438 91.0009765625 640.666015625 93.0009765625 649.999023438 c 0
 98.333984375 670.666015625 107.666992188 686.333007812 121 697 c 0
 134.333007812 708.333007812 149 714 165 714 c 2
 170 714 l 2xd0
EndSplineSet
Validated: 1
EndChar

StartChar: G
Encoding: 71 71 46
Width: 551
GlyphClass: 2
Flags: HMW
HStem: -31 114<126.672 184.003> 619 105<421.338 422.335>
LayerCount: 2
Fore
SplineSet
-40 142 m 2
 -40 150 l 2
 -40 171 -38 191 -33 212 c 0
 -22 261 -6 308 14 354 c 0
 34 400 56 442 81 479 c 0
 106 516 133 549 162 580 c 0
 193 611 224 637 255 658 c 0
 286 679 316 695 347 706 c 0
 378 718 408 724 436 724 c 0
 464 724 494 717 525 704 c 0
 556 690 575 678 583 667 c 0
 589 658 592 649 592 639 c 0
 592 634 591 629 590 624 c 0
 588 616 585 607 580 598 c 0
 574 586 564 577 550 572 c 0
 543 569 537 568 530 568 c 0
 523 568 518 569 514 571 c 0
 510 573 501 578 489 587 c 0
 477 596 465 604 452 610 c 0
 439 616 428 619 417 619 c 0
 398 619 377 613 352 601 c 0
 327 589 301 571 274 547 c 0
 247 523 222 496 198 465 c 0
 174 434 152 400 133 361 c 0
 114 322 99 284 90 245 c 0
 87 231 85 217 85 203 c 0
 85 191 86 180 89 168 c 0
 94 143 105 123 121 107 c 0
 137 91 156 83 177 83 c 0
 191 83 207 88 224 97 c 0
 241 106 259 117 275 132 c 0
 291 147 307 163 323 182 c 0
 348 211 369 240 386 270 c 1
 350 268 313 265 275 260 c 0
 237 255 210 248 194 241 c 0
 186 237 179 235 171 235 c 0
 163 235 156 237 149 242 c 0
 139 249 134 259 134 270 c 2
 134 276 l 2
 134 279 134 283 135 286 c 0
 138 300 146 313 159 324 c 0
 168 332 180 339 195 345 c 0
 218 355 262 362 327 367 c 0
 374 370 412 372 443 373 c 0
 454 373 465 373 474 372 c 0
 491 371 503 367 510 360 c 0
 516 354 519 346 519 335 c 0
 519 330 518 325 517 319 c 0
 512 299 502 285 485 276 c 1
 481 264 l 2
 480 261 478 255 476 247 c 0
 466 218 445 182 413 138 c 0
 398 117 380 97 360 76 c 0
 339 56 317 38 294 22 c 0
 271 6 247 -6 220 -16 c 0
 193 -26 167 -31 142 -31 c 0
 111 -31 84 -26 61 -17 c 0
 38 -8 20 5 6 21 c 0
 -8 37 -19 55 -27 76 c 0
 -35 97 -39 119 -40 142 c 2
EndSplineSet
Validated: 1
EndChar

StartChar: H
Encoding: 72 72 47
Width: 551
GlyphClass: 2
Flags: HMW
HStem: -21 21G<-8.66553 -0.999023 -0.999023 2.00098> 312 86.0049 694.005 20G<181.001 185.001 185.001 192.334>
LayerCount: 2
Fore
SplineSet
-41 34 m 0
 -40.3330078125 36.6669921875 -39.3310546875 39.3369140625 -37.998046875 42.00390625 c 0
 -32.6650390625 60.00390625 -21.998046875 104.336914062 -5.998046875 175.00390625 c 0
 3.3349609375 215.670898438 15.501953125 265.170898438 30.501953125 323.50390625 c 2
 57.501953125 428.50390625 l 2
 60.501953125 440.170898438 63.3349609375 451.837890625 66.001953125 463.504882812 c 0
 68.6689453125 475.171875 72.8359375 494.671875 78.5029296875 522.004882812 c 0
 84.169921875 549.337890625 88.169921875 567.504882812 90.5029296875 576.504882812 c 0
 92.8359375 585.504882812 95.1689453125 594.671875 97.501953125 604.004882812 c 0
 99.8349609375 613.337890625 101.334960938 619.170898438 102.001953125 621.50390625 c 0
 102.668945312 623.836914062 103.3359375 626.50390625 104.002929688 629.50390625 c 0
 104.669921875 632.50390625 105.502929688 635.50390625 106.502929688 638.50390625 c 0
 107.502929688 641.50390625 108.3359375 644.170898438 109.002929688 646.50390625 c 2
 110.002929688 650.00390625 l 2
 115.3359375 670.670898438 124.668945312 686.337890625 138.001953125 697.004882812 c 0
 151.334960938 708.337890625 165.66796875 714.004882812 181.000976562 714.004882812 c 2
 185.000976562 714.004882812 l 2
 199.66796875 714.004882812 211.334960938 709.337890625 220.001953125 700.004882812 c 0
 226.523686235 693.048155199 229.784417347 683.681501002 229.784417347 671.904649336 c 0
 229.784417347 665.623645112 228.856915575 658.657069969 227.001953125 651.004882812 c 0
 225.668945312 643.671875 221.501953125 629.004882812 214.501953125 607.004882812 c 0
 207.501953125 585.004882812 202.001953125 565.171875 198.001953125 547.504882812 c 0
 194.001953125 529.837890625 188.668945312 505.004882812 182.001953125 473.004882812 c 0
 175.334960938 441.004882812 170.001953125 416.004882812 166.001953125 398.004882812 c 1
 220.668945312 398.671875 287.3359375 404.671875 366.002929688 416.004882812 c 0
 389.3359375 419.337890625 407.668945312 421.670898438 421.001953125 423.00390625 c 0
 421.668945312 425.670898438 422.501953125 430.170898438 423.501953125 436.50390625 c 0
 424.501953125 442.836914062 427.501953125 457.669921875 432.501953125 481.002929688 c 0
 437.501953125 504.3359375 441.501953125 522.502929688 444.501953125 535.502929688 c 0
 447.501953125 548.502929688 452.668945312 569.002929688 460.001953125 597.002929688 c 0
 467.334960938 625.002929688 472.001953125 642.002929688 474.001953125 648.002929688 c 0
 479.334960938 669.3359375 489.001953125 685.668945312 503.001953125 697.001953125 c 0
 517.001953125 708.334960938 531.334960938 714.001953125 546.001953125 714.001953125 c 2
 550.001953125 714.001953125 l 2
 565.334960938 714.001953125 577.001953125 709.334960938 585.001953125 700.001953125 c 0
 591.223741327 692.890873024 594.334635428 683.409732561 594.334635428 671.558531733 c 0
 594.334635428 665.632311291 593.556749139 659.113451755 592.000976562 652.001953125 c 0
 589.333984375 639.334960938 583.000976562 614.334960938 573.000976562 577.001953125 c 0
 561.000976562 530.334960938 550.833984375 488.501953125 542.500976562 451.501953125 c 0
 534.16796875 414.501953125 527.66796875 385.168945312 523.000976562 363.501953125 c 0
 518.333984375 341.834960938 514.333984375 321.66796875 511.000976562 303.000976562 c 0
 502.333984375 266.333984375 490.333984375 219.500976562 475.000976562 162.500976562 c 0
 459.66796875 105.500976562 449.66796875 65.66796875 445.000976562 43.0009765625 c 2
 443.000976562 35.0009765625 l 2
 437.66796875 17.0009765625 426.66796875 3.0009765625 410.000976562 -6.9990234375 c 0
 396.000976562 -16.33203125 381.66796875 -20.9990234375 367.000976562 -20.9990234375 c 2
 364.000976562 -20.9990234375 l 2
 348.66796875 -20.9990234375 337.000976562 -15.33203125 329.000976562 -3.9990234375 c 0
 324.25601919 2.90324975236 321.883408215 10.9217769353 321.883408215 20.0568226873 c 0
 321.883408215 25.0393667479 322.58925002 30.3540703959 324.000976562 36.0009765625 c 0
 324.66796875 38.0009765625 325.000976562 40.333984375 325.000976562 43.0009765625 c 0
 350.333984375 126.333984375 375.000976562 219.666992188 399.000976562 323 c 2
 403.000976562 341 l 1
 381.66796875 339 341.000976562 333.833007812 281.000976562 325.5 c 0
 221.000976562 317.166992188 175.000976562 312.666992188 143.000976562 312 c 1
 141.66796875 307.333007812 141.000976562 304.333007812 141.000976562 303 c 0
 131.000976562 269.666992188 120.833984375 231 110.500976562 187 c 0
 100.16796875 143 89.66796875 92.6669921875 79.0009765625 36 c 0
 72.333984375 17.3330078125 61.0009765625 3 45.0009765625 -7 c 0
 31.0009765625 -16.3330078125 16.66796875 -21 2.0009765625 -21 c 2
 -0.9990234375 -21 l 2
 -16.33203125 -21 -27.9990234375 -15.3330078125 -35.9990234375 -4 c 0
 -40.4439019203 2.6669921875 -42.6663411617 10.5194299938 -42.6663411617 19.5570240247 c 0
 -42.6663411617 24.0751591393 -42.1108941078 28.8894965172 -41 34 c 0
EndSplineSet
Validated: 1
EndChar

StartChar: I
Encoding: 73 73 48
Width: 551
GlyphClass: 2
Flags: HMW
HStem: -11.002 103<399 410.5 399 399> -6.00098 97.999<295.667 420.004> 600.997 108.999<189.004 372.67 197.004 372.67>
LayerCount: 2
Fore
SplineSet
83 -12 m 1x60
 41.6669921875 -13.3330078125 13.33984375 -14.001953125 -1.9931640625 -14.001953125 c 0
 -20.66015625 -14.001953125 -33.9931640625 -9.6689453125 -41.9931640625 -1.001953125 c 0
 -48.2528935273 5.25777633985 -51.3827582598 12.9082171848 -51.3827582598 21.9497373368 c 0
 -51.3827582598 25.4267748894 -50.9198857148 29.1095377604 -49.994140625 32.998046875 c 2
 -49.994140625 35.998046875 l 2
 -47.3271484375 49.3310546875 -39.994140625 60.8310546875 -27.994140625 70.498046875 c 0
 -15.994140625 80.1650390625 -0.6611328125 85.6650390625 18.005859375 86.998046875 c 1
 19.3388671875 92.3310546875 19.671875 92.3310546875 19.0048828125 86.998046875 c 1
 44.337890625 88.3310546875 89.0048828125 89.6640625 153.004882812 90.9970703125 c 1
 173.671875 160.330078125 192.671875 232.663085938 210.004882812 307.99609375 c 0
 219.337890625 347.329101562 228.004882812 386.99609375 236.004882812 426.99609375 c 0
 241.337890625 455.663085938 247.670898438 486.663085938 255.00390625 519.99609375 c 0
 256.336914062 527.329101562 257.836914062 534.329101562 259.50390625 540.99609375 c 0
 261.170898438 547.663085938 264.00390625 557.830078125 268.00390625 571.497070312 c 0
 272.00390625 585.1640625 275.00390625 594.997070312 277.00390625 600.997070312 c 1
 197.00390625 600.997070312 l 2
 181.00390625 600.997070312 164.336914062 600.6640625 147.00390625 599.997070312 c 2
 145.00390625 599.997070312 l 2
 127.670898438 599.997070312 115.00390625 604.6640625 107.00390625 613.997070312 c 0
 101.003952023 620.996772772 98.0037689204 629.683949485 98.0037689204 640.05860045 c 0
 98.0037689204 643.516922968 98.3371429436 647.162754068 99.00390625 650.99609375 c 0
 99.00390625 651.663085938 99.3369140625 652.663085938 100.00390625 653.99609375 c 0
 103.336914062 667.99609375 111.00390625 680.49609375 123.00390625 691.49609375 c 0
 135.00390625 702.49609375 150.670898438 707.99609375 170.00390625 707.99609375 c 0
 224.00390625 709.329101562 275.336914062 709.99609375 324.00390625 709.99609375 c 0
 421.336914062 709.99609375 500.336914062 706.99609375 561.00390625 700.99609375 c 0
 575.00390625 699.663085938 585.670898438 695.330078125 593.00390625 687.997070312 c 0
 599.880972993 681.120003569 603.319506365 672.071119911 603.319506365 660.850419338 c 0
 603.319506365 656.843277866 602.880972993 652.559153712 602.00390625 647.998046875 c 0
 598.670898438 633.331054688 591.337890625 619.6640625 580.004882812 606.997070312 c 0
 574.004882812 599.6640625 566.337890625 593.997070312 557.004882812 589.997070312 c 0
 551.004882812 587.997070312 545.337890625 586.6640625 540.004882812 585.997070312 c 0
 536.671875 585.997070312 533.338867188 586.330078125 530.005859375 586.997070312 c 0
 514.005859375 589.6640625 471.672851562 593.331054688 403.005859375 597.998046875 c 1
 401.005859375 590.665039062 397.672851562 577.33203125 393.005859375 557.999023438 c 0
 388.338867188 539.33203125 384.671875 524.999023438 382.004882812 514.999023438 c 0
 379.337890625 504.999023438 376.670898438 494.666015625 374.00390625 483.999023438 c 0
 364.670898438 443.999023438 357.50390625 411.33203125 352.50390625 385.999023438 c 0
 347.50390625 360.666015625 341.836914062 334.666015625 335.50390625 307.999023438 c 0
 329.170898438 281.33203125 319.50390625 243.665039062 306.50390625 194.998046875 c 0
 293.50390625 146.331054688 284.670898438 112.331054688 280.00390625 92.998046875 c 1
 306.670898438 92.998046875 328.00390625 92.6650390625 344.00390625 91.998046875 c 2
 420.00390625 91.998046875 l 1
 421.336914062 97.3310546875 421.669921875 97.3310546875 421.002929688 91.998046875 c 1xa0
 422.3359375 97.3310546875 422.668945312 97.3310546875 422.001953125 91.998046875 c 1
 423.334960938 97.3310546875 423.66796875 97.3310546875 423.000976562 91.998046875 c 1x60
 424.333984375 97.3310546875 424.666992188 97.3310546875 424 91.998046875 c 1
 442 91.998046875 453.833007812 87.498046875 459.5 78.498046875 c 0
 463.353475002 72.3781734278 465.280212503 65.102347789 465.280212503 56.6705699585 c 0
 465.280212503 52.7024180961 464.853475002 48.4782437349 464 43.998046875 c 0
 462.666992188 37.3310546875 460.666992188 30.998046875 458 24.998046875 c 0
 455.333007812 18.998046875 451.666015625 12.998046875 446.999023438 6.998046875 c 0
 440.999023438 -0.3349609375 433.666015625 -5.3349609375 424.999023438 -8.001953125 c 0
 419.666015625 -10.001953125 414.833007812 -11.001953125 410.5 -11.001953125 c 2
 399 -11.001953125 l 2xa0
 383 -8.3349609375 355.333007812 -6.66796875 316 -6.0009765625 c 0
 275.333007812 -6.0009765625 238 -6.66796875 204 -8.0009765625 c 1
 187.887966573 -5.22292751074 171.486666076 -3.83390298486 154.796027855 -3.83390298486 c 0
 131.431090185 -3.83390298486 107.499145508 -6.55593532324 83 -12 c 1x60
EndSplineSet
Validated: 1
EndChar

StartChar: J
Encoding: 74 74 49
Width: 551
GlyphClass: 2
Flags: HMW
HStem: -34.998 125.999<161.664 167.333> 600.001 109.999<284.998 314.999>
LayerCount: 2
Fore
SplineSet
343 217 m 0
 305.666992188 101 266.33203125 26.3349609375 224.999023438 -6.998046875 c 0
 202.999023438 -25.6650390625 179.666015625 -34.998046875 154.999023438 -34.998046875 c 0
 130.33203125 -34.998046875 107.33203125 -30.6650390625 85.9990234375 -21.998046875 c 0
 64.666015625 -13.3310546875 46.9990234375 -2.3310546875 32.9990234375 11.001953125 c 0
 20.33203125 25.001953125 9.1650390625 40.1689453125 -0.501953125 56.501953125 c 0
 -10.1689453125 72.8349609375 -17.6689453125 89.001953125 -23.001953125 105.001953125 c 0
 -28.3349609375 121.001953125 -32.001953125 135.501953125 -34.001953125 148.501953125 c 0
 -35.5019073626 158.251655669 -36.2520904562 166.782499483 -36.2520904562 174.094896513 c 0
 -36.2520904562 176.532659651 -36.1687164335 178.835006767 -36.001953125 181.001953125 c 0
 -36.001953125 188.334960938 -34.501953125 196.501953125 -31.501953125 205.501953125 c 0
 -28.501953125 214.501953125 -25.001953125 223.001953125 -21.001953125 231.001953125 c 0
 -16.3349609375 241.001953125 -9.501953125 249.501953125 -0.501953125 256.501953125 c 0
 8.498046875 263.501953125 18.998046875 268.334960938 30.998046875 271.001953125 c 0
 34.998046875 271.668945312 38.998046875 271.668945312 42.998046875 271.001953125 c 0
 55.6650390625 271.001953125 64.998046875 267.001953125 70.998046875 259.001953125 c 0
 76.3313802083 251.890625 78.998046875 243.445963542 78.998046875 233.66796875 c 0
 78.998046875 228.778971354 78.3313802083 223.556640624 76.998046875 218.000976562 c 0
 75.716149685 212.103798777 75.07520109 205.664190978 75.07520109 198.682153164 c 0
 75.07520109 187.510483518 76.716149685 174.950091317 79.998046875 161.000976562 c 0
 82.6650390625 148.333984375 87.1650390625 136.833984375 93.498046875 126.500976562 c 0
 99.8310546875 116.16796875 109.6640625 107.66796875 122.997070312 101.000976562 c 0
 136.330078125 94.333984375 152.330078125 91.0009765625 170.997070312 91.0009765625 c 0
 171.6640625 91.0009765625 172.6640625 91.333984375 173.997070312 92.0009765625 c 0
 178.6640625 95.333984375 184.331054688 103.000976562 190.998046875 115.000976562 c 0
 206.331054688 143.000976562 221.331054688 186.333984375 235.998046875 245.000976562 c 2
 236.498046875 247.000976562 l 2
 236.831054688 248.333984375 238.331054688 255.166992188 240.998046875 267.5 c 0
 243.665039062 279.833007812 250.665039062 313 261.998046875 367 c 0
 278.665039062 447.666992188 296.33203125 525.333984375 314.999023438 600.000976562 c 1
 280.332519531 601.000976562 247.749267578 601.500976562 217.249267578 601.500976562 c 0
 186.749267578 601.500976562 158.332519531 601.000976562 131.999023438 600.000976562 c 2
 129.999023438 600.000976562 l 2
 112.666015625 600.000976562 99.9990234375 604.66796875 91.9990234375 614.000976562 c 0
 86.3519455307 620.58900434 83.5285783173 628.67185191 83.5285783173 638.249519271 c 0
 83.5285783173 642.240168153 84.0187349726 646.490328396 84.9990234375 651 c 2
 84.9990234375 654 l 2
 88.33203125 668 96.1650390625 680.5 108.498046875 691.5 c 0
 120.831054688 702.5 136.331054688 708 154.998046875 708 c 0
 209.665039062 709.333007812 260.998046875 710 308.998046875 710 c 0
 406.331054688 710 485.331054688 707 545.998046875 701 c 0
 559.998046875 699.666992188 570.331054688 695.333984375 576.998046875 688.000976562 c 0
 584.256799777 680.742223661 587.886176228 671.063886459 587.886176228 658.965964958 c 0
 587.886176228 655.50887344 587.589807589 651.854202829 586.997070312 648.001953125 c 0
 583.6640625 633.334960938 576.331054688 619.66796875 564.998046875 607.000976562 c 0
 558.998046875 599.66796875 551.331054688 594.000976562 541.998046875 590.000976562 c 0
 535.998046875 588.000976562 530.331054688 586.66796875 524.998046875 586.000976562 c 0
 521.665039062 586.000976562 517.998046875 586.333984375 513.998046875 587.000976562 c 0
 495.331054688 590.333984375 465.998046875 593.333984375 425.998046875 596.000976562 c 1
 422.665039062 579.333984375 411.33203125 521.000976562 391.999023438 421.000976562 c 0
 386.666015625 393.66796875 381.833007812 370.66796875 377.5 352.000976562 c 0
 373.166992188 333.333984375 370.666992188 321.666992188 370 317 c 0
 360 275 351 241.666992188 343 217 c 0
EndSplineSet
Validated: 1
EndChar

StartChar: K
Encoding: 75 75 50
Width: 551
GlyphClass: 2
Flags: HMW
HStem: -21 21G<2.33447 10.001 10.001 13> 693.998 21G
LayerCount: 2
Fore
SplineSet
13 -21 m 2
 10.0009765625 -21 l 2
 -5.33203125 -21 -17.33203125 -16.6669921875 -25.9990234375 -8 c 0
 -31.0405502333 -2.49990844168 -33.5613136312 4.26079561247 -33.5613136312 12.2817948115 c 0
 -33.5613136312 15.9275093229 -33.0405502333 19.8335876521 -31.9990234375 24 c 0
 -31.33203125 26.6669921875 -30.33203125 29.333984375 -28.9990234375 32.0009765625 c 0
 -22.33203125 53.333984375 -13.6650390625 88.6669921875 -2.998046875 138 c 0
 19.001953125 233.333007812 41.3349609375 338.666015625 64.001953125 453.999023438 c 0
 72.6689453125 495.999023438 78.6689453125 524.999023438 82.001953125 540.999023438 c 0
 85.3349609375 556.33203125 91.001953125 577.999023438 99.001953125 605.999023438 c 0
 107.001953125 634.666015625 112.001953125 652.666015625 114.001953125 659.999023438 c 0
 118.668945312 677.33203125 127.3359375 690.999023438 140.002929688 700.999023438 c 0
 152.446636295 709.70952692 165.76139325 714.064778661 179.947200553 714.064778661 c 0
 180.961002624 714.064778661 181.979253481 714.042534732 183.001953125 713.998046875 c 2
 186.001953125 713.998046875 l 2
 200.668945312 713.998046875 212.668945312 710.331054688 222.001953125 702.998046875 c 0
 229.144810268 696.80733817 232.716238839 688.236009248 232.716238839 677.283704218 c 0
 232.716238839 672.902782207 232.144810268 668.140904018 231.001953125 662.998046875 c 0
 227.668945312 646.998046875 219.668945312 615.331054688 207.001953125 567.998046875 c 0
 194.334960938 521.331054688 184.66796875 482.998046875 178.000976562 452.998046875 c 1
 205.333984375 472.998046875 244.666992188 501.665039062 296 538.998046875 c 0
 408 627.665039062 474.333007812 679.33203125 495 693.999023438 c 0
 507.666992188 702.666015625 519 708.666015625 529 711.999023438 c 0
 535.666992188 713.999023438 541.333984375 714.999023438 546.000976562 714.999023438 c 0
 550.66796875 714.999023438 554.334960938 714.666015625 557.001953125 713.999023438 c 0
 564.334960938 711.999023438 570.66796875 708.33203125 576.000976562 702.999023438 c 0
 583.333984375 694.999023438 586.000976562 685.999023438 584.000976562 675.999023438 c 0
 580.000976562 657.999023438 568.66796875 638.666015625 550.000976562 617.999023438 c 0
 537.333984375 605.33203125 495.333984375 568.999023438 424.000976562 508.999023438 c 0
 351.333984375 452.999023438 287.666992188 404.33203125 233 362.999023438 c 1
 251 338.999023438 280.333007812 303.33203125 321 255.999023438 c 0
 362.333007812 211.33203125 398 170.999023438 428 134.999023438 c 0
 443.333007812 112.999023438 454.333007812 95.666015625 461 82.9990234375 c 0
 468.333007812 67.666015625 472 56.9990234375 472 50.9990234375 c 0
 472 42.33203125 471.333007812 33.9990234375 470 25.9990234375 c 0
 468.666992188 20.666015625 466.333984375 15.3330078125 463.000976562 10 c 0
 456.333984375 0.6669921875 447.333984375 -6.666015625 436.000976562 -11.9990234375 c 0
 421.45610306 -18.0596833129 411.869511086 -21.0900132506 407.24120064 -21.0900132506 c 0
 406.778166212 -21.0900132506 406.364758187 -21.0596833129 406.000976562 -20.9990234375 c 2
 405.000976562 -20.9990234375 l 2
 388.333984375 -20.9990234375 374.666992188 -12.666015625 364 4.0009765625 c 0
 360 12.0009765625 341.666992188 35.0009765625 309 73.0009765625 c 0
 276.333007812 110.333984375 241.333007812 151.333984375 204 196.000976562 c 0
 176 225.333984375 153.666992188 250.333984375 137 271.000976562 c 1
 89 25.0009765625 l 2
 83.6669921875 10.333984375 72.6669921875 -1.3330078125 56 -10 c 0
 42 -17.3330078125 27.6669921875 -21 13 -21 c 2
EndSplineSet
Validated: 1
EndChar

StartChar: L
Encoding: 76 76 51
Width: 551
GlyphClass: 2
Flags: HMW
HStem: -9 105 686 20G<255.998 258.998 258.998 266.665>
LayerCount: 2
Fore
SplineSet
18 26 m 0
 18 31 19 36 20 41 c 0
 21 43 21 46 22 50 c 0
 23 54 35 90 58 159 c 0
 81 228 102 294 119 357 c 0
 124 376 130 400 137 428 c 0
 142.965637145 452.856821436 158.81705944 523.188254565 183.571350148 638.994299377 c 0
 183.68440361 639.79082561 183.827286879 640.791008489 184 642 c 0
 189 663 198 679 212 690 c 0
 226 701 241 706 256 706 c 2
 259 706 l 2
 274 706 286 701 295 692 c 0
 302 685 306 676 306 664 c 0
 306 658 305 652 303 645 c 0
 299 626 293 601 284 569 c 0
 273 526 262 485 252 447 c 0
 241 406 229 364 218 321 c 0
 211 294 199 256 184 208 c 0
 169 160 159 123 152 96 c 1
 155 104 155 104 154 96 c 1
 207 96 270 99 343 106 c 0
 414 113 462 119 486 125 c 0
 490 126 494 127 499 127 c 0
 504 127 508 126 512 125 c 0
 519 122 525 116 529 108 c 0
 532 101 533 94 533 87 c 0
 534 79 533 72 532 66 c 0
 529 51 522 40 512 30 c 0
 502 20 489 13 470 10 c 0
 425 1 355 -5 261 -9 c 0
 167 -13 100 -15 59 -15 c 0
 44 -15 32 -9 25 2 c 0
 21 9 18 17 18 26 c 0
EndSplineSet
Validated: 1
EndChar

StartChar: M
Encoding: 77 77 52
Width: 551
GlyphClass: 2
Flags: HMW
HStem: -10.002 21G<-11.3384 -8.00488 -8.00488 -6.00488>
LayerCount: 2
Fore
SplineSet
65 63 m 2
 62.9951171875 52.998046875 l 2
 58.9951171875 34.998046875 50.662109375 19.998046875 37.9951171875 7.998046875 c 0
 23.9951171875 -4.001953125 9.328125 -10.001953125 -6.0048828125 -10.001953125 c 2
 -8.0048828125 -10.001953125 l 2
 -14.671875 -10.001953125 -20.671875 -8.6689453125 -26.0048828125 -6.001953125 c 0
 -33.337890625 -2.001953125 -38.0048828125 5.3310546875 -40.0048828125 15.998046875 c 0
 -40.3010344505 18.6640625 -40.4491102695 21.5275125504 -40.4491102695 24.5883970261 c 0
 -40.4491102695 35.3048563004 -38.634042263 48.44140625 -35.00390625 63.998046875 c 0
 -33.00390625 72.6650390625 -29.00390625 86.998046875 -23.00390625 106.998046875 c 0
 -17.00390625 126.331054688 -8.6708984375 151.998046875 1.99609375 183.998046875 c 0
 13.3291015625 217.998046875 25.99609375 258.331054688 39.99609375 304.998046875 c 0
 53.99609375 351.665039062 65.6630859375 388.998046875 74.99609375 416.998046875 c 0
 104.99609375 512.998046875 127.329101562 579.665039062 141.99609375 616.998046875 c 0
 151.329101562 640.331054688 159.662109375 656.6640625 166.995117188 665.997070312 c 0
 177.662109375 679.997070312 191.329101562 689.997070312 207.99609375 695.997070312 c 0
 221.99609375 701.330078125 235.663085938 703.997070312 248.99609375 703.997070312 c 2
 254.99609375 703.997070312 l 2
 270.329101562 703.997070312 282.329101562 701.6640625 290.99609375 696.997070312 c 0
 303.663085938 690.997070312 310.663085938 680.997070312 311.99609375 666.997070312 c 0
 312.238436798 661.664280468 312.359611256 655.703505518 312.359611256 649.114745463 c 0
 312.359611256 619.462034198 309.905283722 577.089801336 304.99609375 521.998046875 c 0
 298.99609375 454.665039062 290.99609375 377.998046875 280.99609375 291.998046875 c 0
 278.99609375 272.665039062 276.99609375 254.665039062 274.99609375 237.998046875 c 1
 290.329101562 285.998046875 304.99609375 331.331054688 318.99609375 373.998046875 c 0
 337.663085938 429.331054688 358.663085938 484.331054688 381.99609375 538.998046875 c 0
 405.329101562 594.331054688 424.329101562 636.998046875 438.99609375 666.998046875 c 0
 444.329101562 676.998046875 453.329101562 685.331054688 465.99609375 691.998046875 c 0
 477.329101562 697.998046875 488.662109375 701.665039062 499.995117188 702.998046875 c 0
 507.328125 703.665039062 513.328125 704.165039062 517.995117188 704.498046875 c 0
 522.662109375 704.831054688 526.329101562 704.6640625 528.99609375 703.997070312 c 2
 532.99609375 703.997070312 l 1
 547.49609375 703.997070312 l 2
 551.163085938 703.997070312 555.99609375 702.997070312 561.99609375 700.997070312 c 0
 568.663085938 699.6640625 573.99609375 697.6640625 577.99609375 694.997070312 c 0
 581.99609375 692.330078125 585.329101562 688.330078125 587.99609375 682.997070312 c 0
 590.663085938 676.997070312 591.99609375 669.997070312 591.99609375 661.997070312 c 0
 589.99609375 641.997070312 574.663085938 544.997070312 545.99609375 370.997070312 c 0
 517.99609375 197.6640625 503.99609375 99.6640625 503.99609375 76.9970703125 c 0
 503.99609375 63.6640625 502.329101562 51.3310546875 498.99609375 39.998046875 c 0
 496.99609375 30.6650390625 493.329101562 22.6650390625 487.99609375 15.998046875 c 0
 480.663085938 6.6650390625 470.663085938 -0.001953125 457.99609375 -4.001953125 c 0
 450.663085938 -6.001953125 443.330078125 -7.1689453125 435.997070312 -7.501953125 c 0
 428.6640625 -7.8349609375 421.331054688 -6.001953125 413.998046875 -2.001953125 c 0
 401.331054688 4.6650390625 393.998046875 18.33203125 391.998046875 38.9990234375 c 0
 391.799672927 41.3797433038 391.700485953 44.1678382417 391.700485953 47.3633082511 c 0
 391.700485953 97.8569774732 416.466665115 250.068882536 465.999023438 503.999023438 c 1
 445.999023438 452.666015625 428.999023438 403.999023438 414.999023438 357.999023438 c 0
 390.999023438 281.999023438 366.33203125 209.999023438 340.999023438 141.999023438 c 0
 314.999023438 73.9990234375 296.666015625 32.33203125 285.999023438 16.9990234375 c 0
 272.666015625 0.9990234375 248.666015625 -7.0009765625 213.999023438 -7.0009765625 c 2
 208.999023438 -7.0009765625 l 2
 195.666015625 -7.0009765625 184.666015625 -5.0009765625 175.999023438 -1.0009765625 c 0
 165.33203125 3.666015625 159.33203125 10.3330078125 157.999023438 19 c 0
 157.94769856 21.4623917859 157.922036344 24.1675553547 157.922036344 27.1154907063 c 0
 157.922036344 62.4774343062 161.614621384 132.772270737 168.999023438 238 c 0
 174.33203125 316 179.999023438 391.666992188 185.999023438 465 c 1
 181.999023438 451.666992188 174.666015625 427.666992188 163.999023438 393 c 2
 148.999023438 340 l 1
 121.999023438 252 l 2
 113.999023438 224.666992188 105.33203125 196.333984375 95.9990234375 167.000976562 c 0
 88.666015625 144.333984375 81.3330078125 120.666992188 74 96 c 0
 69.3330078125 81.3330078125 66.3330078125 70.3330078125 65 63 c 2
EndSplineSet
Validated: 1
EndChar

StartChar: N
Encoding: 78 78 53
Width: 551
GlyphClass: 2
Flags: HMW
HStem: -11.999 21G<-18.3354 -1.66846> 685.001 20G<173.333 182.667 546 561.333>
VStem: -44.0029 100.002
LayerCount: 2
Fore
SplineSet
163 486 m 1
 157 456 151.666992188 431.000976562 147 411.000976562 c 0
 142.333007812 389.66796875 135.333007812 359.66796875 126 321.000976562 c 0
 116.666992188 283.000976562 105 237.000976562 91 183.000976562 c 0
 77 127.66796875 68 93.0009765625 64 79.0009765625 c 0
 60.6669921875 65.0009765625 58.6669921875 56.0009765625 58 52.0009765625 c 0
 57.3330078125 48.66796875 56.666015625 45.66796875 55.9990234375 43.0009765625 c 0
 51.9990234375 25.0009765625 43.9990234375 11.333984375 31.9990234375 2.0009765625 c 0
 19.33203125 -7.33203125 5.6650390625 -11.9990234375 -9.001953125 -11.9990234375 c 0
 -27.6689453125 -11.9990234375 -39.3359375 -5.9990234375 -44.0029296875 6.0009765625 c 0
 -44.9727773125 10.364758187 -45.4577011251 15.3015376693 -45.4577011251 20.8113619714 c 0
 -45.4577011251 30.453050122 -43.9727773125 41.8495044368 -41.0029296875 55.0009765625 c 0
 -38.3359375 68.333984375 -25.6689453125 120.000976562 -3.001953125 210.000976562 c 0
 31.6650390625 348.66796875 55.33203125 444.000976562 67.9990234375 496.000976562 c 0
 79.9990234375 548.000976562 89.9990234375 595.333984375 97.9990234375 638.000976562 c 0
 98.666015625 640.66796875 99.3330078125 643.66796875 100 647.000976562 c 0
 102 657.000976562 106 665.66796875 112 673.000976562 c 0
 118.666992188 682.333984375 127 689.333984375 137 694.000976562 c 0
 151 701.333984375 165.666992188 705.000976562 181 705.000976562 c 0
 184.333007812 705.000976562 187.666015625 704.66796875 190.999023438 704.000976562 c 0
 204.999023438 704.000976562 216.33203125 701.66796875 224.999023438 697.000976562 c 0
 237.666015625 691.000976562 244.666015625 681.000976562 245.999023438 667.000976562 c 0
 249.999023438 624.333984375 270.666015625 545.333984375 307.999023438 430.000976562 c 0
 339.33203125 332.66796875 367.33203125 251.66796875 391.999023438 187.000976562 c 1
 406.666015625 244.333984375 423.999023438 319.333984375 443.999023438 412.000976562 c 0
 469.999023438 530.000976562 485.33203125 608.000976562 489.999023438 646.000976562 c 0
 490.666015625 650.000976562 491.333007812 653.66796875 492 657.000976562 c 0
 494.666992188 669.000976562 501 679.333984375 511 688.000976562 c 0
 523.666992188 699.333984375 538 705.000976562 554 705.000976562 c 0
 568.666992188 705.000976562 580 702.333984375 588 697.000976562 c 0
 592 694.333984375 595 690.333984375 597 685.000976562 c 0
 597.666992188 679.66796875 598 675.000976562 598 671.000976562 c 0
 598 666.333984375 597.333007812 659.333984375 596 650.000976562 c 0
 595.333007812 638.66796875 584 585.334960938 562 490.001953125 c 0
 558.666992188 476.001953125 555.666992188 462.001953125 553 448.001953125 c 0
 533.666992188 364.668945312 512.666992188 278.668945312 490 190.001953125 c 0
 475.333007812 132.668945312 463.333007812 90.001953125 454 62.001953125 c 0
 445.333007812 35.3349609375 438.333007812 18.3349609375 433 11.001953125 c 0
 420.333007812 -4.998046875 398 -13.3310546875 366 -13.998046875 c 2
 362 -13.998046875 l 2
 350 -13.998046875 340 -11.6650390625 332 -6.998046875 c 0
 322 -1.6650390625 316 5.001953125 314 13.001953125 c 0
 310.666992188 26.3349609375 301.333984375 55.66796875 286.000976562 101.000976562 c 0
 270.000976562 148.333984375 253.333984375 193.666992188 236.000976562 237 c 0
 219.333984375 286.333007812 202.666992188 341 186 401 c 0
 176.666992188 431.666992188 169 460 163 486 c 1
EndSplineSet
Validated: 1
EndChar

StartChar: O
Encoding: 79 79 54
Width: 551
GlyphClass: 2
Flags: HMW
HStem: -24 108<156.998 199.667> 612.001 105.999<360 367.333>
VStem: 2.99902 111.999<161.501 244.667>
LayerCount: 2
Fore
SplineSet
554 480 m 0
 553.333007812 477.333007812 553.331054688 477.333984375 553.998046875 480.000976562 c 1
 542.665039062 406.000976562 526.33203125 333.333984375 504.999023438 262.000976562 c 0
 492.999023438 222.66796875 481.999023438 192.334960938 471.999023438 171.001953125 c 0
 456.666015625 139.668945312 440.166015625 112.668945312 422.499023438 90.001953125 c 0
 404.83203125 67.3349609375 386.665039062 48.66796875 367.998046875 34.0009765625 c 0
 349.331054688 19.333984375 328.331054688 7.6669921875 304.998046875 -1 c 0
 280.998046875 -9.6669921875 257.498046875 -15.6669921875 234.498046875 -19 c 0
 211.498046875 -22.3330078125 185.665039062 -24 156.998046875 -24 c 0
 112.998046875 -23.3330078125 76.998046875 -10.666015625 48.998046875 14.0009765625 c 0
 22.3310546875 39.333984375 5.3310546875 72.6669921875 -2.001953125 114 c 0
 -4.98934221268 130.295572917 -6.48303675652 147.144312009 -6.48303675652 164.546283306 c 0
 -6.48303675652 189.860137677 -3.32235002518 216.344642162 2.9990234375 244 c 0
 2.9990234375 245.333007812 3.33203125 247.333007812 3.9990234375 250 c 0
 5.33203125 257.333007812 6.6650390625 262.666015625 7.998046875 265.999023438 c 0
 14.6650390625 294.666015625 20.33203125 317.833007812 24.9990234375 335.5 c 0
 29.666015625 353.166992188 36.3330078125 376.666992188 45 406 c 0
 62.3330078125 463.333007812 85.3330078125 516.666015625 114 565.999023438 c 0
 141.333007812 610.666015625 179 647.333007812 227 676 c 0
 278.333007812 704 332 718 388 718 c 0
 416.666992188 718 443 712.666992188 467 702 c 0
 490.333007812 691.333007812 509.333007812 676 524 656 c 0
 538.666992188 636 548.666992188 611 554 581 c 0
 556.666503906 566 557.999755859 550.083251953 557.999755859 533.24987793 c 0
 557.999755859 516.416503906 556.666503906 498.666503906 554 480 c 0
146.498046875 94.0009765625 m 0
 156.165039062 87.333984375 168 84 182 84 c 0
 217.333007812 84 250.666015625 92.3330078125 281.999023438 109 c 0
 297.999023438 117 313.33203125 128.166992188 327.999023438 142.5 c 0
 342.666015625 156.833007812 355.333007812 173.333007812 366 192 c 0
 370 199.333007812 376.833007812 217.833007812 386.5 247.5 c 0
 396.166992188 277.166992188 406.333984375 312.666992188 417.000976562 354 c 0
 420.333984375 366 423.333984375 378 426.000976562 390 c 0
 432.66796875 418.666992188 438.000976562 447.333984375 442.000976562 476.000976562 c 0
 443.293748032 485.697354404 443.940133767 494.962827551 443.940133767 503.797382092 c 0
 443.940133767 531.407589443 437.626755845 554.80892914 425 574.000976562 c 0
 408.333007812 599.333984375 383.666015625 612.000976562 350.999023438 612.000976562 c 0
 318.33203125 612.000976562 288.665039062 600.66796875 261.998046875 578.000976562 c 0
 233.998046875 554.000976562 209.331054688 520.66796875 187.998046875 478.000976562 c 0
 164.665039062 430.000976562 145.998046875 374.66796875 131.998046875 312.000976562 c 0
 122.665039062 272.66796875 116.998046875 239.000976562 114.998046875 211.000976562 c 0
 114.331542969 202.667480469 113.998291015 194.375732422 113.998291015 186.125732422 c 0
 113.998291015 177.875732422 114.331542969 169.667480469 114.998046875 161.500976562 c 0
 116.331054688 145.16796875 119.498046875 131.500976562 124.498046875 120.500976562 c 0
 129.498046875 109.500976562 136.831054688 100.66796875 146.498046875 94.0009765625 c 0
EndSplineSet
Validated: 1
EndChar

StartChar: P
Encoding: 80 80 55
Width: 551
GlyphClass: 2
Flags: HMW
HStem: -18.998 21G<22.3286 38.3286> 218 106.003<239.995 249.329 239.995 265.333> 605.003 105.999<331.996 390.997>
VStem: -14.0049 120 114.995 0.999023
LayerCount: 2
Fore
SplineSet
157.99609375 334.002929688 m 1
 178.773670432 327.28116745 203.470987307 323.919534183 232.090300819 323.919534183 c 0
 234.692807144 323.919534183 237.327745368 323.947332308 239.995117188 324.002929688 c 0
 258.662109375 324.002929688 276.162109375 325.3359375 292.495117188 328.002929688 c 0
 308.828125 330.669921875 322.995117188 334.002929688 334.995117188 338.002929688 c 0
 346.995117188 342.002929688 357.995117188 347.3359375 367.995117188 354.002929688 c 0
 377.995117188 360.669921875 386.662109375 367.336914062 393.995117188 374.00390625 c 0
 401.328125 380.670898438 407.995117188 388.50390625 413.995117188 397.50390625 c 0
 419.995117188 406.50390625 424.995117188 414.670898438 428.995117188 422.00390625 c 0
 432.995117188 429.336914062 436.662109375 438.169921875 439.995117188 448.502929688 c 0
 443.328125 458.8359375 445.995117188 467.168945312 447.995117188 473.501953125 c 0
 449.995117188 479.834960938 451.995117188 488.001953125 453.995117188 498.001953125 c 0
 456.17690015 506.729084973 457.267712394 514.960268215 457.267712394 522.695661324 c 0
 457.267712394 529.142051177 456.510150086 535.244117871 454.995117188 541.001953125 c 0
 451.662109375 553.668945312 446.329101562 563.8359375 438.99609375 571.502929688 c 0
 431.663085938 579.169921875 422.163085938 585.669921875 410.49609375 591.002929688 c 0
 398.829101562 596.3359375 387.329101562 600.002929688 375.99609375 602.002929688 c 0
 364.663085938 604.002929688 353.663085938 605.002929688 342.99609375 605.002929688 c 0
 320.99609375 605.002929688 281.329101562 603.002929688 223.99609375 599.002929688 c 1
 203.329101562 519.669921875 189.662109375 466.002929688 182.995117188 438.002929688 c 0
 173.662109375 400.669921875 165.329101562 366.002929688 157.99609375 334.002929688 c 1
117 109 m 0
 110.333007812 61 106.662109375 35.3359375 105.995117188 32.0029296875 c 0
 101.995117188 15.3359375 91.328125 2.6689453125 73.9951171875 -5.998046875 c 0
 59.9951171875 -14.6650390625 45.662109375 -18.998046875 30.9951171875 -18.998046875 c 0
 13.662109375 -18.998046875 0.662109375 -13.6650390625 -8.0048828125 -2.998046875 c 0
 -13.0464096083 3.41850281041 -15.5671730062 11.253068456 -15.5671730062 20.5056500617 c 0
 -15.5671730062 24.7111449372 -15.0464096083 29.2095871042 -14.0048828125 34.0009765625 c 0
 -13.337890625 36.66796875 -12.337890625 41.0009765625 -11.0048828125 47.0009765625 c 0
 -8.337890625 56.333984375 -4.337890625 72.333984375 0.9951171875 95.0009765625 c 0
 9.662109375 132.333984375 20.9951171875 183.666992188 34.9951171875 249 c 0
 58.328125 359.666992188 71.9951171875 425 75.9951171875 445 c 0
 87.3007166236 497.539619405 100.596653935 554.05991456 115.882928348 614.560885659 c 1
 114.64301568 609.710719522 114.347078885 610.524408613 114.995117188 617.001953125 c 1
 113.662109375 611.668945312 113.329101562 612.001953125 113.99609375 618.001953125 c 0
 110.663085938 626.668945312 109.99609375 635.3359375 111.99609375 644.002929688 c 0
 112.663085938 646.669921875 113.329101563 649.002929688 113.99609375 651.002929688 c 0
 117.99609375 661.002929688 124.330078125 670.002929688 132.997070312 678.002929688 c 0
 141.6640625 686.002929688 150.6640625 691.002929688 159.997070312 693.002929688 c 0
 183.997070312 698.3359375 218.997070312 703.002929688 264.997070312 707.002929688 c 0
 305.548936599 709.780164957 335.917380889 711.168782591 356.102403181 711.168782591 c 0
 360.141773306 711.168782591 363.773329017 711.113172769 366.997070312 711.001953125 c 0
 414.997070312 711.001953125 456.330078125 703.001953125 490.997070312 687.001953125 c 0
 521.6640625 670.334960938 543.497070312 645.16796875 556.497070312 611.500976562 c 0
 563.844896399 592.471807065 567.518809442 571.472776243 567.518809442 548.503707759 c 0
 567.518809442 530.83519354 565.344896399 512.000976562 560.997070312 492.000976562 c 0
 552.330078125 454.000976562 538.330078125 418.333984375 518.997070312 385.000976562 c 0
 499.6640625 351.66796875 476.831054688 322.66796875 450.498046875 298.000976562 c 0
 424.165039062 273.333984375 393.33203125 253.666992188 357.999023438 239 c 0
 321.999023438 225 284.666015625 218 245.999023438 218 c 0
 200.666015625 218 163.999023438 220.666992188 135.999023438 226 c 1
 128.666015625 188 122.333007812 149 117 109 c 0
EndSplineSet
Validated: 1
EndChar

StartChar: Q
Encoding: 81 81 56
Width: 551
GlyphClass: 2
Flags: HMW
HStem: -24.002 21G<166.336 191.336> 612.496 105.504
VStem: 179.001 104.002
LayerCount: 2
Fore
SplineSet
379 -204 m 0
 369.666992188 -209.333007812 360.337890625 -212.002929688 351.004882812 -212.002929688 c 0
 346.337890625 -212.002929688 341.670898438 -211.3359375 337.00390625 -210.002929688 c 0
 323.670898438 -206.002929688 314.00390625 -197.669921875 308.00390625 -185.002929688 c 0
 301.336914062 -171.669921875 290.669921875 -149.169921875 276.002929688 -117.502929688 c 0
 261.3359375 -85.8359375 247.3359375 -53.6689453125 234.002929688 -21.001953125 c 1
 218.002929688 -23.001953125 200.669921875 -24.001953125 182.002929688 -24.001953125 c 0
 150.669921875 -24.001953125 122.669921875 -19.001953125 98.0029296875 -9.001953125 c 0
 73.3359375 0.998046875 54.0029296875 14.3310546875 40.0029296875 30.998046875 c 0
 26.0029296875 48.3310546875 15.0029296875 68.3310546875 7.0029296875 90.998046875 c 0
 -0.733878406929 115.313729457 -4.60220004576 142.276302587 -4.60220004576 171.885601448 c 0
 -4.60220004576 195.855269391 -2.06712765514 221.559447012 3.0029296875 248.998046875 c 0
 6.3359375 265.665039062 10.0029296875 282.33203125 14.0029296875 298.999023438 c 0
 38.0029296875 403.666015625 71.0029296875 491.333007812 113.002929688 562 c 0
 140.3359375 606.666992188 178.002929688 644 226.002929688 674 c 0
 277.3359375 703.333007812 330.668945312 718 386.001953125 718 c 0
 444.668945312 718 490.001953125 699.333007812 522.001953125 662 c 0
 536.668945312 643.333007812 546.668945312 618.333007812 552.001953125 587 c 0
 554.846050358 570.290082457 556.268098974 552.252826957 556.268098974 532.888233501 c 0
 556.268098974 515.941997986 555.17905817 497.979253485 553.000976562 479 c 0
 548.333984375 443 540.333984375 401.333007812 529.000976562 354 c 0
 509.66796875 270 491.000976562 207 473.000976562 165 c 0
 444.333984375 97 403.666992188 47 351 15 c 1
 364.333007812 -14.3330078125 381 -48 401 -86 c 0
 412.368175048 -108.104476434 418.052677717 -120.037940075 418.052677717 -121.800390921 c 0
 418.052677717 -121.898345115 418.035118526 -121.964881474 418 -122 c 0
 420.083196634 -127.00016022 421.124914172 -132.130409953 421.124914172 -137.390987642 c 0
 421.124914172 -140.547064552 420.749959945 -143.750051508 420 -147 c 0
 419.333007812 -149 418.666015625 -151.333007812 417.999023438 -154 c 0
 413.999023438 -164 408.33203125 -173.666992188 400.999023438 -183 c 0
 393.666015625 -192.333007812 386.333007812 -199.333007812 379 -204 c 0
178.00390625 113.997070312 m 0
 176.818002932 121.704356284 176.224879556 129.082234248 176.224879556 136.130618348 c 0
 176.224879556 144.933429742 177.150022219 153.222302815 179.000976562 160.997070312 c 0
 183.66796875 182.330078125 195.334960938 198.997070312 214.001953125 210.997070312 c 0
 225.334960938 218.330078125 236.334960938 222.330078125 247.001953125 222.997070312 c 0
 255.668945312 222.997070312 263.3359375 219.997070312 270.002929688 213.997070312 c 0
 276.669921875 207.997070312 281.002929688 198.6640625 283.002929688 185.997070312 c 0
 287.002929688 157.330078125 294.669921875 125.663085938 306.002929688 90.99609375 c 1
 330.669921875 108.329101562 350.336914062 133.99609375 365.00390625 167.99609375 c 0
 369.00390625 177.329101562 375.670898438 196.99609375 385.00390625 226.99609375 c 0
 394.336914062 256.99609375 404.336914062 294.663085938 415.00390625 339.99609375 c 2
 419.00390625 355.99609375 l 2
 428.336914062 395.329101562 435.00390625 432.99609375 439.00390625 468.99609375 c 0
 440.057761553 479.082364458 440.584683583 488.692692222 440.584683583 497.827088286 c 0
 440.584683583 529.144312992 434.390940088 554.867163763 422.00390625 574.99609375 c 0
 406.869838993 600.000414413 383.129536108 612.502574744 350.78393664 612.502574744 c 0
 350.358746809 612.502574744 349.932070012 612.500414413 349.50390625 612.49609375 c 0
 316.50390625 612.163085938 286.336914062 600.330078125 259.00390625 576.997070312 c 0
 230.336914062 552.330078125 205.336914062 517.997070312 184.00390625 473.997070312 c 0
 160.00390625 421.997070312 141.670898438 367.997070312 129.00390625 311.997070312 c 0
 124.336914062 291.997070312 120.336914062 271.6640625 117.00390625 250.997070312 c 0
 113.731178977 230.996892755 112.094815341 212.137404765 112.094815341 194.41844786 c 0
 112.094815341 179.652650439 113.231178977 165.678888494 115.50390625 152.497070312 c 0
 120.50390625 123.497070312 130.670898438 100.6640625 146.00390625 83.9970703125 c 0
 158.670898438 70.6640625 173.670898438 62.9970703125 191.00390625 60.9970703125 c 1
 184.336914062 82.330078125 180.00390625 99.9970703125 178.00390625 113.997070312 c 0
EndSplineSet
Validated: 1
EndChar

StartChar: R
Encoding: 82 82 57
Width: 551
GlyphClass: 2
Flags: HMW
HStem: -18.9961 21G<18.3325 25.999 25.999 28.999> 694.003 20G<185.998 201.665>
LayerCount: 2
Fore
SplineSet
117 129 m 0
 109.666992188 73.6669921875 105.33203125 42.3369140625 103.999023438 35.00390625 c 0
 99.9990234375 17.6708984375 89.666015625 4.00390625 72.9990234375 -5.99609375 c 0
 58.9990234375 -14.6630859375 44.33203125 -18.99609375 28.9990234375 -18.99609375 c 2
 25.9990234375 -18.99609375 l 2
 10.666015625 -18.99609375 -1.333984375 -13.6630859375 -10.0009765625 -2.99609375 c 0
 -15.3343098958 3.22591145833 -18.0009765625 10.78125 -18.0009765625 19.669921875 c 0
 -18.0009765625 24.1142578125 -17.3343098958 28.8919270833 -16.0009765625 34.0029296875 c 0
 -15.333984375 36.669921875 -14.333984375 39.3369140625 -13.0009765625 42.00390625 c 0
 -3.0009765625 75.3369140625 4.666015625 103.336914062 9.9990234375 126.00390625 c 0
 11.33203125 132.00390625 14.33203125 145.170898438 18.9990234375 165.50390625 c 0
 23.666015625 185.836914062 29.9990234375 214.00390625 37.9990234375 250.00390625 c 0
 45.9990234375 286.00390625 50.9990234375 308.336914062 52.9990234375 317.00390625 c 0
 54.9990234375 325.670898438 59.666015625 343.670898438 66.9990234375 371.00390625 c 0
 78.9990234375 417.00390625 88.33203125 457.670898438 94.9990234375 493.00390625 c 0
 99.666015625 515.00390625 104.999023438 544.670898438 110.999023438 582.00390625 c 0
 116.999023438 619.336914062 120.999023438 642.00390625 122.999023438 650.00390625 c 1
 122.33203125 645.336914062 122.665039062 647.00390625 123.998046875 655.00390625 c 0
 123.998046875 656.336914062 124.331054688 657.669921875 124.998046875 659.002929688 c 0
 127.665039062 671.002929688 135.498046875 683.169921875 148.498046875 695.502929688 c 0
 161.498046875 707.8359375 176.998046875 714.002929688 194.998046875 714.002929688 c 0
 208.331054688 714.002929688 218.331054688 711.3359375 224.998046875 706.002929688 c 1
 278.331054688 703.3359375 326.998046875 696.168945312 370.998046875 684.501953125 c 0
 414.998046875 672.834960938 450.665039062 658.66796875 477.998046875 642.000976562 c 0
 504.665039062 625.333984375 525.33203125 605.666992188 539.999023438 583 c 0
 554.666015625 560.333007812 563.666015625 537.666015625 566.999023438 514.999023438 c 0
 568.387641072 505.555365683 569.08194989 496.053905364 569.08194989 486.494642479 c 0
 569.08194989 473.109433766 567.720648884 459.610894086 564.998046875 445.999023438 c 0
 552.998046875 393.999023438 524.665039062 354.999023438 479.998046875 328.999023438 c 0
 465.998046875 320.33203125 451.331054688 313.665039062 435.998046875 308.998046875 c 0
 419.998046875 303.665039062 401.331054688 298.83203125 379.998046875 294.499023438 c 0
 358.665039062 290.166015625 340.665039062 286.999023438 325.998046875 284.999023438 c 0
 311.331054688 282.999023438 299.331054688 281.666015625 289.998046875 280.999023438 c 1
 337.998046875 251.666015625 378.665039062 217.999023438 411.998046875 179.999023438 c 0
 450.665039062 134.666015625 473.998046875 95.3330078125 481.998046875 62 c 0
 482.665039062 54.6669921875 482.33203125 47.5 480.999023438 40.5 c 0
 479.666015625 33.5 476.999023438 27 472.999023438 21 c 0
 465.666015625 9 456.333007812 -0.6669921875 445 -8 c 0
 435 -14.6669921875 425 -18 415 -18 c 0
 396.333007812 -18 382.333007812 -8 373 12 c 0
 366.333007812 26 355.5 43 340.5 63 c 0
 325.5 83 307 105.333007812 285 130 c 0
 263 154.666992188 237 179 207 203 c 0
 183 222.333007812 159 238.333007812 135 251 c 1
 129.666992188 217.666992188 123.666992188 177 117 129 c 0
189.998046875 449.002929688 m 0
 184.665039062 432.3359375 175.997070312 406.002929688 163.997070312 370.002929688 c 1
 168.6640625 370.002929688 175.1640625 369.8359375 183.497070312 369.502929688 c 0
 191.830078125 369.169921875 201.997070312 369.669921875 213.997070312 371.002929688 c 0
 241.997070312 372.3359375 265.330078125 373.668945312 283.997070312 375.001953125 c 0
 331.997070312 379.001953125 367.330078125 384.334960938 389.997070312 391.001953125 c 0
 402.6640625 395.001953125 413.831054688 399.668945312 423.498046875 405.001953125 c 0
 433.165039062 410.334960938 440.498046875 416.16796875 445.498046875 422.500976562 c 0
 450.498046875 428.833984375 453.998046875 436.333984375 455.998046875 445.000976562 c 0
 456.898847652 449.144976854 457.34925768 453.313372716 457.34925768 457.506144871 c 0
 457.34925768 468.826838857 454.065647239 480.325242582 447.498046875 492.000976562 c 0
 438.498046875 508.000976562 425.331054688 522.333984375 407.998046875 535.000976562 c 0
 390.665039062 547.66796875 369.998046875 559.334960938 345.998046875 570.001953125 c 0
 321.998046875 580.668945312 299.998046875 589.001953125 279.998046875 595.001953125 c 0
 259.998046875 601.001953125 241.665039062 605.668945312 224.998046875 609.001953125 c 1
 216.331054688 567.001953125 208.998046875 530.001953125 202.998046875 498.001953125 c 0
 200.331054688 484.668945312 195.998046875 468.3359375 189.998046875 449.002929688 c 0
EndSplineSet
Validated: 1
EndChar

